<svg id="Capa_1" data-name="Capa 1" xmlns="http://www.w3.org/2000/svg" viewBox="0 0 1852.79 1048"><defs><style>.cls-1{fill:#d97aeb;}.cls-1,.cls-13,.cls-2,.cls-3,.cls-4,.cls-5{stroke:#4ac9ff;}.cls-1,.cls-13,.cls-19,.cls-2,.cls-3,.cls-4,.cls-5{stroke-miterlimit:10;}.cls-12,.cls-2{fill:#e0e0e0;}.cls-3{fill:#0a64ff;}.cls-4{fill:#ae81e8;}.cls-5{fill:#ff8ae9;}.cls-6{fill:#e8505b;}.cls-7{fill:#263238;}.cls-8{fill:#455a64;}.cls-9{fill:#fafafa;}.cls-10{fill:#ebebeb;}.cls-11{opacity:0.5;}.cls-13,.cls-18{fill:#3fc1ff;}.cls-14{opacity:0.4;}.cls-15{fill:#64ffff;}.cls-16{fill:#fff;}.cls-17{opacity:0.75;}.cls-19{fill:none;stroke:#4e585d;stroke-width:0.05px;}.cls-20{opacity:0.2;}.cls-21{fill:#b78876;}.cls-22{fill:#aa6550;}.cls-23{opacity:0.3;}</style></defs><title>thecarshow</title><path class="cls-1" d="M1636,272.43c9.12,3.43,16.09,11.36,19.84,20.35s4.54,19,3.92,28.7c-1.19,18.8-10.89,38.21-21.59,53.72-16.43-13-21.24-36.76-22.92-49-2.66-19.33,4.27-55.87,20.75-53.78" transform="translate(-35.39 -16)"/><path class="cls-1" d="M1658,405.17c-3-10.45.78-22.26,8.54-29.89s18.94-11.26,29.82-11c5,.13,10.52,1.32,13.59,5.31,2.87,3.72,2.84,9.12.87,13.39s-5.58,7.57-9.44,10.26c-13.22,9.24-27.72,15.76-43.38,11.89" transform="translate(-35.39 -16)"/><path class="cls-2" d="M1640.62,463.52a23.69,23.69,0,0,1,.37-3.87c.37-2.73.83-6.25,1.39-10.48,1.32-8.77,2.94-21.31,9.08-33.71S1666.4,393.76,1674,389a45.71,45.71,0,0,1,9.5-4.77,27.4,27.4,0,0,1,2.76-.85c.64-.17,1-.24,1-.19.13.3-5.39,1.58-12.71,6.61s-15.91,14.13-21.87,26.29-7.8,24.52-9.35,33.26c-.74,4.4-1.34,8-1.82,10.41A20.41,20.41,0,0,1,1640.62,463.52Z" transform="translate(-35.39 -16)"/><path class="cls-2" d="M1633.16,300.72a7.86,7.86,0,0,1,.28,1.67c.13,1.24.31,2.83.52,4.81.43,4.17,1,10.22,1.59,17.71,1.23,15,2.63,35.65,3.67,58.54s1.49,43.63,1.62,58.65c.07,7.5.07,13.58,0,17.77,0,2-.06,3.59-.09,4.84a.85.85,0,1,1-.27,0c0-1.25-.1-2.85-.17-4.83-.11-4.37-.26-10.39-.44-17.77-.38-15-1-35.72-2-58.6s-2.29-43.56-3.27-58.53c-.48-7.37-.87-13.38-1.16-17.74-.11-2-.2-3.58-.27-4.83A9.14,9.14,0,0,1,1633.16,300.72Z" transform="translate(-35.39 -16)"/><path class="cls-1" d="M1631.3,417.9a72.43,72.43,0,0,0-42.13-51c-5.38-2.26-12.34-3.57-16.47.56s-2.82,11.12-.43,16.47c9.94,22.22,34.43,37.05,58.73,35.56" transform="translate(-35.39 -16)"/><path class="cls-2" d="M1592.6,384.48a18.66,18.66,0,0,1,3.42,1.29,35.31,35.31,0,0,1,3.88,1.83,56.59,56.59,0,0,1,4.95,2.78,64.71,64.71,0,0,1,5.71,3.86,71.38,71.38,0,0,1,6.11,5A80.37,80.37,0,0,1,1628.5,413a78.35,78.35,0,0,1,8.15,16.2,69.08,69.08,0,0,1,2.23,7.6,57.86,57.86,0,0,1,1.29,6.78,53.5,53.5,0,0,1,.54,5.66,31.79,31.79,0,0,1,.08,4.28,18.67,18.67,0,0,1-.22,3.64c-.31,0,0-5.21-1.36-13.43a61.53,61.53,0,0,0-1.42-6.65,72.14,72.14,0,0,0-2.32-7.45,82,82,0,0,0-8.1-15.88,84.24,84.24,0,0,0-11.55-13.57,74.14,74.14,0,0,0-6-5.05c-1.89-1.56-3.81-2.79-5.53-4C1597.33,386.68,1592.48,384.75,1592.6,384.48Z" transform="translate(-35.39 -16)"/><path class="cls-3" d="M1783.13,353.77c6.79,7,9.73,17.13,9.3,26.86s-4,19.1-8.66,27.64c-9.08,16.51-26.11,30-42.39,39.44-9.36-18.73-3.59-42.31.09-54.09,5.82-18.62,27.63-48.74,41.66-39.85" transform="translate(-35.39 -16)"/><path class="cls-3" d="M1746.58,483.26c1.69-10.75,10.18-19.81,20.44-23.42s21.93-2.12,31.65,2.77c4.5,2.26,8.95,5.67,10,10.59,1,4.59-1.31,9.46-4.91,12.49s-8.27,4.47-12.91,5.27c-15.9,2.73-31.78,2.46-44.31-7.7" transform="translate(-35.39 -16)"/><path class="cls-3" d="M1706.05,528.68a22.61,22.61,0,0,1,2-3.34l5.72-8.89c4.91-7.38,11.71-18,22.55-26.65s22.75-13.28,31.69-14.37a44.71,44.71,0,0,1,10.62-.28,28.75,28.75,0,0,1,2.86.4,3.06,3.06,0,0,1,1,.25c0,.33-5.55-.86-14.32.58s-20.41,6-31,14.49-17.48,18.88-22.6,26.12c-2.54,3.67-4.6,6.64-6.08,8.65A20.11,20.11,0,0,1,1706.05,528.68Z" transform="translate(-35.39 -16)"/><path class="cls-3" d="M1768.55,378.18a8.77,8.77,0,0,1-.46,1.63c-.41,1.18-.93,2.69-1.57,4.57-1.39,4-3.47,9.67-6.1,16.7-5.25,14.06-12.79,33.39-21.58,54.55s-17.21,40.12-23.48,53.76c-3.14,6.82-5.72,12.32-7.55,16.1l-2.14,4.33a7.9,7.9,0,0,1-.83,1.48,8.18,8.18,0,0,1,.58-1.59l1.9-4.45,7.16-16.26c6-13.74,14.3-32.76,23.1-53.9s16.46-40.4,21.94-54.36l6.5-16.55,1.81-4.48A7.35,7.35,0,0,1,1768.55,378.18Z" transform="translate(-35.39 -16)"/><path class="cls-3" d="M1717,483.43a72.4,72.4,0,0,0-16.41-64.1c-3.91-4.34-9.65-8.48-15.15-6.5s-7.28,8.87-7.39,14.72c-.46,24.34,15.39,48.18,38,57.17" transform="translate(-35.39 -16)"/><path class="cls-3" d="M1696.21,436.73a18.69,18.69,0,0,1,2.54,2.62,35,35,0,0,1,2.73,3.3c1,1.36,2.23,2.81,3.31,4.63a63.91,63.91,0,0,1,3.52,5.92,71.4,71.4,0,0,1,3.39,7.16,80.53,80.53,0,0,1,4.86,17.46A78.71,78.71,0,0,1,1717,496a69.62,69.62,0,0,1-1.21,7.83,58.84,58.84,0,0,1-1.72,6.68,54.69,54.69,0,0,1-1.92,5.35,33,33,0,0,1-1.74,3.91,17.57,17.57,0,0,1-1.76,3.2c-.28-.13,2.19-4.73,4.49-12.74a64.37,64.37,0,0,0,1.54-6.62,71,71,0,0,0,1.07-7.73,81.38,81.38,0,0,0-.58-17.81,83.74,83.74,0,0,0-4.67-17.2,74.88,74.88,0,0,0-3.24-7.1,66.7,66.7,0,0,0-3.33-5.94C1699.55,440.73,1696,436.92,1696.21,436.73Z" transform="translate(-35.39 -16)"/><path class="cls-3" d="M93.32,121.57s-28.94,9-.87,68.85,48.08,89.74,48.08,89.74,4.82,13.81-7.13,15.38-37.82-3.62-43.78,10.12c-6.18,14.24,4.07,28.41,25.62,41.41s67.68,43.14,71.84,45.88,8,9.2,0,11.53-66.9,5.57-63.63,32.45S193,490.5,200.14,493.55s8.79,6.12,8,10-20.7,3.13-37.42,4.72-35.83,6.25-32.6,21.6,41.58,49,138,62.59l45.11,3.46,26.38-35.7c51.63-79.7,49.77-129.69,39.71-142s-26.09-1.27-38.16,10-24.38,26.39-27.93,24.49-4.94-5.07-2.71-12.33,23.91-73.22,4.76-93-59.82,21.48-66.81,25.83-9.6-2.73-9.09-7.48,6.49-58.26,10.14-82.52-.93-40.95-16.19-45.62c-14.72-4.5-27.34,17.9-36.31,25.67s-16.77-4.7-16.77-4.7-10.72-34.06-39.92-93.4S92.75,121.8,92.75,121.8" transform="translate(-35.39 -16)"/><path class="cls-3" d="M323.08,606.25c-21.26-43.66-57.69-121.88-89.34-188.87s-60.33-127.57-81.36-171.33l-25-51.8c-2.92-6.08-5.2-10.82-6.78-14.09l-1.73-3.68c-.38-.83-.54-1.27-.54-1.27s.25.4.67,1.21L120.9,180l7,14c6.08,12.15,14.75,29.79,25.37,51.62C174.54,289.3,203.39,349.85,235,416.82s67.94,145.26,89,189" transform="translate(-35.39 -16)"/><path class="cls-3" d="M125.52,314.33a14.54,14.54,0,0,1,3.11,1c2,.71,4.79,1.82,8.26,3.22,6.93,2.81,16.4,6.93,26.76,11.66l26.49,12.21,8,3.65a14.74,14.74,0,0,1,2.91,1.45,14.44,14.44,0,0,1-3.12-1c-2-.71-4.79-1.82-8.24-3.26-6.91-2.88-16.32-7.12-26.68-11.85l-26.56-12-8.07-3.61A15.41,15.41,0,0,1,125.52,314.33Z" transform="translate(-35.39 -16)"/><path class="cls-3" d="M204.31,344.87c-.36-.15,7.59-19.35,17.76-42.88s18.7-42.51,19.06-42.37-7.59,19.34-17.76,42.89S204.67,345,204.31,344.87Z" transform="translate(-35.39 -16)"/><path class="cls-3" d="M248.09,449.84a14.37,14.37,0,0,1,2-2.61l5.7-6.82c4.8-5.76,11.39-13.75,18.34-22.82s13-17.46,17.26-23.58l5.1-7.25a15.12,15.12,0,0,1,2-2.58,14.49,14.49,0,0,1-1.54,2.86c-1.08,1.79-2.68,4.36-4.73,7.49-4.1,6.26-10,14.78-17,23.87s-13.69,17-18.7,22.62c-2.51,2.8-4.57,5-6,6.55A15.73,15.73,0,0,1,248.09,449.84Z" transform="translate(-35.39 -16)"/><path class="cls-3" d="M170.52,437.34a13.71,13.71,0,0,1,3.08.19l8.33,1c7,.92,16.72,2.28,27.41,3.87s20.35,3.1,27.34,4.26l8.26,1.44a13.47,13.47,0,0,1,3,.71,13,13,0,0,1-3.08-.19l-8.33-1c-7-.91-16.72-2.28-27.41-3.86s-20.35-3.1-27.34-4.26l-8.26-1.45A13.69,13.69,0,0,1,170.52,437.34Z" transform="translate(-35.39 -16)"/><path class="cls-3" d="M197,534.75a22.14,22.14,0,0,1,3.94.28l10.68,1.27c9,1.13,21.44,2.78,35.16,4.68s26.14,3.71,35.11,5.08l10.62,1.7a22.32,22.32,0,0,1,3.86.8,22.14,22.14,0,0,1-3.94-.28L281.71,547c-9-1.12-21.44-2.78-35.17-4.68s-26.13-3.71-35.1-5.08l-10.62-1.7A22.32,22.32,0,0,1,197,534.75Z" transform="translate(-35.39 -16)"/><path class="cls-3" d="M294.05,547.59a24.23,24.23,0,0,1,2.41-3.37l6.9-8.89c5.81-7.52,13.8-17.94,22.29-29.67s15.91-22.54,21.22-30.4l6.29-9.31a23.92,23.92,0,0,1,2.45-3.33,24,24,0,0,1-2,3.61c-1.35,2.28-3.36,5.55-5.92,9.54-5.1,8-12.39,18.92-20.91,30.66s-16.63,22.1-22.66,29.48c-3,3.68-5.5,6.64-7.25,8.64A25,25,0,0,1,294.05,547.59Z" transform="translate(-35.39 -16)"/><path class="cls-4" d="M917,503.41c-68.49-34.47-94.27-113.1-102.29-186-1.34-12.16-4.51-24.73-.29-36.18s16.61-20.65,28.18-17.12c9.61,2.93,15,12.82,21.31,20.74a71.56,71.56,0,0,0,32.31,23c8.29,2.89,18.18,4,25.18-1.34,9.61-7.27,8.75-21.87,6.94-33.9Q923.25,239,918.18,205.4c-1.82-12-3.63-24.32-1.54-36.28s8.83-23.78,19.82-28.65,26.11-.3,30.23,11.13c1.72,4.76,1.45,10,2.51,14.94s4.18,10.15,9.13,10.85,9.33-3.39,12.42-7.43c10.67-14,16.84-30.83,22.47-47.55s11-33.76,20.33-48.64,23.44-27.65,40.53-31.12,37,4.52,43.82,20.81-.59,35-9.38,50.29a271.48,271.48,0,0,1-48.24,61.42c-3.41,3.24-7.1,6.75-7.91,11.42-1.45,8.4,7.31,15.27,15.61,16.77,9.41,1.69,19-.65,28.55-.9s20.32,2.42,25.15,10.78c6.71,11.59-1.71,26-10.62,35.88a232.61,232.61,0,0,1-62.44,49.18c-8.39,4.52-17.3,8.71-23.54,16s-9,18.7-3.45,26.56,17,9,26,5.91,16.6-9.29,25-13.91c15.64-8.63,37.17-10.58,49.83,2.19,8.33,8.39,10.83,21.39,8.93,33.1s-7.65,22.39-14,32.39c-22,34.94-52.35,64.9-88.8,83.75s-71.5,27.6-111.65,19.16" transform="translate(-35.39 -16)"/><path class="cls-4" d="M929.13,455.25c5.39-38.14,14.75-79.46,26-122.33q4.29-16.07,8.47-31.72c2.8-10.4,5.58-20.72,8.92-30.64A547.34,547.34,0,0,1,995,214.64c8-17.44,16.25-33.69,24.06-48.84s15.43-29.1,22.88-41.54a431.94,431.94,0,0,1,39.49-56c5.17-6.23,9.33-10.92,12.19-14.07,1.39-1.5,2.47-2.67,3.28-3.56a9.54,9.54,0,0,1,1.18-1.16,8.23,8.23,0,0,1-1,1.32l-3.12,3.7c-2.75,3.24-6.8,8-11.86,14.33a457.53,457.53,0,0,0-38.81,56.28c-7.34,12.45-14.82,26.43-22.59,41.58s-15.89,31.44-23.83,48.86a552.16,552.16,0,0,0-22.27,55.74c-3.31,9.87-6,20.1-8.86,30.53l-8.45,31.7c-11.27,42.85-20.68,84.05-26.16,122.06" transform="translate(-35.39 -16)"/><path class="cls-4" d="M973.19,270.38c-.15.05-.82-1.72-1.92-5s-2.57-8-4.28-13.84c-3.44-11.74-7.63-28.12-12.18-46.19s-9-34.35-12.57-46c-1.78-5.83-3.28-10.54-4.35-13.78s-1.57-5.07-1.43-5.13.94,1.67,2.24,4.83,3.06,7.8,5,13.59c4,11.57,8.68,27.84,13.23,45.94,4.45,17.85,8.47,34,11.54,46.32,1.42,5.57,2.63,10.26,3.59,14C972.94,268.48,973.34,270.34,973.19,270.38Z" transform="translate(-35.39 -16)"/><path class="cls-4" d="M1123.78,219.08c0,.15-2.13.73-6.06,1.63s-9.6,2.24-16.57,4.09c-14,3.58-33.06,9.2-53.86,16.32s-39.35,14.44-52.61,20.1C988,264,982.7,266.39,979,268s-5.75,2.49-5.82,2.35,1.87-1.25,5.45-3.15,8.81-4.5,15.41-7.48c13.13-6.05,31.65-13.59,52.51-20.78a551.71,551.71,0,0,1,54.22-15.73c7-1.65,12.78-2.73,16.77-3.39S1123.75,218.93,1123.78,219.08Z" transform="translate(-35.39 -16)"/><path class="cls-4" d="M930.63,452.13a7.83,7.83,0,0,1-1.34-1.74l-3.45-5.22c-3-4.54-7.13-11.23-12.14-19.55-10-16.66-23.16-40.1-37.3-66.15s-27-49.6-36.71-66.44l-11.51-19.91c-1.25-2.17-2.27-4-3.11-5.43a8.86,8.86,0,0,1-1-2,8.22,8.22,0,0,1,1.34,1.74l3.45,5.21c3,4.54,7.13,11.23,12.14,19.56,10,16.65,23.16,40.09,37.3,66.16s27,49.58,36.71,66.42l11.51,19.91c1.24,2.17,2.27,4,3.1,5.44A8.47,8.47,0,0,1,930.63,452.13Z" transform="translate(-35.39 -16)"/><path class="cls-4" d="M1126.72,356.11a8.34,8.34,0,0,1-1.92,1.13l-5.68,2.87-21,10.32c-17.73,8.72-42.07,21-69,34.69s-51.37,25.78-69.28,34.13c-8.95,4.18-16.23,7.49-21.31,9.67l-5.86,2.48a8.28,8.28,0,0,1-2.1.73,8.1,8.1,0,0,1,1.92-1.14l5.68-2.87,21-10.32c17.72-8.71,42.07-21,69-34.7s51.35-25.76,69.26-34.12c9-4.18,16.23-7.49,21.31-9.67l5.86-2.48A7.47,7.47,0,0,1,1126.72,356.11Z" transform="translate(-35.39 -16)"/><path class="cls-5" d="M1454.79,216.27c0-43.62-45.83-71.25-92.55-49.39a53.05,53.05,0,0,0-24.59,23.57c-11.75,22.77-6.56,48.77,4.1,70.36L1378.11,353c5.24,13.29,24.07,13.21,29.2-.12L1443,260.21C1455.31,232,1454.79,216.27,1454.79,216.27Zm-43.9,37.95c-31.41,18.27-63.24-15.49-46-48.81a26.18,26.18,0,0,1,10-10.58c31.41-18.26,63.25,15.5,46,48.81A26.25,26.25,0,0,1,1410.89,254.22Z" transform="translate(-35.39 -16)"/><path class="cls-1" d="M39.36,688.79c8.55-4.68,19.1-4.8,28.36-1.78S85.07,695.94,92,702.74c13.49,13.17,21.88,33.17,26.67,51.4-20.54,4-41.73-7.86-52.1-14.55C50.23,729,27,699.93,39.36,688.79" transform="translate(-35.39 -16)"/><path class="cls-1" d="M154.36,758.63c-9.9-4.5-16.37-15.1-17.1-26s3.82-21.7,11.13-29.76c3.38-3.72,7.86-7.11,12.88-6.84,4.7.25,8.77,3.79,10.73,8.07s2.1,9.17,1.63,13.85c-1.62,16-6.13,31.29-19.27,40.64" transform="translate(-35.39 -16)"/><path class="cls-2" d="M187.29,809.83a21.94,21.94,0,0,1-2.69-2.8l-7-7.89c-5.79-6.7-14.25-16.11-19.65-28.86s-6.71-25.47-5.37-34.37a44.84,44.84,0,0,1,2.57-10.31,27.92,27.92,0,0,1,1.15-2.65c.29-.6.46-.9.51-.88.31.1-2.32,5.12-3.27,13.95s.33,21.28,5.67,33.73,13.52,21.9,19.13,28.77c2.85,3.42,5.16,6.2,6.71,8.17A20.47,20.47,0,0,1,187.29,809.83Z" transform="translate(-35.39 -16)"/><path class="cls-2" d="M59,709.37a7.31,7.31,0,0,1,1.44.88l4,2.73c3.45,2.4,8.39,5.93,14.46,10.34,12.15,8.82,28.76,21.25,46.79,35.38s34.06,27.31,45.53,37c5.74,4.85,10.34,8.81,13.49,11.58l3.61,3.22a8,8,0,0,1,1.2,1.2,8.46,8.46,0,0,1-1.38-1l-3.77-3-13.77-11.24c-11.61-9.5-27.73-22.54-45.75-36.67S90.29,733.12,78.3,724.1L64.1,713.41l-3.84-2.94A7.17,7.17,0,0,1,59,709.37Z" transform="translate(-35.39 -16)"/><path class="cls-1" d="M146.62,787.17a72.45,72.45,0,0,0-66.16-1.33c-5.22,2.62-10.75,7-10.31,12.86s6.6,9.39,12.21,11.06c23.33,7,50.54-2,65.25-21.35" transform="translate(-35.39 -16)"/><path class="cls-2" d="M96.06,794.73a17.72,17.72,0,0,1,3.2-1.75,34.55,34.55,0,0,1,3.91-1.75c1.57-.58,3.31-1.4,5.34-2a65.25,65.25,0,0,1,6.65-1.8,68,68,0,0,1,7.81-1.36,80.07,80.07,0,0,1,18.13,0,78.56,78.56,0,0,1,17.6,4.39,69.42,69.42,0,0,1,7.22,3.26,61,61,0,0,1,6,3.44,54.54,54.54,0,0,1,4.65,3.28,33.51,33.51,0,0,1,3.3,2.73,19,19,0,0,1,2.62,2.55c-.2.23-4-3.38-11.08-7.74a63.92,63.92,0,0,0-6-3.25,70.59,70.59,0,0,0-7.16-3.1,82.27,82.27,0,0,0-17.32-4.2,83.11,83.11,0,0,0-17.82-.09,75.17,75.17,0,0,0-7.71,1.21c-2.41.42-4.6,1.08-6.61,1.62C100.8,792.57,96.18,795,96.06,794.73Z" transform="translate(-35.39 -16)"/><path class="cls-6" d="M1840.27,433.07c7.38,4.7,12,13,13.66,21.55s.47,17.52-1.87,25.95c-4.53,16.31-16.65,31.57-28.93,43.22-12-14.44-11.86-36.25-11.07-47.31,1.25-17.47,14.11-48.3,28.21-43.41" transform="translate(-35.39 -16)"/><path class="cls-6" d="M1835,553.8c-.74-9.75,4.81-19.42,13-24.69s18.73-6.38,28.24-4.11c4.39,1.06,9,3.12,11,7.19,1.83,3.81.8,8.54-1.72,11.93s-6.31,5.62-10.2,7.27c-13.33,5.67-27.28,8.71-40.32,2.41" transform="translate(-35.39 -16)"/><path class="cls-7" d="M1808.94,601.86a19.57,19.57,0,0,1,1-3.33c.82-2.33,1.89-5.34,3.16-8.95,2.78-7.46,6.53-18.19,14.23-28s17.15-16.3,24.74-19.09a40.39,40.39,0,0,1,9.23-2.44,23.43,23.43,0,0,1,2.58-.23c.59,0,.9,0,.91,0,.05.28-5,.38-12.4,3.45s-16.6,9.47-24.1,19-11.39,20.11-14.37,27.5c-1.47,3.72-2.66,6.75-3.53,8.81A19.21,19.21,0,0,1,1808.94,601.86Z" transform="translate(-35.39 -16)"/><path class="cls-7" d="M1832.55,457.41a6.89,6.89,0,0,1-.07,1.51c-.11,1.12-.25,2.55-.43,4.33-.39,3.75-1,9.17-1.88,15.85-1.7,13.38-4.3,31.83-7.63,52.14s-6.77,38.62-9.44,51.84c-1.34,6.61-2.46,11.94-3.28,15.62-.4,1.74-.73,3.14-1,4.23a6.64,6.64,0,0,1-.42,1.46,7,7,0,0,1,.18-1.5c.19-1.11.44-2.53.75-4.28.71-3.86,1.69-9.18,2.9-15.7,2.45-13.25,5.75-31.58,9.08-51.87s6.06-38.71,8-52c.94-6.56,1.71-11.92,2.27-15.8l.66-4.3A6.77,6.77,0,0,1,1832.55,457.41Z" transform="translate(-35.39 -16)"/><path class="cls-6" d="M1809.19,560a65,65,0,0,0-27.56-52.65c-4.31-3-10.18-5.42-14.58-2.56s-4.54,9.25-3.43,14.39c4.62,21.38,23.39,38.94,45,42.14" transform="translate(-35.39 -16)"/><path class="cls-7" d="M1781.38,523.5a17.33,17.33,0,0,1,2.77,1.77,33.51,33.51,0,0,1,3.06,2.32c1.13,1,2.53,2,3.84,3.36a56.2,56.2,0,0,1,4.3,4.46,66.58,66.58,0,0,1,4.45,5.55,73.1,73.1,0,0,1,7.85,14.27A70.81,70.81,0,0,1,1811.8,571a60.85,60.85,0,0,1,.56,7.1,53.85,53.85,0,0,1-.13,6.19,49.67,49.67,0,0,1-.57,5.08,29.79,29.79,0,0,1-.72,3.78,16.28,16.28,0,0,1-.88,3.16c-.27-.06.94-4.59,1.3-12.07a56.61,56.61,0,0,0,0-6.1,66.25,66.25,0,0,0-.65-7,74.31,74.31,0,0,0-4.18-15.46,75.08,75.08,0,0,0-7.64-14.07,63.82,63.82,0,0,0-4.29-5.54,58.56,58.56,0,0,0-4.13-4.5C1785.13,526.31,1781.22,523.72,1781.38,523.5Z" transform="translate(-35.39 -16)"/><path class="cls-6" d="M85.93,890.27c8.44,2.29,15.35,8.78,19.47,16.5s5.68,16.58,6,25.33c.53,16.92-6.48,35.1-14.73,49.88C80.84,971.79,74.5,950.92,72,940.13c-4-17-.95-50.32,14-49.86" transform="translate(-35.39 -16)"/><path class="cls-6" d="M116.92,1007.08c-3.61-9.08-1.2-20,5.09-27.46s16-11.67,25.72-12.34c4.51-.31,9.52.29,12.61,3.59,2.88,3.09,3.31,7.91,1.92,11.9s-4.35,7.25-7.57,10c-11,9.39-23.44,16.45-37.77,14.33" transform="translate(-35.39 -16)"/><path class="cls-7" d="M106.38,1060.73a18.45,18.45,0,0,1,0-3.49c.09-2.47.21-5.66.35-9.49.42-8,.8-19.3,5.24-30.92s11.5-20.67,17.91-25.6a40.59,40.59,0,0,1,8.09-5.08,23.71,23.71,0,0,1,2.39-1c.56-.21.86-.3.87-.26.14.26-4.68,1.87-10.8,7s-13,14-17.31,25.37-4.88,22.59-5.53,30.53c-.28,4-.51,7.24-.74,9.47A19.24,19.24,0,0,1,106.38,1060.73Z" transform="translate(-35.39 -16)"/><path class="cls-7" d="M85.82,915.81a6.77,6.77,0,0,1,.39,1.47c.23,1.1.52,2.5.88,4.25.74,3.7,1.75,9.06,2.93,15.7,2.37,13.27,5.39,31.66,8.27,52s5.06,38.89,6.45,52.3c.7,6.7,1.22,12.13,1.53,15.89.14,1.78.25,3.21.33,4.33a7,7,0,0,1,0,1.52,6.36,6.36,0,0,1-.28-1.49c-.15-1.11-.33-2.54-.56-4.31-.47-3.89-1.12-9.27-1.92-15.84-1.61-13.39-3.93-31.86-6.8-52.23s-5.76-38.75-7.91-52.06c-1.06-6.54-1.92-11.88-2.55-15.76-.27-1.76-.48-3.18-.65-4.29A7.07,7.07,0,0,1,85.82,915.81Z" transform="translate(-35.39 -16)"/><path class="cls-6" d="M94.15,1020.74a65.05,65.05,0,0,0-42-42c-5-1.56-11.34-2.14-14.68,1.91s-1.57,10.19,1,14.76c10.79,19,33.94,30.19,55.54,26.79" transform="translate(-35.39 -16)"/><path class="cls-7" d="M56.7,994.16a16.88,16.88,0,0,1,3.17.86,33.12,33.12,0,0,1,3.62,1.3c1.37.61,3,1.15,4.67,2.06a57,57,0,0,1,5.43,3,63.6,63.6,0,0,1,5.9,4,72.27,72.27,0,0,1,11.74,11.28,70.44,70.44,0,0,1,8.67,13.79,60.19,60.19,0,0,1,2.64,6.61,51.76,51.76,0,0,1,1.73,6,48.39,48.39,0,0,1,1,5,30.63,30.63,0,0,1,.44,3.83,17.23,17.23,0,0,1,.11,3.27c-.28,0-.47-4.66-2.36-11.9a58.07,58.07,0,0,0-1.84-5.82,64,64,0,0,0-2.71-6.46,73.71,73.71,0,0,0-8.6-13.51,75.33,75.33,0,0,0-11.48-11.15,69.51,69.51,0,0,0-5.75-4c-1.82-1.23-3.65-2.16-5.29-3.06C61.11,995.72,56.61,994.41,56.7,994.16Z" transform="translate(-35.39 -16)"/><path class="cls-7" d="M1846,1063.3c0,.38-401,.7-895.43.7-494.65,0-895.51-.32-895.51-.7s400.86-.7,895.51-.7C1445,1062.6,1846,1062.92,1846,1063.3Z" transform="translate(-35.39 -16)"/><path class="cls-8" d="M814.58,1063.3l-355.34-1.64a77.41,77.41,0,0,1-77-77.73L386,93.08A77.41,77.41,0,0,1,463.72,16l355.34,1.64a77.41,77.41,0,0,1,77.05,77.73l-3.77,890.85A77.41,77.41,0,0,1,814.58,1063.3Z" transform="translate(-35.39 -16)"/><path class="cls-9" d="M818.56,48.39l-68.9-.32c-9.23,0-16.76,7.75-16.8,17.41L732.81,78c0,9.66-7.57,17.45-16.81,17.41l-134.29-.62c-9.23,0-16.69-7.91-16.65-17.57l.05-12.49c0-9.66-7.42-17.53-16.65-17.57L524.23,47l-60.3-.28a54.2,54.2,0,0,0-54.46,54l-3.68,869.53a54.21,54.21,0,0,0,54,54.44l354.63,1.64a54.21,54.21,0,0,0,54.46-54l3.68-869.53A54.22,54.22,0,0,0,818.56,48.39Z" transform="translate(-35.39 -16)"/><polygon class="cls-10" points="373.64 189.07 431.76 189.07 483.63 240.95 429.71 294.87 374.25 239.41 373.64 189.07"/><polygon class="cls-10" points="495.46 218.2 466.34 189.07 531.87 189.07 495.46 218.2"/><path class="cls-10" d="M556.34,258l51-51H785.68s27.3,121.9-80.09,200.16Z" transform="translate(-35.39 -16)"/><polygon class="cls-10" points="499.11 258.24 444.5 312.85 595.58 463.92 650.18 407.5 499.11 258.24"/><polygon class="cls-10" points="372.98 343.79 407.19 308.3 373.64 274.75 372.98 343.79"/><polygon class="cls-10" points="427.66 329.23 375.11 381.79 375.11 454.82 483.63 565.85 575.55 480.3 427.66 329.23"/><path class="cls-10" d="M725.88,422.43S838.46,339.88,802.06,207h70l-.85,375.22Z" transform="translate(-35.39 -16)"/><polygon class="cls-10" points="669.38 428.09 614.93 484.94 781.87 651.88 832.93 597.77 669.38 428.09"/><polygon class="cls-10" points="592.19 500.49 506.63 585.46 677.76 755.39 763.16 672.82 592.19 500.49"/><polygon class="cls-10" points="547.34 926.17 678.15 790.56 802.6 917.42 547.34 926.17"/><path class="cls-10" d="M734,789.06l136.23-135c0,6-1.19,279.94-1.19,279.94Z" transform="translate(-35.39 -16)"/><polygon class="cls-10" points="581.92 697.24 659.2 774.52 506.63 932 436.11 847.43 581.92 697.24"/><path class="cls-10" d="M408.5,874.4c7.29-.73,194.19-175.74,194.19-175.74L408.5,497.44Z" transform="translate(-35.39 -16)"/><polyline class="cls-10" points="370.4 898.28 415.4 858.4 477.71 932 370.4 932 370.4 903.84"/><path class="cls-7" d="M464,152.09c-.26.28-6.24-4.92-13.35-11.61h0v-1h0l0,0,.05,0,.08-.08.17-.16.33-.31.65-.61,1.29-1.19,2.45-2.25,4.19-3.74c2.42-2.1,4-3.32,4.11-3.18s-1.19,1.62-3.43,3.9l-4,4L454.2,138l-1.27,1.21-.65.62-.33.31-.17.15-.08.08,0,0,0,0h0c0-.45,0,1,0-1h0C458.74,146.16,464.29,151.81,464,152.09Z" transform="translate(-35.39 -16)"/><path class="cls-7" d="M833.54,131.7a2.9,2.9,0,1,1-2.9-2.9A2.9,2.9,0,0,1,833.54,131.7Z" transform="translate(-35.39 -16)"/><path class="cls-7" d="M832.69,139.63a2.9,2.9,0,1,1-4.1,0A2.9,2.9,0,0,1,832.69,139.63Z" transform="translate(-35.39 -16)"/><path class="cls-7" d="M833.54,151.65a2.9,2.9,0,1,1-2.9-2.9A2.9,2.9,0,0,1,833.54,151.65Z" transform="translate(-35.39 -16)"/><rect class="cls-7" x="547.81" y="127.54" width="125.05" height="10.42"/><path class="cls-6" d="M694.66,330.7c0-48.72-51.19-79.58-103.37-55.16a59.27,59.27,0,0,0-27.46,26.32c-13.13,25.44-7.34,54.48,4.57,78.59L609,483.39c5.85,14.84,26.88,14.75,32.61-.13l39.82-103.48C695.24,348.27,694.66,330.7,694.66,330.7Zm-49,42.4c-35.08,20.39-70.64-17.31-51.41-54.52a29.27,29.27,0,0,1,11.14-11.82c35.09-20.4,70.65,17.31,51.41,54.52A29.26,29.26,0,0,1,645.63,373.1Z" transform="translate(-35.39 -16)"/><rect class="cls-6" x="239.42" y="686.49" width="1483.21" height="217.63"/><g class="cls-11"><rect x="239.42" y="686.49" width="1483.21" height="217.63"/></g><circle class="cls-7" cx="474.11" cy="918.68" r="143.02" transform="translate(-95.99 17.9) rotate(-3.85)"/><path class="cls-7" d="M331.13,916.24c0,.13,0,.25,0,.37a143,143,0,1,0,286,4.13c0-.13,0-.25,0-.37Z" transform="translate(-35.39 -16)"/><path class="cls-9" d="M373.71,917.23a100.41,100.41,0,1,0,101.84-99A100.39,100.39,0,0,0,373.71,917.23Z" transform="translate(-35.39 -16)"/><path class="cls-12" d="M475.55,818.28a100.4,100.4,0,0,0-101.84,99l200.8,2.89A100.41,100.41,0,0,0,475.55,818.28Z" transform="translate(-35.39 -16)"/><path class="cls-7" d="M413,917.79a61.17,61.17,0,1,0,62-60.27A61.16,61.16,0,0,0,413,917.79Z" transform="translate(-35.39 -16)"/><circle class="cls-7" cx="1567.77" cy="918.68" r="143.02" transform="translate(-85.89 76.2) rotate(-3.32)"/><path class="cls-7" d="M1424.79,916.24c0,.13,0,.25,0,.37a143,143,0,0,0,286,4.13c0-.13,0-.25,0-.37Z" transform="translate(-35.39 -16)"/><path class="cls-9" d="M1467.37,917.23a100.41,100.41,0,1,0,101.85-99A100.39,100.39,0,0,0,1467.37,917.23Z" transform="translate(-35.39 -16)"/><path class="cls-12" d="M1569.22,818.28a100.41,100.41,0,0,0-101.85,99l200.8,2.89A100.4,100.4,0,0,0,1569.22,818.28Z" transform="translate(-35.39 -16)"/><path class="cls-7" d="M1506.61,917.79a61.17,61.17,0,1,0,62-60.27A61.16,61.16,0,0,0,1506.61,917.79Z" transform="translate(-35.39 -16)"/><path class="cls-13" d="M661.59,580.06S451,595.59,372.92,613.1c-55,12.34-161.1,33.63-159.82,100.37l8.41,47.84s-39.36,18-39.36,63.83-9.6,117,82.24,119.85c15.14.47,43.89,0,43.89,0S290.65,749.37,470.37,743.64C653.19,737.82,641.05,943.2,641.05,943.2h763s-31.32-200.1,165.49-200.38,166.87,201.69,166.87,201.69,72.4,6.26,106.09-54.59,24.92-104.16,24.92-104.16l-1.12-38.46a24.91,24.91,0,0,0-23.93-24.16h0s13.15-96.84-7-113.6S1704.6,491.66,1704.6,491.66l5.27-3.31a12.4,12.4,0,0,0-2.57-22.23c-42-14.44-125-43-144.54-49.84a35.15,35.15,0,0,0-9.07-1.9c-11.64-.9-44.63-3-105.17-3.63-73.77-.79-366.61,0-366.61,0S981.13,419,925,443.75C866,469.73,661.59,580.06,661.59,580.06Z" transform="translate(-35.39 -16)"/><g class="cls-14"><path d="M235.55,819.84c-7.64-1.55-19.35-1.7-25.17,3.48-4.33,3.85-5.47,10.06-6.13,15.81-.9,7.9-1.35,16,.53,23.71s6.38,15.11,13.36,18.9,16.57,3.17,22-2.63c5-5.3,5.53-13.27,5.4-20.53-.19-10.31.64-19.05-1.26-29.19a14.45,14.45,0,0,0-2.62-5.89c-2-2.44-3.58-3.51-6.11-3.66" transform="translate(-35.39 -16)"/></g><path class="cls-15" d="M221.51,761.31c22.36.05,44.05-1.23,66.36-2.72,2.41-.16,5-.41,6.8-2.06,2.13-2,2.3-5.23,2.33-8.14.1-12-.49-25.6-9.58-33.41-5.56-4.77-13.18-6.25-20.46-6.93-17.95-1.69-36.76-.3-53.86,5.42Z" transform="translate(-35.39 -16)"/><path class="cls-16" d="M685.76,937.07s-.08-.64-.18-1.9-.2-3.18-.37-5.61c-.27-5-.66-12.24-1.17-21.58s-1.15-20.83-2.49-34.08a267.83,267.83,0,0,0-7.89-44.46,201.67,201.67,0,0,0-21.53-50.14c-10.21-16.73-23.64-33.46-41.6-46.41-36.09-25.66-84.81-40.17-135.79-40.79s-99.66,15.54-134.83,42.45a197.73,197.73,0,0,0-43.77,44.67,211.5,211.5,0,0,0-25.63,48.2,196,196,0,0,0-10.81,43.75c-1.92,13.19-1.64,24.71-1.32,34.05a172.91,172.91,0,0,0,2.62,21.4c.44,2.4.77,4.24,1,5.53s.29,1.89.29,1.89-.17-.62-.43-1.86-.65-3.12-1.14-5.51c-1.16-4.81-2.07-12.06-2.89-21.41-.41-9.37-.77-20.94,1.08-34.18a195.84,195.84,0,0,1,10.67-44,212.07,212.07,0,0,1,25.61-48.52,198.28,198.28,0,0,1,43.95-45c35.34-27.14,84.21-43.44,135.6-42.82s100.19,15.23,136.53,41.14c18.13,13.11,31.61,30,41.84,46.85a201.72,201.72,0,0,1,21.49,50.48,266.06,266.06,0,0,1,7.71,44.64c1.27,13.28,1.82,24.76,2.26,34.13s.7,16.61.92,21.59c.1,2.44.17,4.31.23,5.62S685.76,937.07,685.76,937.07Z" transform="translate(-35.39 -16)"/><path class="cls-7" d="M693.86,940.4s-.05-.54-.09-1.6-.1-2.67-.17-4.74c-.13-4.21-.33-10.41-.58-18.48-.46-16.21-1.13-39.94-2-70.1s-1.83-66.83-3-108.82q-.42-15.74-.88-32.48c-.37-5.56.22-11.25.73-17q.61-4.28,1.23-8.61l1.76-8.62a174.38,174.38,0,0,1,11.9-34.25,171.4,171.4,0,0,1,19.58-32.53l.06-.07.09-.06,132.14-83.25,35.69-22.47a280,280,0,0,1,37.77-21.08,385.24,385.24,0,0,1,41-16.39c7-2.46,14.21-4.48,21.4-6.62,7.27-1.83,14.52-3.9,21.93-5.38,28.46-6.32,57.1-9.45,85.17-10.76a802.75,802.75,0,0,1,82.45.28l.78,0-.17.78c-12.65,56.58-24.58,109.93-35.51,158.83l0,.1-.06.1a173.28,173.28,0,0,0-15.93,34.11c-3.8,11.66-6.24,23.64-5.39,35.31s1.23,23.22,1.53,34.36.43,22,.64,32.46c.61,42,.77,78.58.89,108.74s.06,53.85.07,70c0,8.07-.05,14.26-.06,18.47,0,2.07,0,3.64,0,4.73s0,1.6,0,1.6,0-.54,0-1.6,0-2.66-.06-4.73c0-4.21-.06-10.4-.11-18.47-.1-16.2-.24-39.9-.41-70s-.48-66.77-1.18-108.73q-.33-15.72-.69-32.45c-.32-11.14-.66-22.58-1.59-34.3-.88-11.88,1.58-24,5.4-35.76a173.9,173.9,0,0,1,16-34.4l-.08.2,35.37-158.87.62.82a805.48,805.48,0,0,0-82.29-.24c-28,1.31-56.58,4.44-84.94,10.73-7.39,1.48-14.61,3.55-21.86,5.37-7.16,2.14-14.33,4.15-21.33,6.6a386.36,386.36,0,0,0-40.88,16.32,277.75,277.75,0,0,0-37.59,21L855.4,520.94,723.16,604.09l.15-.13a169.65,169.65,0,0,0-19.46,32.25,172.62,172.62,0,0,0-11.87,34c-6,22.91-3,45.51-2.94,66.45,1,42,2,78.61,2.7,108.8s1.27,53.89,1.66,70.1c.17,8.07.3,14.27.39,18.48,0,2.08.06,3.66.08,4.74S693.86,940.4,693.86,940.4Z" transform="translate(-35.39 -16)"/><path class="cls-7" d="M1179.19,441.9s.42,0,1.24-.08l3.68-.12,14.19-.35,52.64-1,177.47-3h.33l.21.26L1453.82,468l71,87.06,8.08,9.91a57.9,57.9,0,0,1,6.64,10.66,55.47,55.47,0,0,1,1,45.13l-8.09,18.83-24.53,56.77c-2.91,6.65-5.18,11.83-6.74,15.41-.77,1.71-1.36,3-1.78,4s-.65,1.34-.65,1.34.15-.48.52-1.4l1.65-4c1.51-3.6,3.69-8.82,6.5-15.51,5.72-13.5,14-32.94,24.13-56.95,4.6-12.08,12.69-24.8,12.14-40.3a54.65,54.65,0,0,0-5.26-22.75,55.66,55.66,0,0,0-6.52-10.4l-8.1-9.89-71.08-87-24.85-30.45.54.26L1251,441.23l-52.65.62-14.19.1h-3.68C1179.61,441.94,1179.19,441.9,1179.19,441.9Z" transform="translate(-35.39 -16)"/><path class="cls-7" d="M1089.6,677.89c0-.08.75-.06,2.12-.31a14.91,14.91,0,0,0,5.63-2.24,14.36,14.36,0,0,0,5.71-7.44,15.9,15.9,0,0,0,.73-5.88,14.45,14.45,0,0,0-1.66-6.36,14.16,14.16,0,0,0-12.31-7.5l-18,.05-41.31.06a14,14,0,0,0-13.88,12.41,15.69,15.69,0,0,0,1.71,9.44,14.2,14.2,0,0,0,6.84,6.08c2.82,1.25,5.85,1.07,8.89,1.08l8.75,0,15.71.09,22.75.22,6.18.13a12.93,12.93,0,0,1,2.16.14,11.67,11.67,0,0,1-2.16.14l-6.18.13-22.75.22-15.71.09-8.75,0c-1.52,0-3,.07-4.62,0a15.19,15.19,0,0,1-12.26-7.69,17,17,0,0,1-1.91-10.25,15.37,15.37,0,0,1,15.23-13.66l41.31.06,18,.07a15.23,15.23,0,0,1,13.17,8.2,15.45,15.45,0,0,1,1.67,6.8,16.79,16.79,0,0,1-.88,6.15,14.83,14.83,0,0,1-6.16,7.65,14.36,14.36,0,0,1-5.87,2.06A8.53,8.53,0,0,1,1089.6,677.89Z" transform="translate(-35.39 -16)"/><path class="cls-7" d="M1485.06,677.89c0-.08.75-.06,2.13-.31a14.82,14.82,0,0,0,5.62-2.24,14.37,14.37,0,0,0,5.72-7.44,15.9,15.9,0,0,0,.73-5.88,14.45,14.45,0,0,0-1.66-6.36,14.16,14.16,0,0,0-12.31-7.5l-18,.05-41.31.06a14,14,0,0,0-13.88,12.41,15.62,15.62,0,0,0,1.71,9.44,14.16,14.16,0,0,0,6.84,6.08c2.81,1.25,5.85,1.07,8.89,1.08l8.75,0,15.71.09,22.74.22,6.19.13a12.87,12.87,0,0,1,2.15.14,11.61,11.61,0,0,1-2.15.14l-6.19.13-22.74.22-15.71.09-8.75,0c-1.52,0-3,.07-4.62,0a15.22,15.22,0,0,1-12.27-7.69,17.08,17.08,0,0,1-1.91-10.25A15.37,15.37,0,0,1,1426,646.87l41.31.06,18,.07a15.11,15.11,0,0,1,14.83,15,16.58,16.58,0,0,1-.87,6.15,14.85,14.85,0,0,1-6.17,7.65,14.31,14.31,0,0,1-5.87,2.06A8.53,8.53,0,0,1,1485.06,677.89Z" transform="translate(-35.39 -16)"/><g class="cls-17"><path class="cls-15" d="M1831.87,613.36h-79.13A29.2,29.2,0,0,0,1726.89,629h0a29.2,29.2,0,0,0-.88,25.36l31,70.48,79.24-.78S1853.13,634.68,1831.87,613.36Z" transform="translate(-35.39 -16)"/></g><path class="cls-7" d="M732.87,603.39l408.31-7.53L1406.91,591l87.63-50.59a13.61,13.61,0,0,0,4-20L1444,448.72a30.37,30.37,0,0,0-23.91-12l-297.21-2.41S1011,427.82,922.81,477.2C830,529.16,732.87,603.39,732.87,603.39Z" transform="translate(-35.39 -16)"/><path class="cls-8" d="M920,441.73s20.46,9.34,7.14,18S707,598.78,707,598.78l-47.55-21.52C743.64,530.32,828.73,484.75,920,441.73Z" transform="translate(-35.39 -16)"/><path class="cls-7" d="M713.65,602s-.43.13-1.28.32l-3.76.82-14.51,3c-12.62,2.51-30.91,6-53.59,9.93-45.34,7.81-108.32,16.91-178.29,23-17.49,1.52-34.6,2.77-51.12,3.85s-32.45,2.09-47.58,3.48c-30.27,2.63-57.39,7-79.42,13.6A224.27,224.27,0,0,0,234,680.89c-5.69,3-9.74,5.93-12.62,7.71l-3.26,2.06c-.73.46-1.13.67-1.13.67s.34-.29,1-.79l3.18-2.18c2.83-1.85,6.85-4.86,12.51-7.94a219.08,219.08,0,0,1,50.06-21.37c22.08-6.7,49.27-11.22,79.58-13.93,15.16-1.43,31.1-2.46,47.61-3.56s33.6-2.36,51.09-3.88c69.92-6,132.88-15,178.25-22.54,22.69-3.77,41-7.14,53.64-9.49l14.56-2.74,3.79-.69C713.2,602.08,713.65,602,713.65,602Z" transform="translate(-35.39 -16)"/><path class="cls-7" d="M1863.48,784.87c0,.39-27.21.7-60.77.7s-60.79-.31-60.79-.7,27.21-.69,60.79-.69S1863.48,784.49,1863.48,784.87Z" transform="translate(-35.39 -16)"/><path class="cls-7" d="M1365.64,854.32c0,.39-153.62.7-343.08.7s-343.1-.31-343.1-.7,153.58-.69,343.1-.69S1365.64,853.94,1365.64,854.32Z" transform="translate(-35.39 -16)"/><path class="cls-7" d="M290,787.17c0,.39-21.72.7-48.51.7s-48.52-.31-48.52-.7,21.72-.69,48.52-.69S290,786.79,290,787.17Z" transform="translate(-35.39 -16)"/><path class="cls-8" d="M1702.42,488.86s-18.23,20.41-11.06,35.39,81.22,67.41,81.22,67.41l53.77,10.09Z" transform="translate(-35.39 -16)"/><polygon class="cls-8" points="1155.89 436.33 1143.8 566.88 1360.12 560.72 1447.32 510.04 1390.87 436.33 1155.89 436.33"/><path class="cls-8" d="M784.1,589.57s130.5-94.26,182-113c49.69-18.08,75.6-22.61,122.28-23.94,44.62-1.27,71.8,0,71.8,0l-34.49,132.73Z" transform="translate(-35.39 -16)"/><path class="cls-18" d="M765,590h0a22.88,22.88,0,0,1,11.67-19.94l30-16.84a57.18,57.18,0,0,1,28-7.32h0a57.07,57.07,0,0,1,17.8,2.84c12.81,4.2,21.34,16.37,21.86,29.84h0a33,33,0,0,1-33,34.29H787.87A22.87,22.87,0,0,1,765,590Z" transform="translate(-35.39 -16)"/><path class="cls-18" d="M765,590c.08,0,.09,1,.35,2.9a22.79,22.79,0,0,0,11.82,16.88,22.79,22.79,0,0,0,7.71,2.43,92.14,92.14,0,0,0,9.22.17l45.73-.15a34.76,34.76,0,0,0,12.73-2.09,32.48,32.48,0,0,0,18.94-18.77,33.09,33.09,0,0,0,2-14.14A32.44,32.44,0,0,0,860,553.29a34.36,34.36,0,0,0-12.39-5.22,56.64,56.64,0,0,0-36.41,3.5c-3.45,1.53-6.6,3.49-9.73,5.18l-8.93,5-15.37,8.52a22.84,22.84,0,0,0-9.18,9,23.39,23.39,0,0,0-2.66,7.82c-.27,1.89-.25,2.9-.33,2.9a14.78,14.78,0,0,1,0-2.93,22.39,22.39,0,0,1,2.46-8,23.15,23.15,0,0,1,9.28-9.48l15.27-8.7,8.88-5c3.11-1.71,6.25-3.69,9.78-5.29a57.62,57.62,0,0,1,37.2-3.74,35.76,35.76,0,0,1,12.86,5.39,33.71,33.71,0,0,1,14.1,25,34.14,34.14,0,0,1-2.09,14.74,33.32,33.32,0,0,1-8,12.07A33.79,33.79,0,0,1,853,611.39a35.94,35.94,0,0,1-13.2,2.12l-45.73-.15a86,86,0,0,1-9.33-.28,23.17,23.17,0,0,1-8-2.62,23.75,23.75,0,0,1-9.3-9.47,22.21,22.21,0,0,1-2.43-8.06A17.52,17.52,0,0,1,765,590Z" transform="translate(-35.39 -16)"/><path class="cls-16" d="M1770.49,938.29s0-.63.08-1.85.21-3.08.36-5.43.43-5.33.59-8.82.26-7.53.41-12.06,0-9.59-.07-15.11c-.36-5.51-.38-11.52-1.13-17.92a232.21,232.21,0,0,0-7.74-43,192.63,192.63,0,0,0-8.51-23.94,159,159,0,0,0-12.91-24.29c-10.18-16.1-24.6-30.92-41.79-43.62a197.61,197.61,0,0,0-60-29.56c-22.3-6.83-46.56-9.32-71.26-9.49s-48.91,3.3-71.13,10.35a200.26,200.26,0,0,0-31.65,13.06,182.4,182.4,0,0,0-27.48,18A229.16,229.16,0,0,0,1396,788a169.53,169.53,0,0,0-14.07,23.63,234.87,234.87,0,0,0-9.73,23.49,279.69,279.69,0,0,0-15.43,75c-.43,9.07-.38,16.12-.15,20.89.13,2.35.23,4.16.31,5.43s.06,1.85.06,1.85-.09-.62-.2-1.84-.26-3.07-.46-5.43c-.31-4.77-.45-11.84-.1-20.93a275.65,275.65,0,0,1,15-75.31,238.27,238.27,0,0,1,9.69-23.63A170.69,170.69,0,0,1,1395,787.3a229.61,229.61,0,0,1,42.48-43.74,183.7,183.7,0,0,1,27.65-18.13A201.72,201.72,0,0,1,1497,712.24c22.36-7.11,46.7-10.5,71.54-10.43s49.19,2.67,71.65,9.58a198.46,198.46,0,0,1,60.32,29.82A182.94,182.94,0,0,1,1724.18,762a145.09,145.09,0,0,1,18.36,23.29,159.64,159.64,0,0,1,12.92,24.5,191.58,191.58,0,0,1,8.48,24.09,230.18,230.18,0,0,1,7.56,43.2c.72,6.43.71,12.45,1,18,0,5.53,0,10.58,0,15.13s-.39,8.57-.54,12.07-.54,6.44-.73,8.82-.38,4.15-.5,5.42S1770.49,938.29,1770.49,938.29Z" transform="translate(-35.39 -16)"/><path class="cls-19" d="M542.46,701.24" transform="translate(-35.39 -16)"/><path class="cls-16" d="M1120,603.39a2,2,0,0,1-.61.07l-1.82.08-7,.15-25.64.46c-21.65.41-51.56,1.2-84.59,2.1s-63,1.54-84.62,1.69c-10.83.09-19.59.1-25.65,0l-7-.1-1.82-.07a1.78,1.78,0,0,1-.62-.07,2.16,2.16,0,0,1,.62-.07l1.81-.08,7-.15,25.64-.46c21.65-.41,51.55-1.2,84.6-2.1s62.94-1.54,84.61-1.69c10.83-.09,19.59-.1,25.65,0l7,.11,1.82.06C1119.78,603.34,1120,603.36,1120,603.39Z" transform="translate(-35.39 -16)"/><path class="cls-16" d="M1084.54,643.59c0,.38-10.49.69-23.42.69s-23.42-.31-23.42-.69,10.48-.7,23.42-.7S1084.54,643.2,1084.54,643.59Z" transform="translate(-35.39 -16)"/><path class="cls-16" d="M1093.13,500.53c.15.35-28.93,12.46-64.93,27s-65.32,26.1-65.46,25.75,28.92-12.46,64.94-27S1093,500.17,1093.13,500.53Z" transform="translate(-35.39 -16)"/><path class="cls-16" d="M1034.22,509.66c.15.35-27.53,12.54-61.83,27.23s-62.23,26.31-62.38,26,27.53-12.55,61.83-27.24S1034.07,509.3,1034.22,509.66Z" transform="translate(-35.39 -16)"/><path class="cls-16" d="M1407.85,495.47c.14.36-28.94,12.46-64.94,27s-65.32,26.11-65.46,25.75,28.93-12.46,64.94-27S1407.7,495.11,1407.85,495.47Z" transform="translate(-35.39 -16)"/><path class="cls-16" d="M1348.93,504.6c.15.35-27.53,12.55-61.82,27.24s-62.23,26.31-62.39,25.95,27.53-12.54,61.84-27.23S1348.78,504.25,1348.93,504.6Z" transform="translate(-35.39 -16)"/><path class="cls-16" d="M1413.53,603.37c0,.38-57.82,1-129.14,1.46s-129.15.46-129.16.08,57.81-1,129.15-1.47S1413.53,603,1413.53,603.37Z" transform="translate(-35.39 -16)"/><path class="cls-16" d="M1477.56,641.35c0,.39-16.21.85-36.21,1s-36.23,0-36.24-.36,16.21-.85,36.22-1S1477.56,641,1477.56,641.35Z" transform="translate(-35.39 -16)"/><path class="cls-16" d="M370.4,621.59a6.72,6.72,0,0,1-1.57.3l-4.53.59c-2,.23-4.38.53-7.16,1s-6,.84-9.44,1.54c-7,1.21-15.22,3-24.27,5.45s-18.84,5.64-28.91,9.56-19.38,8.35-27.7,12.65-15.57,8.64-21.51,12.5c-3,1.85-5.63,3.72-8,5.28s-4.32,3-5.92,4.15l-3.72,2.64a7.35,7.35,0,0,1-1.36.85,7.11,7.11,0,0,1,1.18-1.07l3.58-2.86c1.55-1.24,3.48-2.73,5.79-4.34s4.88-3.57,7.88-5.47c5.9-4,13.17-8.35,21.45-12.82a262.61,262.61,0,0,1,56.88-22.3c9.11-2.36,17.41-4.1,24.44-5.19,3.49-.64,6.7-1,9.5-1.35s5.22-.6,7.2-.75l4.56-.33A6.7,6.7,0,0,1,370.4,621.59Z" transform="translate(-35.39 -16)"/><path class="cls-16" d="M847.79,558.52c-.11.07-.79-1-2.58-2.49a17.66,17.66,0,0,0-8.83-3.57c-4.06-.54-9,.15-14.25,1.54a108.47,108.47,0,0,0-16.83,5.73,110.31,110.31,0,0,0-27.39,17c-6.35,5.34-9.71,9.28-9.91,9.09a18.06,18.06,0,0,1,2.26-2.84,87.79,87.79,0,0,1,7-7,102.68,102.68,0,0,1,44.55-23.25c5.36-1.34,10.47-2,14.7-1.27a17.29,17.29,0,0,1,9.05,4.13,11.88,11.88,0,0,1,1.78,2A2.65,2.65,0,0,1,847.79,558.52Z" transform="translate(-35.39 -16)"/><path class="cls-7" d="M1708.48,487.92a43,43,0,0,1-11.38,1.16,70.86,70.86,0,0,1-13.35-1.65,121,121,0,0,1-17-5.25c-6.18-2.34-12.76-5.29-19.87-8.32l-11.1-4.48c-3.82-1.52-7.85-2.84-11.93-4.32a462.81,462.81,0,0,0-54.48-14.85,625.29,625.29,0,0,0-101.83-12.68c-6.56-.36-12.51-.36-17.73-.51h-13.4l-8.46.19-2.21,0a2.68,2.68,0,0,1-.75-.05,3.94,3.94,0,0,1,.74-.1l2.2-.15,8.47-.45,13.41-.24c5.23.08,11.19,0,17.77.31a593,593,0,0,1,102.08,12.3,448.43,448.43,0,0,1,54.61,15c4.09,1.5,8.13,2.84,12,4.39l11.12,4.56c7.1,3.09,13.64,6.08,19.76,8.46a124.7,124.7,0,0,0,16.83,5.41,73.36,73.36,0,0,0,13.19,1.87,60.12,60.12,0,0,0,8.43-.32l2.18-.26A2.74,2.74,0,0,1,1708.48,487.92Z" transform="translate(-35.39 -16)"/><path class="cls-6" d="M422.26,491.59c-10.68-58.49-17.87-67.48-23.91-87.6-6-19.89-15.64-33.21-27.61-37.81-8.06-3.1-48.29-17.62-62.3-12.81a175,175,0,0,0-38.84,19.51,52.07,52.07,0,0,0-20.28,25.92l-21.53,60.33,37.66,37.56,18.87-40.11,20.48,48-3,48.53,117.46,31.6C429.93,567.6,428.32,524.78,422.26,491.59Z" transform="translate(-35.39 -16)"/><g class="cls-20"><path d="M391.67,427.79c-5.18,30.45-6,34.65-11.2,65.1-1.78,10.45-7,26.76-14.43,34.31-5.51,5.59-10.92,11-18.56,12.79-7.13,1.69-17.94,1.88-24.64-1.08s-12.4-15.95-9.65-22.74c10,2.13,13,5.46,21.63,0,7.49-4.76,18.12-15.29,22.2-23.18,17.14-33.16,21.85-34.34,34.65-65.2" transform="translate(-35.39 -16)"/></g><path class="cls-7" d="M306.68,486.78c-.18.1-2.11-3-5.19-8.09L289.39,459c-4.74-7.48-9-14.23-12.4-19.56-3.2-5-5.15-8.1-5-8.21a9.4,9.4,0,0,1,1.67,2c1,1.32,2.42,3.27,4.13,5.7,3.4,4.85,8,11.67,12.76,19.36s8.91,14.78,11.77,20c1.44,2.6,2.56,4.72,3.31,6.21A9.52,9.52,0,0,1,306.68,486.78Z" transform="translate(-35.39 -16)"/><path class="cls-7" d="M388.63,541.4a11.76,11.76,0,0,1-2.76,1,32.28,32.28,0,0,1-3.33.93c-1.31.29-2.8.7-4.49.93a73.56,73.56,0,0,1-11.88,1.08,83.56,83.56,0,0,1-14.57-1.25,82.71,82.71,0,0,1-14.08-4,73.53,73.53,0,0,1-10.74-5.2c-1.5-.81-2.74-1.72-3.87-2.46a31.59,31.59,0,0,1-2.79-2,12,12,0,0,1-2.21-2c.16-.21,3.46,2.38,9.35,5.59A84.15,84.15,0,0,0,338,539a82.82,82.82,0,0,0,28.2,5.14,83.31,83.31,0,0,0,11.73-.77C384.55,542.4,388.55,541.14,388.63,541.4Z" transform="translate(-35.39 -16)"/><path class="cls-21" d="M341.5,450.27c-.2,1-12.84,26.17-12.84,26.17l-59.55-31.38L263,419.39a16,16,0,0,0-19.28-11.83l-17.57,7.19a4.71,4.71,0,0,0-2.89,3.4c-.24,1.3.08,2.56,2.32,2.38,4.37-.33,13.45-1.3,13.45-1.3l-4.14,14.62a15.6,15.6,0,0,0,1.17,11.47l2.64,5.06,5.81,9.38-.12.09s57.89,59.47,90.4,63.34c19.53,2.32,41.67-52.45,41.67-52.45Z" transform="translate(-35.39 -16)"/><path class="cls-22" d="M238.56,420.22c-.06-.1.45-.62,1.45-1.28a7.68,7.68,0,0,1,4.5-1.39,4.76,4.76,0,0,1,4,2.56c.54,1.19.17,2,.1,2s-.06-.77-.64-1.68a4.62,4.62,0,0,0-3.5-2,9,9,0,0,0-4.16,1.06C239.27,420,238.63,420.32,238.56,420.22Z" transform="translate(-35.39 -16)"/><path class="cls-22" d="M246.06,429.33c-.13.05-.39-.48-1-1.19a6.88,6.88,0,0,0-2.76-2.06,6.78,6.78,0,0,0-3.42-.38c-.9.12-1.45.33-1.51.22s.42-.52,1.38-.82a5.94,5.94,0,0,1,6.82,2.7C246.1,428.67,246.16,429.3,246.06,429.33Z" transform="translate(-35.39 -16)"/><path class="cls-6" d="M353.86,371l-16.13,76.43,42.74,25.69,16.43-47S390.1,369.06,353.86,371Z" transform="translate(-35.39 -16)"/><path class="cls-10" d="M376.9,372.29a4.53,4.53,0,0,1-1.09.69c-.73.4-1.82,1-3.25,1.71-2.84,1.45-7,3.48-12.2,5.8-10.41,4.6-25.23,10.47-42.5,13.39s-33.4,1.57-44.43-1.5a76.32,76.32,0,0,1-12.75-4.57c-1.46-.64-2.53-1.29-3.28-1.67a5.09,5.09,0,0,1-1.09-.68,41.63,41.63,0,0,1,4.59,1.85,88.78,88.78,0,0,0,12.77,4.11c11,2.79,26.87,4,44,1.09s31.86-8.57,42.34-12.93c5.25-2.19,9.45-4.08,12.36-5.38A35.76,35.76,0,0,1,376.9,372.29Z" transform="translate(-35.39 -16)"/><path class="cls-10" d="M388.15,380.73a6.3,6.3,0,0,1-1.19.87c-.94.61-2.11,1.36-3.55,2.27a64.31,64.31,0,0,1-5.76,3.36c-2.3,1.21-4.87,2.7-7.88,4l-4.67,2.15c-1.63.74-3.39,1.35-5.18,2.07-3.56,1.49-7.5,2.69-11.62,4a160.65,160.65,0,0,1-55.76,6.59c-4.32-.34-8.43-.59-12.24-1.21-1.91-.28-3.76-.47-5.52-.8l-5-1c-3.23-.56-6.08-1.42-8.6-2.06s-4.66-1.3-6.39-1.91l-4-1.38a6,6,0,0,1-1.35-.57,5.73,5.73,0,0,1,1.44.3l4,1.13c1.75.53,3.89,1.14,6.43,1.68s5.36,1.35,8.59,1.85l5,.9c1.75.3,3.59.46,5.49.72,3.78.57,7.87.77,12.16,1.07a167.16,167.16,0,0,0,55.32-6.54c4.1-1.3,8-2.45,11.58-3.89,1.79-.69,3.54-1.27,5.17-2l4.68-2.05c3-1.23,5.6-2.66,7.92-3.8s4.28-2.21,5.86-3.13l3.67-2.05A6,6,0,0,1,388.15,380.73Z" transform="translate(-35.39 -16)"/><path class="cls-7" d="M380.47,473.07A25.16,25.16,0,0,1,377,471.3L367.59,466,335.44,447.5l-.41-.24.09-.46c1.15-5.71,2.38-11.84,3.65-18.16,1.94-9.51,3.79-18.56,5.48-26.82.89-4.11,1.6-8,2.41-11.72a42.12,42.12,0,0,1,3.43-9.93A20,20,0,0,1,361.15,370a12.83,12.83,0,0,1,4.08-.67,4.31,4.31,0,0,1,1.44.16,18.55,18.55,0,0,0-5.34,1A19.79,19.79,0,0,0,351,380.61a42.5,42.5,0,0,0-3.18,9.74c-.72,3.68-1.48,7.59-2.28,11.7-1.65,8.27-3.47,17.33-5.37,26.84-1.29,6.32-2.54,12.44-3.7,18.15l-.32-.7,31.9,19c3.8,2.32,6.9,4.2,9.21,5.62A24.11,24.11,0,0,1,380.47,473.07Z" transform="translate(-35.39 -16)"/><path class="cls-7" d="M393.56,423.84c.18,0,.21,2.74-.21,7.12a108.9,108.9,0,0,1-3.07,16.94,110.53,110.53,0,0,1-5.66,16.25c-1.8,4-3.17,6.38-3.33,6.3s.87-2.59,2.42-6.68a156.27,156.27,0,0,0,8.66-32.93C393,426.52,393.35,423.82,393.56,423.84Z" transform="translate(-35.39 -16)"/><path class="cls-8" d="M161.63,849l-.47,40.81S119.52,903,118.7,910.53l79.1,3.76,3.34-63.56Z" transform="translate(-35.39 -16)"/><path class="cls-12" d="M185.78,887.5a3.25,3.25,0,0,1,2.06,3.8,3.11,3.11,0,0,1-3.74,2.07c-1.52-.46-2.76-2.56-2.16-4s2.77-2.54,4.13-1.72" transform="translate(-35.39 -16)"/><path class="cls-12" d="M197.8,914.29l.08-6.42L122,906.67s-3.59,1.36-3.31,3.86Z" transform="translate(-35.39 -16)"/><path class="cls-7" d="M159.9,889.31c0,.38,1.92.65,3.76,2s2.77,3,3.14,2.87-.11-2.39-2.37-4S159.83,889,159.9,889.31Z" transform="translate(-35.39 -16)"/><path class="cls-7" d="M151.44,892.34c-.11.37,1.54,1.11,2.77,2.81s1.53,3.44,1.92,3.44.73-2.17-.84-4.25S151.47,892,151.44,892.34Z" transform="translate(-35.39 -16)"/><path class="cls-7" d="M146.26,902.05c.34.1,1-1.81.08-4s-2.66-3.09-2.84-2.77.89,1.49,1.59,3.28S145.87,902,146.26,902.05Z" transform="translate(-35.39 -16)"/><path class="cls-7" d="M161,880c.14.36,1.94-.09,4.12.16s3.84,1,4.06.7-1.35-1.78-3.92-2S160.86,879.7,161,880Z" transform="translate(-35.39 -16)"/><g class="cls-23"><polygon points="126.16 841.04 126.07 848.31 164.96 849.81 165.32 843.27 126.16 841.04"/></g><path class="cls-7" d="M161.29,871.79c0,.16,1.5.47,4,.16a17.87,17.87,0,0,0,4.2-1.07,18.87,18.87,0,0,0,2.34-1.1,5,5,0,0,0,1.24-.88,1.68,1.68,0,0,0,.27-2,2.13,2.13,0,0,0-1.65-1,5.32,5.32,0,0,0-1.5.14,13.48,13.48,0,0,0-2.5.73,13.73,13.73,0,0,0-3.76,2.22c-1.92,1.61-2.62,3-2.49,3.11s1.12-1,3.06-2.35a15.65,15.65,0,0,1,3.62-1.82,13.7,13.7,0,0,1,2.31-.59c.85-.19,1.56-.16,1.76.23.07.14.08.2-.11.44a4,4,0,0,1-.91.63,19,19,0,0,1-2.15,1.1,22.39,22.39,0,0,1-3.9,1.29C162.79,871.54,161.29,871.58,161.29,871.79Z" transform="translate(-35.39 -16)"/><path class="cls-7" d="M161.76,872.36c.14.07,1-1.28,1.23-3.77a12.86,12.86,0,0,0-.34-4.37,12.53,12.53,0,0,0-.89-2.45,3.28,3.28,0,0,0-2.43-2.12,1.85,1.85,0,0,0-1.71,1,5.07,5.07,0,0,0-.47,1.43,8.67,8.67,0,0,0-.13,2.67,9.19,9.19,0,0,0,1.49,4.17c1.45,2.12,3,2.66,3.08,2.53s-1.17-1-2.26-3a9.09,9.09,0,0,1-1.08-3.78,8.53,8.53,0,0,1,.18-2.29c.17-.83.51-1.5.83-1.4s1,.68,1.32,1.37a13.73,13.73,0,0,1,.88,2.19,14.13,14.13,0,0,1,.58,4C162,870.87,161.56,872.29,161.76,872.36Z" transform="translate(-35.39 -16)"/><path class="cls-7" d="M322.84,553.54s-123.53-51.82-161.79-54c-24-1.39-42.13,14-38.87,38.84C123.82,550.76,158,696.11,158,696.11L210,672.32,185,571.84l101.47,49.33Z" transform="translate(-35.39 -16)"/><path class="cls-8" d="M169.42,546.4c-.4.34,3.7,5.62,8,12.6s7.21,13,7.7,12.79-1.74-6.63-6.15-13.74S169.77,546.08,169.42,546.4Z" transform="translate(-35.39 -16)"/><path class="cls-8" d="M159.3,552.17c-.26.46,6,4.42,13.29,9.81s13,10.14,13.33,9.76-4.82-5.78-12.25-11.23S159.53,551.75,159.3,552.17Z" transform="translate(-35.39 -16)"/><path class="cls-7" d="M419.23,584.71s-15.55,20-30.36,25.49C370.25,617.09,232.59,682,232.59,682s-25,185.49-23,177.75L152,858.39l6.26-170.85c.76-21.89,18.29-47,37.12-58.17l127.47-75.83Z" transform="translate(-35.39 -16)"/><path class="cls-8" d="M157.16,718.8a11.49,11.49,0,0,0,.23-2.34c.09-1.72.21-4,.36-6.72A224.94,224.94,0,0,1,160,685.18c1.7-10.18,4.81-22.49,12.45-33.87A64.3,64.3,0,0,1,187.28,636a175.09,175.09,0,0,1,19.55-12.36c27.72-15.89,51.65-32.08,69.34-43.19,8.81-5.6,16-10.08,21-13.13l5.73-3.53a12,12,0,0,0,1.94-1.33,12.31,12.31,0,0,0-2.12,1c-1.36.73-3.37,1.79-5.91,3.24-5.1,2.87-12.38,7.18-21.28,12.66-17.88,10.83-41.93,26.85-69.56,42.69A173.4,173.4,0,0,0,186.2,634.6a65.16,65.16,0,0,0-15.12,15.78c-7.76,11.75-10.77,24.29-12.32,34.6A191.63,191.63,0,0,0,157,709.72q0,4.15,0,6.73A11.27,11.27,0,0,0,157.16,718.8Z" transform="translate(-35.39 -16)"/><path class="cls-8" d="M368.38,604.26c.2-.23-1.47-1.79-3.53-4.75a34.49,34.49,0,0,1-5.39-26.69c.75-3.52,1.68-5.61,1.4-5.74s-1.53,1.82-2.65,5.42a30.78,30.78,0,0,0,5.62,27.79C366.26,603.18,368.26,604.41,368.38,604.26Z" transform="translate(-35.39 -16)"/><path class="cls-8" d="M173.15,858.39a3.92,3.92,0,0,0,.18-.95c.09-.73.2-1.65.35-2.8.27-2.6.66-6.22,1.15-10.8.94-9.53,2.27-23.07,3.91-39.75.8-8.41,1.67-17.6,2.61-27.46s1.94-20.43,2.71-31.54S186,722.34,188,710.43s5.19-24.09,10.58-35.67S211.39,653,219.5,644.09a187.71,187.71,0,0,1,26.09-23c17.91-13.19,35.59-22.81,50.14-31.31s26.27-15.56,34-21c3.9-2.66,6.85-4.84,8.81-6.36l2.22-1.75c.5-.4.74-.62.72-.65a4.46,4.46,0,0,0-.83.5l-2.32,1.6c-2,1.42-5.05,3.51-9,6.08-7.85,5.2-19.57,12.17-34.27,20.43s-32.4,17.87-50.49,31.07a186.92,186.92,0,0,0-26.4,23.12c-8.24,9-15.87,19.28-21.27,31.12s-8.6,24.14-10.68,36.13-3,23.71-3.86,34.83-1.65,21.67-2.54,31.55-1.66,19.06-2.39,27.47c-1.4,16.7-2.54,30.25-3.33,39.79-.35,4.6-.62,8.22-.82,10.83-.07,1.16-.12,2.08-.16,2.82A4,4,0,0,0,173.15,858.39Z" transform="translate(-35.39 -16)"/><path class="cls-7" d="M308.82,259.3c-3.56-10.08-15.38-16.43-25.75-13.85-2.39.59-4.72,1.6-7.18,1.54-3-.06-5.75-1.71-8.71-2.3a13.08,13.08,0,0,0-14.75,9.57c-5.05-1-10.68-.33-14.69,2.91s-5.87,9.31-3.43,13.85c1,2,2.75,3.5,3.7,5.5,1.58,3.29.86,7.24,2,10.72,1.64,5.16,7.09,8.34,12.46,8.95s10.75-.85,16-2.3" transform="translate(-35.39 -16)"/><path class="cls-21" d="M284,365c-.67-5.17-1.12-8.8-1.12-8.8s-17.22-.12-24.18-21.46c-3.46-10.61-5.75-28.55-7.15-43.29a23.4,23.4,0,0,1,22.07-25.6l45.77-2.4,1,7.09,12.07,88a24.44,24.44,0,0,1-21,27.55h0A24.45,24.45,0,0,1,284,365Z" transform="translate(-35.39 -16)"/><path class="cls-7" d="M258,304.11a2.86,2.86,0,0,0,3.16,2.41,2.71,2.71,0,0,0,2.49-3,2.83,2.83,0,0,0-3.15-2.41A2.72,2.72,0,0,0,258,304.11Z" transform="translate(-35.39 -16)"/><path class="cls-7" d="M256.91,300.15c.41.31,2.28-1.6,5.31-2.07s5.47.69,5.74.26c.14-.19-.32-.79-1.4-1.34a7.77,7.77,0,0,0-4.67-.66,7.49,7.49,0,0,0-4.15,2.1C256.92,299.3,256.71,300,256.91,300.15Z" transform="translate(-35.39 -16)"/><path class="cls-7" d="M286.76,299.24a2.84,2.84,0,0,0,3.16,2.4,2.72,2.72,0,0,0,2.49-3,2.84,2.84,0,0,0-3.16-2.4A2.72,2.72,0,0,0,286.76,299.24Z" transform="translate(-35.39 -16)"/><path class="cls-7" d="M286.7,296c.4.31,2.28-1.61,5.3-2.08s5.48.69,5.75.27c.13-.19-.32-.8-1.4-1.35a7.77,7.77,0,0,0-4.67-.66,7.43,7.43,0,0,0-4.15,2.11C286.71,295.15,286.5,295.86,286.7,296Z" transform="translate(-35.39 -16)"/><path class="cls-7" d="M279.29,320.15c0-.18-1.94-.2-5-.11-.79,0-1.54,0-1.76-.5a3.93,3.93,0,0,1,.16-2.37q.63-3,1.34-6.24c1.84-8.86,3-16.11,2.68-16.18s-2.13,7.06-4,15.93c-.44,2.18-.85,4.27-1.25,6.26a4.52,4.52,0,0,0,.08,3.09A2,2,0,0,0,273,321a5.3,5.3,0,0,0,1.34,0C277.41,320.61,279.31,320.32,279.29,320.15Z" transform="translate(-35.39 -16)"/><path class="cls-22" d="M282.89,356.23A56.4,56.4,0,0,0,311,343.75s-4.73,16.17-27,17.6Z" transform="translate(-35.39 -16)"/><path class="cls-7" d="M288.52,320.82c-.5.05,0,3.33-2.42,6.11s-6,3-5.94,3.43c0,.21.88.51,2.36.32a8.3,8.3,0,0,0,5-2.68,7.2,7.2,0,0,0,1.82-5.09C289.23,321.52,288.74,320.77,288.52,320.82Z" transform="translate(-35.39 -16)"/><path class="cls-7" d="M284,284.28c.42.77,3.38-.1,7-.23s6.63.37,7-.44c.15-.38-.47-1.08-1.75-1.69a12.2,12.2,0,0,0-10.65.51C284.4,283.16,283.84,283.91,284,284.28Z" transform="translate(-35.39 -16)"/><path class="cls-7" d="M256.63,291.23c.64.6,2.61-.44,5.11-.87s4.69-.27,5.07-1.07c.15-.38-.29-1-1.32-1.52a7.51,7.51,0,0,0-8.2,1.57C256.52,290.18,256.34,290.93,256.63,291.23Z" transform="translate(-35.39 -16)"/><path class="cls-7" d="M249.29,281.89s12.11,4.07,26-5.22c9.13-6.1,20.19-9.91,22.94-8.27s4.56,11.61,14.58,13.32c0,0,1.76,19.24,9.32,17.59,5.38-1.17,2.23-22.4,0-34.51a10.57,10.57,0,0,0-10-8.6l-14.1-.54-17.6,4.91-18.87,5.14-14.35,6Z" transform="translate(-35.39 -16)"/><path class="cls-21" d="M320.45,291.53c.29-.2,12-6.34,14.13,6.41s-11.08,12.28-11.16,11.92S320.45,291.53,320.45,291.53Z" transform="translate(-35.39 -16)"/><path class="cls-22" d="M326.49,304.37c.05-.05.25.12.65.23a2.3,2.3,0,0,0,1.67-.25c1.26-.72,2-3.05,1.71-5.36a7.54,7.54,0,0,0-1.16-3.07,2.62,2.62,0,0,0-2-1.43,1.15,1.15,0,0,0-1.21.84c-.11.38,0,.62-.05.65s-.31-.16-.3-.71a1.44,1.44,0,0,1,.37-.88,1.69,1.69,0,0,1,1.17-.53,3.16,3.16,0,0,1,2.66,1.58,7.64,7.64,0,0,1,1.37,3.42c.35,2.58-.55,5.21-2.31,6.06a2.42,2.42,0,0,1-2.09,0C326.57,304.68,326.45,304.4,326.49,304.37Z" transform="translate(-35.39 -16)"/><path class="cls-8" d="M255.42,249.57c.11-.06.44.67,1.34,1.71a11.1,11.1,0,0,0,4.82,3.09,16,16,0,0,0,8.49.37,75.88,75.88,0,0,0,10.29-3.27,28.21,28.21,0,0,1,10.92-1.94,12,12,0,0,1,8.3,3.73,8.9,8.9,0,0,1,2.55,5.58,3.69,3.69,0,0,1-.39,2.22c-.12,0,.05-.81-.15-2.16a8.84,8.84,0,0,0-2.72-4.95,11.21,11.21,0,0,0-7.66-3.14,28.32,28.32,0,0,0-10.39,2A67.82,67.82,0,0,1,270.3,256a16.35,16.35,0,0,1-9.06-.72,10.46,10.46,0,0,1-4.9-3.68C255.51,250.4,255.35,249.59,255.42,249.57Z" transform="translate(-35.39 -16)"/><path class="cls-8" d="M298.49,261.77c-.1.09-.65-.67-2-1.59a11.82,11.82,0,0,0-6.41-1.9,20.63,20.63,0,0,0-9.74,2.38c-3.51,1.6-7.17,4-11.6,5.42a28.84,28.84,0,0,1-22.84-2.5,25.42,25.42,0,0,1-5.63-4.31,7.75,7.75,0,0,1-1.61-2c.2-.22,2.52,2.77,7.71,5.49a29.08,29.08,0,0,0,21.94,2c4.2-1.36,7.86-3.68,11.49-5.27a20.84,20.84,0,0,1,10.33-2.19,11.55,11.55,0,0,1,6.69,2.45A5,5,0,0,1,298.49,261.77Z" transform="translate(-35.39 -16)"/><path class="cls-6" d="M203.69,418.28" transform="translate(-35.39 -16)"/><path class="cls-21" d="M258.9,479,196.81,426.1l-20.47,4.63s21.58,44.85,37.19,61.28c0,0,15.43,20.66,40.87,11.73S258.9,479,258.9,479Z" transform="translate(-35.39 -16)"/><path class="cls-8" d="M192.13,367.83H165.74c-4,0-7.55,4.63-6.12,8.41l26.53,51.69a6,6,0,0,0,5.35,3.26l32.17-.07c3.69-.5,5-4.59,3.5-6.81l-25.6-50.6A10.53,10.53,0,0,0,192.13,367.83Z" transform="translate(-35.39 -16)"/><path class="cls-7" d="M190.35,371H164a4.41,4.41,0,0,0-3.94,6.42l25.9,50.56a6,6,0,0,0,5.35,3.26h31.8a2.6,2.6,0,0,0,2.32-3.77l-25.6-50.59A10.51,10.51,0,0,0,190.35,371Z" transform="translate(-35.39 -16)"/><path class="cls-21" d="M188.11,392.11l-16.06,6.42-3.44,12.94,7.73,19.26,28.38,4.12-8.31-8.49,1.07-7.39s7.91-2.49,8.11-3.7-1-5.27-2.2-5.47-9.51,2.9-9.51,2.9,9.82-7.78,9.55-9-1.33-4.45-3.29-4.8S182.32,406,182.32,406l-2.58,5.87-2.24-9.39S191.59,398.52,188.11,392.11Z" transform="translate(-35.39 -16)"/><path class="cls-22" d="M190.13,422.45c-.1,0-.4-.56-.55-1.6a8.6,8.6,0,0,1,.49-4.05,8.46,8.46,0,0,1,2.27-3.39c.79-.7,1.4-1,1.45-.87s-1.93,1.7-2.95,4.54S190.37,422.41,190.13,422.45Z" transform="translate(-35.39 -16)"/><path class="cls-22" d="M182.5,419.65a37.86,37.86,0,0,0,.63-4.21,18.56,18.56,0,0,1,.81-4.66,6.83,6.83,0,0,1,1.48-2.49,7.38,7.38,0,0,1,2.62-1.65c3.84-1.39,7.3-2.52,9.83-3.34a22.39,22.39,0,0,1,4.15-1.14,22.08,22.08,0,0,1-4,1.7c-2.47.95-5.95,2.19-9.72,3.55a6.77,6.77,0,0,0-2.35,1.45,6.28,6.28,0,0,0-1.34,2.18,20.06,20.06,0,0,0-.95,4.47C183.4,418.17,182.61,419.71,182.5,419.65Z" transform="translate(-35.39 -16)"/><path class="cls-22" d="M178.81,416.74c-.22,0-.18-1.45.1-3.16s.7-3.07.93-3,.18,1.45-.11,3.16S179,416.78,178.81,416.74Z" transform="translate(-35.39 -16)"/><path class="cls-9" d="M178.38,380.7a3.36,3.36,0,1,0,3.36-3.36A3.36,3.36,0,0,0,178.38,380.7Z" transform="translate(-35.39 -16)"/></svg>