<svg id="Capa_1" data-name="Capa 1" xmlns="http://www.w3.org/2000/svg" xmlns:xlink="http://www.w3.org/1999/xlink" viewBox="0 0 1436.8 1035.7"><defs><style>.cls-1,.cls-13,.cls-16,.cls-23,.cls-8{fill:#fff;}.cls-1,.cls-10,.cls-12,.cls-13,.cls-2,.cls-23,.cls-5,.cls-7,.cls-9{stroke:#1a2e35;stroke-linejoin:round;}.cls-1,.cls-10,.cls-12,.cls-13,.cls-2,.cls-21,.cls-23,.cls-5,.cls-7,.cls-9{stroke-linecap:round;}.cls-1,.cls-2,.cls-23,.cls-5,.cls-7,.cls-9{stroke-width:0.75px;}.cls-15,.cls-2{fill:#af0;}.cls-3{fill:#7e9fff;}.cls-4{fill:#00b8ff;opacity:0.8;}.cls-12,.cls-5,.cls-6{fill:#1a2e35;}.cls-7{fill:#ff0d49;}.cls-10,.cls-21,.cls-26,.cls-9{fill:none;}.cls-11{fill:#00ff9a;}.cls-14{clip-path:url(#clip-path);}.cls-16,.cls-18,.cls-20,.cls-23{opacity:0.5;}.cls-17{clip-path:url(#clip-path-2);}.cls-18{fill:#dfff69;}.cls-19{clip-path:url(#clip-path-3);}.cls-20{fill:#dfff9c;}.cls-21{stroke:#fff;stroke-miterlimit:10;}.cls-22{clip-path:url(#clip-path-4);}.cls-24{clip-path:url(#clip-path-5);}.cls-25{clip-path:url(#clip-path-6);}</style><clipPath id="clip-path" transform="translate(-235.2 -27)"><path class="cls-1" d="M856.7,290.4s94.5,112.2,114.4,132.8,20.6,35.6,14.2,44.8-54.7,26.3-104.4,58.3S689.7,640.7,688.3,643.5,673.4,544,673.4,544L910,446.7l-.7-7.1L832.5,297.5Z"/></clipPath><clipPath id="clip-path-2" transform="translate(-235.2 -27)"><path class="cls-1" d="M612,1045.8c38.6-6.6,88-33.1,102.7-66.5-11.2-57.9-25-139.5-25-189.4,0-83.8,22-131.4,12.1-188.3s-31.3-93.8-54-108.7c0,0-34.8,9.2-70.4,42.6s-66.8,91-78.8,145.7-28.5,223.1-28.5,267.2-3.2,98.8-3.2,98.8c42.6,0,85.2-.1,127.7.1A108.7,108.7,0,0,0,612,1045.8Z"/></clipPath><clipPath id="clip-path-3" transform="translate(-235.2 -27)"><path class="cls-1" d="M693.3,401.9s2.1,27.7,4.2,41.2-31.2,51.2-31.2,51.2l48.3,73.2,54.7-42.6s77.5-5.7,84.6-12.1S861,436,861,436l18.4-10.6s-17-73.9-21.3-90.3l-4.2-16.3s24.8-8.5,19.1-33.4-41.9-37-78.1-31.3-45.5,19.2-45.5,19.2-51.2-.7-80.3,23.4-11.4,62.6-2.1,76.1S693.3,401.9,693.3,401.9Z"/></clipPath><clipPath id="clip-path-4" transform="translate(-235.2 -27)"><path class="cls-2" d="M748.7,437.5s-4.3-44.8-26.3-46.2-21.3,30.5-14.9,52.5,22,29.2,34.8,17.8"/></clipPath><clipPath id="clip-path-5" transform="translate(-235.2 -27)"><path class="cls-1" d="M668.4,467.3l71.1,108-32.7,41.9s-24.9-48.3-49.1-82.4-27-39.8-27-39.8Z"/></clipPath><clipPath id="clip-path-6" transform="translate(-235.2 -27)"><path class="cls-1" d="M649.2,703.9s-20.6-86-29.1-105.1-56.9-37-80.3,4.9-2.2,89.6,6.4,123.7,62.5,188.3,70.3,207.5,22,14.9,29.9,12.8S870.2,771.4,870.2,771.4l-17.1-38.3-167.7,86Z"/></clipPath></defs><title>voidresult</title><path class="cls-3" d="M1616.1,544.3c-12.5-99.5-43.8-195.9-81.4-264.8-90.3-165.8-341.8-276.7-531.6-248C841.4,55.9,763.8,203.5,618,254.7,483.9,301.8,332.2,311.8,269,436,135.4,698.5,493.7,1011.8,774.3,989.4c88.6-7.1,167.7-41.1,258.6-25.2,184.4,32.5,245.7,67.3,408.7,2.4C1602.2,902.7,1638,718.6,1616.1,544.3Z" transform="translate(-235.2 -27)"/><path class="cls-4" d="M1654.4,480.1C1622,386,1530,391,1475.4,315.5c-44.5-61.3-34.6-222.7-107.8-265.7-107.3-63-293.7,43.6-404.5,61.2C804.2,136.3,699,169.1,548.7,191.9,348.8,222.2,360.9,339.8,342.3,475.4c-16.1,117.4-135.6,309.2-74.7,400.5,90.4,135.3,330.8,124.2,495.3,109.9,87-7.6,164.9-42,254-26.6,180.9,31.3,254.7,89.9,401.3.1C1528,892,1733.2,708.9,1654.4,480.1Z" transform="translate(-235.2 -27)"/><polyline class="cls-1" points="735.3 1018.9 577.9 666.5 959.3 666.5 1429.6 976.7"/><polygon class="cls-5" points="696.3 1005 577.9 690 577.9 666.5 745.3 1035.3 696.3 1005"/><polygon class="cls-1" points="796 681 958.2 871.2 761.3 917.1 649.4 704.5 796 681"/><polygon class="cls-5" points="761.3 917.1 761.3 922.7 954.8 883.5 958.2 871.2 761.3 917.1"/><polygon class="cls-6" points="789.9 749.5 798.1 761.7 819.3 756 810.5 744 789.9 749.5"/><polygon class="cls-6" points="869.7 824.4 859.7 810.8 835.7 817.3 845.1 831.2 869.7 824.4"/><polygon class="cls-6" points="772.6 723.9 778.8 733 798.6 728 792.4 719.5 772.6 723.9"/><polygon class="cls-6" points="810.8 780.5 822.2 797.3 845.4 791.4 832.9 774.4 810.8 780.5"/><polygon class="cls-6" points="871 788.4 851.1 793.4 861 807 881.3 801.5 871 788.4"/><polygon class="cls-6" points="824.2 800.3 833.7 814.4 857.6 807.9 847.6 794.3 824.2 800.3"/><polygon class="cls-6" points="750.1 728.9 756.2 738.8 775.3 733.9 769.1 724.7 750.1 728.9"/><polygon class="cls-6" points="800.1 764.6 808.9 777.6 830.7 771.5 821.4 758.9 800.1 764.6"/><polygon class="cls-6" points="780.8 736 787.9 746.5 808.3 741.1 800.8 730.9 780.8 736"/><polygon class="cls-6" points="737.8 759.7 731.6 748.5 709 754.3 715.3 765.7 737.8 759.7"/><polygon class="cls-6" points="705.3 786.8 720.8 782.6 713.6 769.6 698.3 773.6 705.3 786.8"/><polygon class="cls-6" points="743.4 718 748.2 725.9 767 721.7 762 714.2 743.4 718"/><polygon class="cls-6" points="729.9 745.5 723.9 734.7 700.9 739.8 707.3 751.2 729.9 745.5"/><polygon class="cls-6" points="721.1 722.6 725.7 730.9 744.8 726.6 739.9 718.8 721.1 722.6"/><polygon class="cls-6" points="689 755.9 703.9 752.1 697.5 740.5 682.6 743.8 689 755.9"/><polygon class="cls-6" points="694.4 728 699.2 736.7 722.2 731.6 717.6 723.3 694.4 728"/><polygon class="cls-6" points="766.7 755.6 774.4 768.1 794.7 762.6 786.4 750.4 766.7 755.6"/><polygon class="cls-6" points="818.8 798.2 807.4 781.4 786.3 787.3 796.6 803.9 818.8 798.2"/><polygon class="cls-6" points="727.4 733.9 733.3 744.6 752.8 739.6 746.6 729.7 727.4 733.9"/><polygon class="cls-6" points="731.8 802.3 715.9 806.7 724.1 822.3 740.5 818.1 731.8 802.3"/><polygon class="cls-6" points="776.3 771.1 784.4 784.3 805.5 778.5 796.7 765.6 776.3 771.1"/><polygon class="cls-6" points="761.4 753.5 754.7 742.6 735 747.7 741.2 758.8 761.4 753.5"/><polygon class="cls-6" points="798.4 869.2 775.9 874.9 783.9 889.5 806.6 883.9 798.4 869.2"/><polygon class="cls-6" points="763.5 710.5 782.8 706.6 772.4 692.5 753.5 695.6 763.5 710.5"/><polygon class="cls-6" points="715.9 720.2 706.6 703.3 682.9 707.2 692.7 725 715.9 720.2"/><polygon class="cls-6" points="746.6 775.6 739.5 762.8 717 768.7 724.2 781.7 746.6 775.6"/><polygon class="cls-6" points="804.1 822.4 795 807.7 771.5 813.7 780 828.9 804.1 822.4"/><polygon class="cls-6" points="793.2 804.7 782.9 788.2 760.8 794.3 769.9 810.7 793.2 804.7"/><polygon class="cls-6" points="830.3 815.3 820.8 801.2 798.4 806.8 807.5 821.5 830.3 815.3"/><polygon class="cls-6" points="771 769 763.3 756.5 742.8 761.9 749.9 774.7 771 769"/><polygon class="cls-6" points="758.1 741.8 764.8 752.6 784.4 747.4 777.3 736.9 758.1 741.8"/><polygon class="cls-6" points="781.1 785.2 772.9 772 751.6 777.7 759.1 791.3 781.1 785.2"/><polygon class="cls-6" points="841.7 832.1 832.3 818.2 809.3 824.4 818.1 838.6 841.7 832.1"/><polygon class="cls-6" points="826.5 858.6 816.5 842.5 791.3 849.4 800.1 865.3 826.5 858.6"/><polygon class="cls-6" points="750.9 836.8 742.2 821.1 725.7 825.3 734.2 841.3 750.9 836.8"/><polygon class="cls-6" points="722.5 785.6 706.9 789.8 714.2 803.7 730.1 799.3 722.5 785.6"/><polygon class="cls-6" points="796.8 866.2 788 850.3 765.6 856.4 774.2 871.9 796.8 866.2"/><polygon class="cls-6" points="755.8 792.2 748.3 778.6 725.9 784.7 733.4 798.4 755.8 792.2"/><polygon class="cls-6" points="765.6 713.5 770.6 720.9 790.2 716.6 785 709.5 765.6 713.5"/><polygon class="cls-6" points="680.9 740.7 695.8 737.5 691 728.7 676.2 731.8 680.9 740.7"/><polygon class="cls-6" points="741.5 715 760 711.2 749.8 696.2 731.7 699.2 741.5 715"/><polygon class="cls-6" points="719.4 719.5 738 715.7 728.1 699.8 710.1 702.8 719.4 719.5"/><polygon class="cls-6" points="712 766.6 705.6 755.1 690.6 758.9 696.7 770.6 712 766.6"/><polygon class="cls-6" points="786.5 705.8 803.1 702.4 792.6 689.1 776.2 691.9 786.5 705.8"/><polygon class="cls-6" points="689.3 725.7 679.4 707.8 664.8 710.2 674.6 728.7 689.3 725.7"/><polygon class="cls-6" points="772.5 875.8 754.8 880.3 762.5 894.8 780.6 890.3 772.5 875.8"/><polygon class="cls-6" points="856.7 854.3 831.8 860.7 840.9 875.4 866.6 869 856.7 854.3"/><polygon class="cls-6" points="828.4 861.6 801.8 868.3 810 883 837.5 876.2 828.4 861.6"/><polygon class="cls-6" points="886.3 846.8 860.2 853.5 870.1 868.2 897.1 861.5 886.3 846.8"/><polygon class="cls-6" points="911.9 840.3 889.8 845.9 900.6 860.6 923.5 855 911.9 840.3"/><polygon class="cls-6" points="762.3 857.3 745.1 862 753.2 877.3 770.8 872.8 762.3 857.3"/><polygon class="cls-6" points="814.7 839.5 805.9 825.4 781.6 831.9 789.6 846.3 814.7 839.5"/><polygon class="cls-6" points="854.7 851.4 843.7 835 819.9 841.5 829.9 857.7 854.7 851.4"/><polygon class="cls-6" points="786.3 847.3 778.3 832.8 755.9 838.9 763.9 853.4 786.3 847.3"/><polygon class="cls-6" points="743.5 859 760.6 854.3 752.6 839.8 735.8 844.3 743.5 859"/><polygon class="cls-6" points="766.5 811.5 757.5 795.2 735.1 801.4 743.9 817.3 766.5 811.5"/><polygon class="cls-6" points="884.1 843.9 871.9 827.3 847.1 834.1 858.2 850.5 884.1 843.9"/><polygon class="cls-6" points="776.6 829.8 768.2 814.5 745.6 820.3 754.2 835.9 776.6 829.8"/><polygon class="cls-6" points="836.3 773.5 848.9 790.5 868.7 785.5 855.1 768.3 836.3 773.5"/><polygon class="cls-6" points="811.8 740.2 829.3 735.6 821.4 725.6 804.3 730 811.8 740.2"/><polygon class="cls-6" points="796 718.7 802.1 727.1 819.2 722.8 813 715 796 718.7"/><polygon class="cls-6" points="909.6 837.4 896.4 820.6 875.3 826.4 887.6 843 909.6 837.4"/><polygon class="cls-6" points="813.9 743.1 822.7 755 840.8 750.2 831.5 738.4 813.9 743.1"/><polygon class="cls-6" points="863.2 809.9 873.2 823.5 894.1 817.7 883.5 804.3 863.2 809.9"/><polygon class="cls-6" points="793.8 715.8 810.7 712 805.4 705.4 788.6 708.8 793.8 715.8"/><polygon class="cls-6" points="834.2 770.6 852.8 765.4 843 753 824.9 757.9 834.2 770.6"/><path class="cls-1" d="M1219.1,729.3v30.2a54.6,54.6,0,0,1-10,7.8c-5.6,3.4-51.5,11.2-51.5,11.2l58.2,63.8s53.3-5.8,68.2-10.1,12.3-61.5,12.3-61.5Z" transform="translate(-235.2 -27)"/><path class="cls-5" d="M1219.1,729.3v30.2l-2.1,2,68,70.3c14.5-6.5,11.3-61.1,11.3-61.1Z" transform="translate(-235.2 -27)"/><polygon class="cls-1" points="881 316.3 881 636.3 1124.9 828.7 1124.9 334.2 881 316.3"/><polygon class="cls-7" points="897.8 333.1 897.8 602.7 1102.5 729.1 1102.5 351 897.8 333.1"/><rect class="cls-5" x="1124.9" y="334.2" width="24.6" height="494.64"/><polygon class="cls-1" points="911.2 349.8 912.3 590.4 1083.5 687.7 1083.5 389.9 966 372.1 958.2 355.4 911.2 349.8"/><polygon class="cls-7" points="922.4 378.9 922.4 583.7 1073.4 664.2 1073.4 405.8 922.4 378.9"/><ellipse class="cls-6" cx="1228.1" cy="552.5" rx="40.7" ry="56.1" transform="translate(-347.2 392.7) rotate(-18.6)"/><path class="cls-8" d="M1232.6,555.9l14.3-15.9c2-2.2,1.9-6.5-.2-9.5s-5.5-3.8-7.5-1.5l-13.9,15.3-13.8-22.2c-2-3.2-5.4-4.2-7.5-2.2s-2.3,6.2-.3,9.4l14.4,23-14.4,15.9c-2,2.3-1.9,6.5.3,9.6a6.1,6.1,0,0,0,3.6,2.7,3.7,3.7,0,0,0,3.9-1.2l13.8-15.3,13.9,22.2a6.2,6.2,0,0,0,3.8,3.1,3.9,3.9,0,0,0,3.7-.9c2.1-2,2.2-6.2.2-9.4Z" transform="translate(-235.2 -27)"/><line class="cls-9" x1="949.2" y1="448.3" x2="1033.8" y2="473.1"/><line class="cls-9" x1="945.9" y1="424.8" x2="1055.5" y2="455.4"/><path class="cls-1" d="M1256.7,979s-53.5,4.9-73.3,20.8-4.9,23.7,13.9,28.7,102.9-3,113.8-13.9S1311.1,977,1256.7,979Z" transform="translate(-235.2 -27)"/><path class="cls-5" d="M1311.1,1014.6a12.7,12.7,0,0,0,3.7-7.8c-24-1.2-55.3,5.8-83.9,14.8-11.7,3.6-21.5,6.1-29.3,7.7C1226.5,1032.4,1300.9,1024.8,1311.1,1014.6Z" transform="translate(-235.2 -27)"/><line class="cls-10" x1="831.9" y1="364.7" x2="870.9" y2="385"/><line class="cls-10" x1="809.4" y1="353" x2="821.1" y2="359.1"/><line class="cls-10" x1="840.5" y1="467.1" x2="853.7" y2="468.7"/><line class="cls-10" x1="789.8" y1="461.3" x2="825.5" y2="465.4"/><line class="cls-10" x1="848.8" y1="562.1" x2="804.5" y2="574.4"/><path class="cls-6" d="M1026.9,48a105.9,105.9,0,1,0,105.9,105.9A106,106,0,0,0,1026.9,48Zm0,191a85.1,85.1,0,1,1,85.1-85.1A85.1,85.1,0,0,1,1026.9,239Z" transform="translate(-235.2 -27)"/><path class="cls-6" d="M1034.4,153.9a7.6,7.6,0,1,1-7.5-7.6A7.6,7.6,0,0,1,1034.4,153.9Z" transform="translate(-235.2 -27)"/><polyline class="cls-10" points="766.3 165.3 791.7 126.9 834.5 162.4"/><polyline class="cls-11" points="229.6 208.1 216.9 173.3 223.7 180.9 223.7 169 238.1 191.1 225.4 112.2 242.3 155.5 244 117.3 246.6 130 250 86.7 255.9 152.9 264.4 130 262.7 159.7 285.6 91.8 274.6 176.7 290.7 164.8 281.4 180.1 293.3 171.6 279.7 210.6 230.5 211.5"/><polygon class="cls-12" points="284.1 293.8 231 293.8 216.7 201.9 298.4 201.9 284.1 293.8"/><rect class="cls-13" x="161.5" y="293.2" width="267.9" height="712.65"/><rect class="cls-10" x="177.1" y="316.6" width="234.1" height="171.66"/><rect class="cls-6" x="247.3" y="386.8" width="93.6" height="31.21"/><rect class="cls-10" x="177.1" y="516.9" width="234.1" height="171.66"/><rect class="cls-6" x="247.3" y="587.1" width="93.6" height="31.21"/><rect class="cls-10" x="177.1" y="717.1" width="234.1" height="171.66"/><rect class="cls-6" x="247.3" y="787.4" width="93.6" height="31.21"/><path class="cls-5" d="M693.3,992.2s134.3-59.3,206.4-63.8l52.5,116.4H554.6Z" transform="translate(-235.2 -27)"/><path class="cls-8" d="M856.7,290.4s94.5,112.2,114.4,132.8,20.6,35.6,14.2,44.8-54.7,26.3-104.4,58.3S689.7,640.7,688.3,643.5,673.4,544,673.4,544L910,446.7l-.7-7.1L832.5,297.5Z" transform="translate(-235.2 -27)"/><g class="cls-14"><path class="cls-15" d="M947.7,456.1,837.8,295.9l-5.3,1.6,76.8,142.1.7,7.1L673.4,544s.2,1.8.6,4.8l15.4,35.4Z" transform="translate(-235.2 -27)"/><path class="cls-16" d="M947.7,456.1,837.8,295.9l-5.3,1.6,76.8,142.1.7,7.1L673.4,544s.2,1.8.6,4.8l15.4,35.4Z" transform="translate(-235.2 -27)"/></g><path class="cls-9" d="M856.7,290.4s94.5,112.2,114.4,132.8,20.6,35.6,14.2,44.8-54.7,26.3-104.4,58.3S689.7,640.7,688.3,643.5,673.4,544,673.4,544L910,446.7l-.7-7.1L832.5,297.5Z" transform="translate(-235.2 -27)"/><path class="cls-1" d="M781.4,242s-11.4-9.9-17.1,0-6.4,26.3-2.8,27.7,17.7-.7,19.9-4.9S781.4,242,781.4,242Z" transform="translate(-235.2 -27)"/><path class="cls-1" d="M801.3,237.1s-12.1-12.8-19.9-7.9-5.7,32-2.9,34.2,19.9-3.6,22.1-7.2S801.3,237.1,801.3,237.1Z" transform="translate(-235.2 -27)"/><path class="cls-1" d="M828.3,237.8s-10.7-15-20.6-15-17.1,35.6-13.5,38.4,27-.7,28.4-2.8S828.3,237.8,828.3,237.8Z" transform="translate(-235.2 -27)"/><path class="cls-1" d="M848.9,261.9c0-4.2-2.1-41.2-14.9-39.1s-26.3,32-25.6,37S848.9,261.9,848.9,261.9Z" transform="translate(-235.2 -27)"/><path class="cls-1" d="M910,447.4s36.2,13.5,49.7,12.8" transform="translate(-235.2 -27)"/><path class="cls-8" d="M612,1045.8c38.6-6.6,88-33.1,102.7-66.5-11.2-57.9-25-139.5-25-189.4,0-83.8,22-131.4,12.1-188.3s-31.3-93.8-54-108.7c0,0-34.8,9.2-70.4,42.6s-66.8,91-78.8,145.7-28.5,223.1-28.5,267.2-3.2,98.8-3.2,98.8c42.6,0,85.2-.1,127.7.1A108.7,108.7,0,0,0,612,1045.8Z" transform="translate(-235.2 -27)"/><g class="cls-17"><path class="cls-15" d="M714.7,979.3c-21.6,18.3-118.9,54.3-133.2,57.4s-6.3-26.8,15.8-56.8-26.8,11-34.7,14.2,3.1-58.5,3.1-88.5,28.5-285.9,28.5-285.9l53.7-98,18.4-11.1a78.1,78.1,0,0,0-18.5-17.7s-34.8,9.2-70.4,42.6-66.8,91-78.8,145.7-28.5,223.1-28.5,267.2-3.2,98.8-3.2,98.8c42.6,0,85.2-.1,127.7.1a108.7,108.7,0,0,0,17.4-1.5C650.6,1039.2,700,1012.7,714.7,979.3Z" transform="translate(-235.2 -27)"/><path class="cls-18" d="M714.7,979.3c-21.6,18.3-118.9,54.3-133.2,57.4s-6.3-26.8,15.8-56.8-26.8,11-34.7,14.2,3.1-58.5,3.1-88.5,28.5-285.9,28.5-285.9l53.7-98,18.4-11.1a78.1,78.1,0,0,0-18.5-17.7s-34.8,9.2-70.4,42.6-66.8,91-78.8,145.7-28.5,223.1-28.5,267.2-3.2,98.8-3.2,98.8c42.6,0,85.2-.1,127.7.1a108.7,108.7,0,0,0,17.4-1.5C650.6,1039.2,700,1012.7,714.7,979.3Z" transform="translate(-235.2 -27)"/></g><path class="cls-9" d="M612,1045.8c38.6-6.6,88-33.1,102.7-66.5-11.2-57.9-25-139.5-25-189.4,0-83.8,22-131.4,12.1-188.3s-31.3-93.8-54-108.7c0,0-34.8,9.2-70.4,42.6s-66.8,91-78.8,145.7-28.5,223.1-28.5,267.2-3.2,98.8-3.2,98.8c42.6,0,85.2-.1,127.7.1A108.7,108.7,0,0,0,612,1045.8Z" transform="translate(-235.2 -27)"/><path class="cls-5" d="M645.7,506.1l61.1,111.1,3.2,61s17-43.5,9.5-71.9S645.7,506.1,645.7,506.1Z" transform="translate(-235.2 -27)"/><polygon class="cls-5" points="474.8 651.2 457.8 908.5 476.7 961.5 489.9 855.5 478.6 643.7 474.8 651.2"/><path class="cls-8" d="M693.3,401.9s2.1,27.7,4.2,41.2-31.2,51.2-31.2,51.2l48.3,73.2,54.7-42.6s77.5-5.7,84.6-12.1S861,436,861,436l18.4-10.6s-17-73.9-21.3-90.3l-4.2-16.3s24.8-8.5,19.1-33.4-41.9-37-78.1-31.3-45.5,19.2-45.5,19.2-51.2-.7-80.3,23.4-11.4,62.6-2.1,76.1S693.3,401.9,693.3,401.9Z" transform="translate(-235.2 -27)"/><g class="cls-19"><path class="cls-15" d="M779,501.2c-14.2-17.4,0-83.8,11.1-116.9s-15.8-47.4-15.8-47.4L855,323l-1.1-4.2a36.2,36.2,0,0,0,14.1-10l4.3-25.7c-7.3-23.3-42.3-34.5-77.4-29s-45.5,19.2-45.5,19.2-51.2-.7-80.3,23.4-11.4,62.6-2.1,76.1,26.3,29.1,26.3,29.1,2.1,27.7,4.2,41.2-31.2,51.2-31.2,51.2l48.3,73.2,54.7-42.6s59.2-4.4,78.8-9.8l5.8-2.3S793.2,518.6,779,501.2Z" transform="translate(-235.2 -27)"/><path class="cls-20" d="M779,501.2c-14.2-17.4,0-83.8,11.1-116.9s-15.8-47.4-15.8-47.4L855,323l-1.1-4.2a36.2,36.2,0,0,0,14.1-10l4.3-25.7c-7.3-23.3-42.3-34.5-77.4-29s-45.5,19.2-45.5,19.2-51.2-.7-80.3,23.4-11.4,62.6-2.1,76.1,26.3,29.1,26.3,29.1,2.1,27.7,4.2,41.2-31.2,51.2-31.2,51.2l48.3,73.2,54.7-42.6s59.2-4.4,78.8-9.8l5.8-2.3S793.2,518.6,779,501.2Z" transform="translate(-235.2 -27)"/><path class="cls-6" d="M820.5,369.2a17.3,17.3,0,0,1-.2-2.8c0-5.5.9-17.4,10.1-20.6,12.1-4.3,22,7.1,22,7.1l.7,11.4a15.7,15.7,0,0,0-14.9-5.7C828.3,360,820.5,369.2,820.5,369.2Z" transform="translate(-235.2 -27)"/><path class="cls-6" d="M841.1,392c0,5.9-1.6,10.6-3.6,10.6S834,397.9,834,392s1.6-10.7,3.5-10.7S841.1,386.1,841.1,392Z" transform="translate(-235.2 -27)"/><path class="cls-6" d="M818.7,466.4c-4,4.1-9.2,5.4-11.8,3s-1.4-7.8,2.6-11.9,9.2-5.4,11.7-3S822.6,462.3,818.7,466.4Z" transform="translate(-235.2 -27)"/></g><path class="cls-9" d="M693.3,401.9s2.1,27.7,4.2,41.2-31.2,51.2-31.2,51.2l48.3,73.2,54.7-42.6s77.5-5.7,84.6-12.1S861,436,861,436l18.4-10.6s-17-73.9-21.3-90.3l-4.2-16.3s24.8-8.5,19.1-33.4-41.9-37-78.1-31.3-45.5,19.2-45.5,19.2-51.2-.7-80.3,23.4-11.4,62.6-2.1,76.1S693.3,401.9,693.3,401.9Z" transform="translate(-235.2 -27)"/><path class="cls-5" d="M761.5,332.3c12.8-8.5,92.4-13.5,92.4-13.5s24.8-8.5,19.1-33.4-41.9-37-78.1-31.3-45.5,19.2-45.5,19.2-51.2-.7-80.3,23.4-11.4,62.6-2.1,76.1,26.3,29.1,26.3,29.1,1.1,15.2,2.6,28.6l22.2,6.2,24.2-12.8,24.2-5.6s-17.8-13.5-7.9-26.3,28.5-17.1,29.2-27S748.7,340.8,761.5,332.3Z" transform="translate(-235.2 -27)"/><path class="cls-21" d="M839,291s-8.3-15.3,7-12.5,15.3,29.1,2.8,34.7-80.6-6.9-118.1,4.2S666.8,359,666.8,359" transform="translate(-235.2 -27)"/><path class="cls-21" d="M687.6,382.6s29.2-25,52.8-29.1,36.1-4.2,9.7,11.1-8.3,12.5,8.4,6.9" transform="translate(-235.2 -27)"/><path class="cls-15" d="M748.7,437.5s-4.3-44.8-26.3-46.2-21.3,30.5-14.9,52.5,22,29.2,34.8,17.8" transform="translate(-235.2 -27)"/><g class="cls-22"><path class="cls-23" d="M748.7,437.5s-4.3-44.8-26.3-46.2-21.3,30.5-14.9,52.5,22,29.2,34.8,17.8" transform="translate(-235.2 -27)"/></g><path class="cls-9" d="M748.7,437.5s-4.3-44.8-26.3-46.2-21.3,30.5-14.9,52.5,22,29.2,34.8,17.8" transform="translate(-235.2 -27)"/><path class="cls-8" d="M668.4,467.3l71.1,108-32.7,41.9s-24.9-48.3-49.1-82.4-27-39.8-27-39.8Z" transform="translate(-235.2 -27)"/><g class="cls-24"><path class="cls-15" d="M668.4,467.3,630.7,495s2.1,4.2,17.6,26.4l39.8-24.1Z" transform="translate(-235.2 -27)"/><path class="cls-16" d="M668.4,467.3,630.7,495s2.1,4.2,17.6,26.4l39.8-24.1Z" transform="translate(-235.2 -27)"/></g><path class="cls-9" d="M668.4,467.3l71.1,108-32.7,41.9s-24.9-48.3-49.1-82.4-27-39.8-27-39.8Z" transform="translate(-235.2 -27)"/><path class="cls-1" d="M851,735.9s11.4-23.4,13.5-38.4,2.9-23.4,11.4-30.5,36.2-35.6,40.5-46.2,7.1-.7,9.2,7.8,1.5,16.4-5.7,21.3a81.1,81.1,0,0,0-13.5,12.8l6.4,5s88.9-33.4,98.1-37,17.8-.7,18.5,6.4-2.1,7.9-6.4,10-51.2,18.5-57.6,21.3l-6.4,2.8,5,5s25.6-.7,38.4-1.4,32-2.8,34.8,1.4a9,9,0,0,1-2.1,12.1c-3.6,2.8-5,3.6-11.4,3.6s-61.1,4.2-61.1,4.2l1.4,7.8s58.3,9.3,60.4,12.1,2.1,4.3,0,8.5-3.5,4.3-9.2,4.3-51.9-7.1-51.9-7.1,22.7,12.8,25.6,14.9,12.8,3.6,9.9,8.5-4.2,6.4-8.5,5.7-34.8-14.2-34.8-14.2-30.6,4.3-40.5,5a142.3,142.3,0,0,1-22.1-.7l-28.4,18.5Z" transform="translate(-235.2 -27)"/><path class="cls-8" d="M649.2,703.9s-20.6-86-29.1-105.1-56.9-37-80.3,4.9-2.2,89.6,6.4,123.7,62.5,188.3,70.3,207.5,22,14.9,29.9,12.8S870.2,771.4,870.2,771.4l-17.1-38.3-167.7,86Z" transform="translate(-235.2 -27)"/><g class="cls-25"><path class="cls-15" d="M643.2,893s11-33.2,18.9-49-37.9,36.3-47.4,7.9-69.5-170.6-58.4-218c6.8-29.4,24-46,36-54.4-17.6-4.2-39.1.2-52.5,24.2-23.5,42-2.2,89.6,6.4,123.7s62.5,188.3,70.3,207.5,22,14.9,29.9,12.8c5.7-1.6,121.7-94.3,184.4-144.6Z" transform="translate(-235.2 -27)"/><path class="cls-18" d="M643.2,893s11-33.2,18.9-49-37.9,36.3-47.4,7.9-69.5-170.6-58.4-218c6.8-29.4,24-46,36-54.4-17.6-4.2-39.1.2-52.5,24.2-23.5,42-2.2,89.6,6.4,123.7s62.5,188.3,70.3,207.5,22,14.9,29.9,12.8c5.7-1.6,121.7-94.3,184.4-144.6Z" transform="translate(-235.2 -27)"/></g><path class="cls-9" d="M649.2,703.9s-20.6-86-29.1-105.1-56.9-37-80.3,4.9-2.2,89.6,6.4,123.7,62.5,188.3,70.3,207.5,22,14.9,29.9,12.8S870.2,771.4,870.2,771.4l-17.1-38.3-167.7,86Z" transform="translate(-235.2 -27)"/><line class="cls-1" x1="593.1" y1="720.3" x2="612.3" y2="759.4"/><path class="cls-1" d="M377.5,551.2l-98.2,68.1s48.4,51.1,43.4,185.4c-3.8,102.4,9.9,218.8,29.6,242.5H456.8S420.7,848,423.3,733.7C425.2,646.9,399.2,586.7,377.5,551.2Z" transform="translate(-235.2 -27)"/><path class="cls-5" d="M389.3,551.2l-98.2,68.1s48.4,51.1,43.4,185.4c-3.8,102.4,9.9,218.8,29.6,242.5H468.6S432.5,848,435.1,733.7C437,646.9,411,586.7,389.3,551.2Z" transform="translate(-235.2 -27)"/><polygon class="cls-1" points="142.3 524.2 154.1 524.2 55.9 592.3 44.1 592.3 142.3 524.2"/><rect class="cls-26" y="168.5" width="848.8" height="841.42"/></svg>