<?xml version="1.0" encoding="UTF-8" standalone="no"?><svg xmlns="http://www.w3.org/2000/svg" xmlns:xlink="http://www.w3.org/1999/xlink" contentScriptType="application/ecmascript" contentStyleType="text/css" height="860px" preserveAspectRatio="none" style="width:711px;height:860px;" version="1.1" viewBox="0 0 711 860" width="711.25px" zoomAndPan="magnify"><defs><filter height="300%" id="f1jcz76hc9qyv9" width="300%" x="-1" y="-1"><feGaussianBlur result="blurOut" stdDeviation="2.5"/><feColorMatrix in="blurOut" result="blurOut2" type="matrix" values="0 0 0 0 0 0 0 0 0 0 0 0 0 0 0 0 0 0 .4 0"/><feOffset dx="5.0" dy="5.0" in="blurOut2" result="blurOut3"/><feBlend in="SourceGraphic" in2="blurOut3" mode="normal"/></filter></defs><g><!--MD5=[8f63dadf5c643e74a34e53c8f0a15d23]
class Persona--><rect fill="#FEFECE" filter="url(#f1jcz76hc9qyv9)" height="295.0684" id="Persona" style="stroke: #A80036; stroke-width: 1.875;" width="173.75" x="7.5" y="360"/><ellipse cx="60" cy="385.1172" fill="#ADD1B2" rx="13.75" ry="13.75" style="stroke: #A80036; stroke-width: 1.25;"/><path d="M62.5,380.7422 Q62.7539,380.1172 63.0469,379.8047 Q63.3398,379.4922 63.6719,379.4922 Q64.2578,379.4922 64.6289,379.8438 Q65,380.1953 65,381.0156 L65,382.9688 Q65,383.7891 64.6484,384.1406 Q64.2969,384.4922 63.75,384.4922 Q63.2617,384.4922 62.9492,384.2773 Q62.6367,384.0625 62.5,383.4961 Q62.4414,383.1055 62.2266,382.8906 Q61.8359,382.4805 61.1328,382.2461 Q60.4297,381.9922 59.7266,381.9922 Q58.8477,381.9922 58.1055,382.3438 Q57.3828,382.6953 56.8164,383.4766 Q56.25,384.2578 56.25,385.332 L56.25,386.4844 Q56.25,387.7734 57.3047,388.6328 Q58.3594,389.4922 60.2344,389.4922 Q61.3477,389.4922 62.1289,389.2383 Q62.5781,389.1016 63.0859,388.6523 Q63.418,388.3984 63.5938,388.3203 Q63.7695,388.2422 63.9844,388.2422 Q64.3945,388.2422 64.6875,388.5742 Q65,388.8867 65,389.3359 Q65,389.7656 64.5703,390.2734 Q63.9453,391.0156 62.9492,391.4258 Q61.6406,391.9922 60.0391,391.9922 Q58.1641,391.9922 56.6602,391.25 Q55.4492,390.6641 54.5898,389.3945 Q53.75,388.125 53.75,386.6211 L53.75,385.2539 Q53.75,383.6914 54.4922,382.3242 Q55.2539,380.957 56.5625,380.2344 Q57.8906,379.4922 59.375,379.4922 Q60.2734,379.4922 61.0547,379.8047 Q61.8359,380.1172 62.5,380.7422 Z "/><text fill="#000000" font-family="sans-serif" font-size="15" font-style="italic" lengthAdjust="spacingAndGlyphs" textLength="55" x="86.875" y="381.8213">«Entity»</text><text fill="#000000" font-family="sans-serif" font-size="15" lengthAdjust="spacingAndGlyphs" textLength="58.75" x="85" y="400.6885">Persona</text><line style="stroke: #A80036; stroke-width: 1.875;" x1="8.75" x2="180" y1="410.2344" y2="410.2344"/><rect fill="none" height="7.5" style="stroke: #C82930; stroke-width: 1.25;" width="7.5" x="17.5" y="420.2344"/><text fill="#000000" font-family="sans-serif" font-size="13.75" lengthAdjust="spacingAndGlyphs" textLength="38.75" x="32.5" y="429.5081">uid: int</text><rect fill="none" height="7.5" style="stroke: #C82930; stroke-width: 1.25;" width="7.5" x="17.5" y="437.5293"/><text fill="#000000" font-family="sans-serif" font-size="13.75" lengthAdjust="spacingAndGlyphs" textLength="58.75" x="32.5" y="446.803">webId: int</text><rect fill="none" height="7.5" style="stroke: #C82930; stroke-width: 1.25;" width="7.5" x="17.5" y="454.8242"/><text fill="#000000" font-family="sans-serif" font-size="13.75" lengthAdjust="spacingAndGlyphs" textLength="86.25" x="32.5" y="464.0979">nombre: string</text><rect fill="none" height="7.5" style="stroke: #C82930; stroke-width: 1.25;" width="7.5" x="17.5" y="472.1191"/><text fill="#000000" font-family="sans-serif" font-size="13.75" lengthAdjust="spacingAndGlyphs" textLength="57.5" x="32.5" y="481.3928">rut: string</text><rect fill="none" height="7.5" style="stroke: #C82930; stroke-width: 1.25;" width="7.5" x="17.5" y="489.4141"/><text fill="#000000" font-family="sans-serif" font-size="13.75" lengthAdjust="spacingAndGlyphs" textLength="68.75" x="32.5" y="498.6877">sexo: Sexo</text><rect fill="none" height="7.5" style="stroke: #C82930; stroke-width: 1.25;" width="7.5" x="17.5" y="506.709"/><text fill="#000000" font-family="sans-serif" font-size="13.75" lengthAdjust="spacingAndGlyphs" textLength="76.25" x="32.5" y="515.9827">cargo: string</text><rect fill="none" height="7.5" style="stroke: #C82930; stroke-width: 1.25;" width="7.5" x="17.5" y="524.0039"/><text fill="#000000" font-family="sans-serif" font-size="13.75" lengthAdjust="spacingAndGlyphs" textLength="81.25" x="32.5" y="533.2776">unidad: string</text><rect fill="none" height="7.5" style="stroke: #C82930; stroke-width: 1.25;" width="7.5" x="17.5" y="541.2988"/><text fill="#000000" font-family="sans-serif" font-size="13.75" lengthAdjust="spacingAndGlyphs" textLength="71.25" x="32.5" y="550.5725">email: string</text><rect fill="none" height="7.5" style="stroke: #C82930; stroke-width: 1.25;" width="7.5" x="17.5" y="558.5938"/><text fill="#000000" font-family="sans-serif" font-size="13.75" lengthAdjust="spacingAndGlyphs" textLength="90" x="32.5" y="567.8674">telefono: string</text><rect fill="none" height="7.5" style="stroke: #C82930; stroke-width: 1.25;" width="7.5" x="17.5" y="575.8887"/><text fill="#000000" font-family="sans-serif" font-size="13.75" lengthAdjust="spacingAndGlyphs" textLength="81.25" x="32.5" y="585.1624">oficina: string</text><rect fill="none" height="7.5" style="stroke: #C82930; stroke-width: 1.25;" width="7.5" x="17.5" y="593.1836"/><text fill="#000000" font-family="sans-serif" font-size="13.75" lengthAdjust="spacingAndGlyphs" textLength="141.25" x="32.5" y="602.4573">direccionTrabajo: string</text><rect fill="none" height="7.5" style="stroke: #C82930; stroke-width: 1.25;" width="7.5" x="17.5" y="610.4785"/><text fill="#000000" font-family="sans-serif" font-size="13.75" lengthAdjust="spacingAndGlyphs" textLength="127.5" x="32.5" y="619.7522">direccionCasa: string</text><rect fill="none" height="7.5" style="stroke: #C82930; stroke-width: 1.25;" width="7.5" x="17.5" y="627.7734"/><text fill="#000000" font-family="sans-serif" font-size="13.75" lengthAdjust="spacingAndGlyphs" textLength="88.75" x="32.5" y="637.0471">comuna: string</text><line style="stroke: #A80036; stroke-width: 1.875;" x1="8.75" x2="180" y1="645.0684" y2="645.0684"/><!--MD5=[2bd084d4f9b8ff009b6d8ba013c0f313]
class Sexo--><rect fill="#FEFECE" filter="url(#f1jcz76hc9qyv9)" height="94.5898" id="Sexo" style="stroke: #A80036; stroke-width: 1.875;" width="73.75" x="57.5" y="752.5"/><ellipse cx="76.25" cy="772.5" fill="#EB937F" rx="13.75" ry="13.75" style="stroke: #A80036; stroke-width: 1.25;"/><path d="M74.375,773.75 L74.375,776.25 L79.375,776.25 L79.375,775 L79.375,774.3945 L80.1563,773.75 L80.625,773.75 L81.0938,773.75 L81.875,774.3945 L81.875,775 L81.875,778.75 L71.875,778.75 L71.2695,778.75 L70.625,777.9688 L70.625,777.5 L70.625,777.0313 L71.2695,776.25 L71.875,776.25 L71.875,776.25 L71.875,768.75 L71.875,768.75 L71.2695,768.75 L70.625,767.9688 L70.625,767.5 L70.625,767.0313 L71.2695,766.25 L71.875,766.25 L81.875,766.25 L81.875,770 L81.875,770.6055 L81.0938,771.25 L80.625,771.25 L80.1563,771.25 L79.375,770.6055 L79.375,770 L79.375,768.75 L74.375,768.75 L74.375,771.25 L75.625,771.25 L75.625,770.6445 L75.625,770.6445 L76.4063,770 L76.875,770 L77.3438,770 L78.125,770.6445 L78.125,771.25 L78.125,773.75 L78.125,774.3555 L77.3438,775 L77.3438,775 L76.875,775 L76.4063,775 L75.625,774.3555 L75.625,774.3555 L75.625,773.75 L74.375,773.75 Z "/><text fill="#000000" font-family="sans-serif" font-size="15" lengthAdjust="spacingAndGlyphs" textLength="33.75" x="93.75" y="778.6377">Sexo</text><line style="stroke: #A80036; stroke-width: 1.875;" x1="58.75" x2="130" y1="792.5" y2="792.5"/><text fill="#000000" font-family="sans-serif" font-size="13.75" lengthAdjust="spacingAndGlyphs" textLength="28.75" x="65" y="811.7737">VAR</text><text fill="#000000" font-family="sans-serif" font-size="13.75" lengthAdjust="spacingAndGlyphs" textLength="25" x="65" y="829.0686">MUJ</text><line style="stroke: #A80036; stroke-width: 1.875;" x1="58.75" x2="130" y1="837.0898" y2="837.0898"/><!--MD5=[175f95e045c1a44aed0b30df3abe0e5c]
class Program--><rect fill="#FEFECE" filter="url(#f1jcz76hc9qyv9)" height="94.5898" id="Program" style="stroke: #A80036; stroke-width: 1.875;" width="286.25" x="156.25" y="10"/><ellipse cx="264.0625" cy="30" fill="#ADD1B2" rx="13.75" ry="13.75" style="stroke: #A80036; stroke-width: 1.25;"/><path d="M266.5625,25.625 Q266.8164,25 267.1094,24.6875 Q267.4023,24.375 267.7344,24.375 Q268.3203,24.375 268.6914,24.7266 Q269.0625,25.0781 269.0625,25.8984 L269.0625,27.8516 Q269.0625,28.6719 268.7109,29.0234 Q268.3594,29.375 267.8125,29.375 Q267.3242,29.375 267.0117,29.1602 Q266.6992,28.9453 266.5625,28.3789 Q266.5039,27.9883 266.2891,27.7734 Q265.8984,27.3633 265.1953,27.1289 Q264.4922,26.875 263.7891,26.875 Q262.9102,26.875 262.168,27.2266 Q261.4453,27.5781 260.8789,28.3594 Q260.3125,29.1406 260.3125,30.2148 L260.3125,31.3672 Q260.3125,32.6563 261.3672,33.5156 Q262.4219,34.375 264.2969,34.375 Q265.4102,34.375 266.1914,34.1211 Q266.6406,33.9844 267.1484,33.5352 Q267.4805,33.2813 267.6563,33.2031 Q267.832,33.125 268.0469,33.125 Q268.457,33.125 268.75,33.457 Q269.0625,33.7695 269.0625,34.2188 Q269.0625,34.6484 268.6328,35.1563 Q268.0078,35.8984 267.0117,36.3086 Q265.7031,36.875 264.1016,36.875 Q262.2266,36.875 260.7227,36.1328 Q259.5117,35.5469 258.6523,34.2773 Q257.8125,33.0078 257.8125,31.5039 L257.8125,30.1367 Q257.8125,28.5742 258.5547,27.207 Q259.3164,25.8398 260.625,25.1172 Q261.9531,24.375 263.4375,24.375 Q264.3359,24.375 265.1172,24.6875 Q265.8984,25 266.5625,25.625 Z "/><text fill="#000000" font-family="sans-serif" font-size="15" lengthAdjust="spacingAndGlyphs" textLength="60" x="289.6875" y="36.1377">Program</text><line style="stroke: #A80036; stroke-width: 1.875;" x1="157.5" x2="441.25" y1="50" y2="50"/><line style="stroke: #A80036; stroke-width: 1.875;" x1="157.5" x2="441.25" y1="60" y2="60"/><text fill="#000000" font-family="sans-serif" font-size="13.75" lengthAdjust="spacingAndGlyphs" textLength="37.5" x="163.75" y="79.2737">main()</text><text fill="#000000" font-family="sans-serif" font-size="13.75" lengthAdjust="spacingAndGlyphs" textLength="271.25" x="163.75" y="96.5686">CreateHostBuilder(String[] args): IHostBuilder</text><!--MD5=[920720997a8b0126537e14f2ea250477]
class ContratosImpl--><rect fill="#FEFECE" filter="url(#f1jcz76hc9qyv9)" height="60" id="ContratosImpl" style="stroke: #A80036; stroke-width: 1.875;" width="137.5" x="230.625" y="202.5"/><ellipse cx="249.375" cy="222.5" fill="#ADD1B2" rx="13.75" ry="13.75" style="stroke: #A80036; stroke-width: 1.25;"/><path d="M251.875,218.125 Q252.1289,217.5 252.4219,217.1875 Q252.7148,216.875 253.0469,216.875 Q253.6328,216.875 254.0039,217.2266 Q254.375,217.5781 254.375,218.3984 L254.375,220.3516 Q254.375,221.1719 254.0234,221.5234 Q253.6719,221.875 253.125,221.875 Q252.6367,221.875 252.3242,221.6602 Q252.0117,221.4453 251.875,220.8789 Q251.8164,220.4883 251.6016,220.2734 Q251.2109,219.8633 250.5078,219.6289 Q249.8047,219.375 249.1016,219.375 Q248.2227,219.375 247.4805,219.7266 Q246.7578,220.0781 246.1914,220.8594 Q245.625,221.6406 245.625,222.7148 L245.625,223.8672 Q245.625,225.1563 246.6797,226.0156 Q247.7344,226.875 249.6094,226.875 Q250.7227,226.875 251.5039,226.6211 Q251.9531,226.4844 252.4609,226.0352 Q252.793,225.7813 252.9688,225.7031 Q253.1445,225.625 253.3594,225.625 Q253.7695,225.625 254.0625,225.957 Q254.375,226.2695 254.375,226.7188 Q254.375,227.1484 253.9453,227.6563 Q253.3203,228.3984 252.3242,228.8086 Q251.0156,229.375 249.4141,229.375 Q247.5391,229.375 246.0352,228.6328 Q244.8242,228.0469 243.9648,226.7773 Q243.125,225.5078 243.125,224.0039 L243.125,222.6367 Q243.125,221.0742 243.8672,219.707 Q244.6289,218.3398 245.9375,217.6172 Q247.2656,216.875 248.75,216.875 Q249.6484,216.875 250.4297,217.1875 Q251.2109,217.5 251.875,218.125 Z "/><text fill="#000000" font-family="sans-serif" font-size="15" lengthAdjust="spacingAndGlyphs" textLength="97.5" x="266.875" y="228.6377">ContratosImpl</text><line style="stroke: #A80036; stroke-width: 1.875;" x1="231.875" x2="366.875" y1="242.5" y2="242.5"/><line style="stroke: #A80036; stroke-width: 1.875;" x1="231.875" x2="366.875" y1="252.5" y2="252.5"/><!--MD5=[1d6438b19b75334de94d74596f8416e5]
class Vehiculo--><rect fill="#FEFECE" filter="url(#f1jcz76hc9qyv9)" height="191.2988" id="Vehiculo" style="stroke: #A80036; stroke-width: 1.875;" width="148.75" x="225" y="411.875"/><ellipse cx="266.25" cy="436.9922" fill="#ADD1B2" rx="13.75" ry="13.75" style="stroke: #A80036; stroke-width: 1.25;"/><path d="M268.75,432.6172 Q269.0039,431.9922 269.2969,431.6797 Q269.5898,431.3672 269.9219,431.3672 Q270.5078,431.3672 270.8789,431.7188 Q271.25,432.0703 271.25,432.8906 L271.25,434.8438 Q271.25,435.6641 270.8984,436.0156 Q270.5469,436.3672 270,436.3672 Q269.5117,436.3672 269.1992,436.1523 Q268.8867,435.9375 268.75,435.3711 Q268.6914,434.9805 268.4766,434.7656 Q268.0859,434.3555 267.3828,434.1211 Q266.6797,433.8672 265.9766,433.8672 Q265.0977,433.8672 264.3555,434.2188 Q263.6328,434.5703 263.0664,435.3516 Q262.5,436.1328 262.5,437.207 L262.5,438.3594 Q262.5,439.6484 263.5547,440.5078 Q264.6094,441.3672 266.4844,441.3672 Q267.5977,441.3672 268.3789,441.1133 Q268.8281,440.9766 269.3359,440.5273 Q269.668,440.2734 269.8438,440.1953 Q270.0195,440.1172 270.2344,440.1172 Q270.6445,440.1172 270.9375,440.4492 Q271.25,440.7617 271.25,441.2109 Q271.25,441.6406 270.8203,442.1484 Q270.1953,442.8906 269.1992,443.3008 Q267.8906,443.8672 266.2891,443.8672 Q264.4141,443.8672 262.9102,443.125 Q261.6992,442.5391 260.8398,441.2695 Q260,440 260,438.4961 L260,437.1289 Q260,435.5664 260.7422,434.1992 Q261.5039,432.832 262.8125,432.1094 Q264.1406,431.3672 265.625,431.3672 Q266.5234,431.3672 267.3047,431.6797 Q268.0859,431.9922 268.75,432.6172 Z "/><text fill="#000000" font-family="sans-serif" font-size="15" font-style="italic" lengthAdjust="spacingAndGlyphs" textLength="55" x="290.625" y="433.6963">«Entity»</text><text fill="#000000" font-family="sans-serif" font-size="15" lengthAdjust="spacingAndGlyphs" textLength="58.75" x="288.75" y="452.5635">Vehiculo</text><line style="stroke: #A80036; stroke-width: 1.875;" x1="226.25" x2="372.5" y1="462.1094" y2="462.1094"/><rect fill="none" height="7.5" style="stroke: #C82930; stroke-width: 1.25;" width="7.5" x="235" y="472.1094"/><text fill="#000000" font-family="sans-serif" font-size="13.75" lengthAdjust="spacingAndGlyphs" textLength="38.75" x="250" y="481.3831">uid: int</text><rect fill="none" height="7.5" style="stroke: #C82930; stroke-width: 1.25;" width="7.5" x="235" y="489.4043"/><text fill="#000000" font-family="sans-serif" font-size="13.75" lengthAdjust="spacingAndGlyphs" textLength="86.25" x="250" y="498.678">patente: string</text><rect fill="none" height="7.5" style="stroke: #C82930; stroke-width: 1.25;" width="7.5" x="235" y="506.6992"/><text fill="#000000" font-family="sans-serif" font-size="13.75" lengthAdjust="spacingAndGlyphs" textLength="78.75" x="250" y="515.9729">marca: string</text><rect fill="none" height="7.5" style="stroke: #C82930; stroke-width: 1.25;" width="7.5" x="235" y="523.9941"/><text fill="#000000" font-family="sans-serif" font-size="13.75" lengthAdjust="spacingAndGlyphs" textLength="83.75" x="250" y="533.2678">modelo: string</text><rect fill="none" height="7.5" style="stroke: #C82930; stroke-width: 1.25;" width="7.5" x="235" y="541.2891"/><text fill="#000000" font-family="sans-serif" font-size="13.75" lengthAdjust="spacingAndGlyphs" textLength="46.25" x="250" y="550.5627">anio: int</text><rect fill="none" height="7.5" style="stroke: #C82930; stroke-width: 1.25;" width="7.5" x="235" y="558.584"/><text fill="#000000" font-family="sans-serif" font-size="13.75" lengthAdjust="spacingAndGlyphs" textLength="116.25" x="250" y="567.8577">observacion: string</text><rect fill="none" height="7.5" style="stroke: #C82930; stroke-width: 1.25;" width="7.5" x="235" y="575.8789"/><text fill="#000000" font-family="sans-serif" font-size="13.75" lengthAdjust="spacingAndGlyphs" textLength="116.25" x="250" y="585.1526">responsable: string</text><line style="stroke: #A80036; stroke-width: 1.875;" x1="226.25" x2="372.5" y1="593.1738" y2="593.1738"/><!--MD5=[529f2e4e1e8959b942d94bdcb3d43daf]
class Contratos--><rect fill="#FEFECE" filter="url(#f1jcz76hc9qyv9)" height="146.4746" id="Contratos" style="stroke: #A80036; stroke-width: 1.875;" width="280" x="418.125" y="434.375"/><ellipse cx="519.6875" cy="454.375" fill="#B4A7E5" rx="13.75" ry="13.75" style="stroke: #A80036; stroke-width: 1.25;"/><path d="M520.9375,450.625 L520.9375,458.125 L523.4375,458.125 L524.043,458.125 L524.6875,458.9063 L524.6875,459.375 L524.6875,459.8438 L524.043,460.625 L523.4375,460.625 L515.9375,460.625 L515.332,460.625 L514.6875,459.8438 L514.6875,459.375 L514.6875,458.9063 L515.332,458.125 L515.9375,458.125 L518.4375,458.125 L518.4375,450.625 L515.9375,450.625 L515.332,450.625 L514.6875,449.8438 L514.6875,449.375 L514.6875,448.9063 L515.332,448.125 L515.9375,448.125 L523.4375,448.125 L524.043,448.125 L524.6875,448.9063 L524.6875,449.375 L524.6875,449.8438 L524.043,450.625 L523.4375,450.625 L520.9375,450.625 Z "/><text fill="#000000" font-family="sans-serif" font-size="15" font-style="italic" lengthAdjust="spacingAndGlyphs" textLength="66.25" x="545.3125" y="460.5127">Contratos</text><line style="stroke: #A80036; stroke-width: 1.875;" x1="419.375" x2="696.875" y1="474.375" y2="474.375"/><line style="stroke: #A80036; stroke-width: 1.875;" x1="419.375" x2="696.875" y1="484.375" y2="484.375"/><text fill="#000000" font-family="sans-serif" font-size="13.75" lengthAdjust="spacingAndGlyphs" textLength="257.5" x="425.625" y="503.6487">crearPersona(persona: Persona): Persona</text><text fill="#000000" font-family="sans-serif" font-size="13.75" lengthAdjust="spacingAndGlyphs" textLength="265" x="425.625" y="520.9436">crearVehiculo(vehiculo: Vehiculo): Vehiculo</text><text fill="#000000" font-family="sans-serif" font-size="13.75" lengthAdjust="spacingAndGlyphs" textLength="221.25" x="425.625" y="538.2385">obtenerPersona(rut: string): Persona</text><text fill="#000000" font-family="sans-serif" font-size="13.75" lengthAdjust="spacingAndGlyphs" textLength="255" x="425.625" y="555.5334">obtenerVehiculo(patente: string): Vehiculo</text><text fill="#000000" font-family="sans-serif" font-size="13.75" lengthAdjust="spacingAndGlyphs" textLength="258.75" x="425.625" y="572.8284">ingresarVehiculo(patente: string): Vehiculo</text><!--MD5=[93eda055a1fdb4dab9fc4d9c53718769]
link Persona to Sexo--><path d="M94.375,655.025 C94.375,687.6 94.375,720.0875 94.375,745.9125 " fill="none" id="Persona-&gt;Sexo" style="stroke: #A80036; stroke-width: 1.25;"/><polygon fill="#A80036" points="94.375,752.325,99.375,741.075,94.375,746.075,89.375,741.075,94.375,752.325" style="stroke: #A80036; stroke-width: 1.25;"/><text fill="#000000" font-family="sans-serif" font-size="16.25" lengthAdjust="spacingAndGlyphs" textLength="26.25" x="95.625" y="710.6189">use</text><!--MD5=[50addf2cd7060491e5b1437a48355d4a]
link Program to ContratosImpl--><path d="M299.375,105.425 C299.375,133.95 299.375,169.825 299.375,195.9625 " fill="none" id="Program-&gt;ContratosImpl" style="stroke: #A80036; stroke-width: 1.25;"/><polygon fill="#A80036" points="299.375,202.4,304.375,191.15,299.375,196.15,294.375,191.15,299.375,202.4" style="stroke: #A80036; stroke-width: 1.25;"/><text fill="#000000" font-family="sans-serif" font-size="16.25" lengthAdjust="spacingAndGlyphs" textLength="26.25" x="300.625" y="160.6189">use</text><!--MD5=[bb21594f98cc958ec311833388c9463e]
reverse link ContratosImpl to Contratos--><path d="M344.525,281.3 C384.5625,323.475 443.6375,385.675 489.5125,434 " fill="none" id="ContratosImpl&lt;-Contratos" style="stroke: #A80036; stroke-width: 1.25; stroke-dasharray: 7.0,7.0;"/><polygon fill="none" points="337.9375,287.0625,327.0625,262.9125,350.625,275.0125,337.9375,287.0625" style="stroke: #A80036; stroke-width: 1.25;"/><text fill="#000000" font-family="sans-serif" font-size="16.25" lengthAdjust="spacingAndGlyphs" textLength="75" x="384.375" y="318.1189">implement</text><!--MD5=[16a0b4f97deef648445e24671a5267e7]
link ContratosImpl to Vehiculo--><path d="M299.375,262.9125 C299.375,296.6875 299.375,354.1625 299.375,404.775 " fill="none" id="ContratosImpl-&gt;Vehiculo" style="stroke: #A80036; stroke-width: 1.25;"/><polygon fill="#A80036" points="299.375,411.55,304.375,400.3,299.375,405.3,294.375,400.3,299.375,411.55" style="stroke: #A80036; stroke-width: 1.25;"/><text fill="#000000" font-family="sans-serif" font-size="16.25" lengthAdjust="spacingAndGlyphs" textLength="26.25" x="300.625" y="318.1189">use</text><!--MD5=[21993a2f01572d80810d32a9bbc66808]
link ContratosImpl to Persona--><path d="M277.1,262.7625 C257.525,288.3 228.325,326.5375 203.125,360 C197.2875,367.75 191.3,375.725 185.2625,383.7875 " fill="none" id="ContratosImpl-&gt;Persona" style="stroke: #A80036; stroke-width: 1.25;"/><polygon fill="#A80036" points="181.5125,388.8125,192.2625,382.8125,185.2625,383.8125,184.2625,376.8125,181.5125,388.8125" style="stroke: #A80036; stroke-width: 1.25;"/><text fill="#000000" font-family="sans-serif" font-size="16.25" lengthAdjust="spacingAndGlyphs" textLength="26.25" x="249.375" y="318.1189">use</text><!--MD5=[cc1564ddf2061faaad282ea42ca25ba0]
@startuml

    class Persona <<Entity>> {
        - uid: int
        - webId: int
        - nombre: string
        - rut: string
        - sexo: Sexo
        - cargo: string
        - unidad: string
        - email: string
        - telefono: string
        - oficina: string
        - direccionTrabajo: string
        - direccionCasa: string
        - comuna: string
    }

    enum Sexo {
        VAR
        MUJ
    }
    Persona - -> Sexo: use

    class Program {
        main()
        CreateHostBuilder(String[] args): IHostBuilder
    }

    class ContratosImpl{        
    }
    Program - -> ContratosImpl: use    

    class Vehiculo <<Entity>> {
        - uid: int
        - patente: string
        - marca: string
        - modelo: string
        - anio: int
        - observacion: string
        - responsable: string
    }

    interface Contratos{
        crearPersona(persona: Persona): Persona
        crearVehiculo(vehiculo: Vehiculo): Vehiculo
        obtenerPersona(rut: string): Persona
        obtenerVehiculo(patente: string): Vehiculo
        ingresarVehiculo(patente: string): Vehiculo
    }
    ContratosImpl <|.. Contratos: implement
    ContratosImpl - -> Vehiculo: use
    ContratosImpl - -> Persona: use

    

@enduml

PlantUML version 1.2020.09(Sun May 10 06:51:06 CLT 2020)
(GPL source distribution)
Java Runtime: OpenJDK Runtime Environment
JVM: OpenJDK 64-Bit Server VM
Java Version: 11.0.7+10-b765.53
Operating System: Windows 10
Default Encoding: Cp1252
Language: es
Country: ES
--></g></svg>