<?xml version="1.0" encoding="UTF-8" standalone="no"?><svg xmlns="http://www.w3.org/2000/svg" xmlns:xlink="http://www.w3.org/1999/xlink" contentScriptType="application/ecmascript" contentStyleType="text/css" height="735px" preserveAspectRatio="none" style="width:871px;height:735px;" version="1.1" viewBox="0 0 871 735" width="871.5px" zoomAndPan="magnify"><defs><filter height="300%" id="f192io2r4vuu3t" width="300%" x="-1" y="-1"><feGaussianBlur result="blurOut" stdDeviation="1.5"/><feColorMatrix in="blurOut" result="blurOut2" type="matrix" values="0 0 0 0 0 0 0 0 0 0 0 0 0 0 0 0 0 0 .4 0"/><feOffset dx="3.0" dy="3.0" in="blurOut2" result="blurOut3"/><feBlend in="SourceGraphic" in2="blurOut3" mode="normal"/></filter></defs><g><!--MD5=[5b00cfdbf17d170b26a402f3d977e085]
class Scraper--><rect fill="#FEFECE" filter="url(#f192io2r4vuu3t)" height="56.7539" id="Scraper" style="stroke: #A80036; stroke-width: 1.125;" width="108" x="373.875" y="670.5"/><ellipse cx="408.5625" cy="682.5" fill="#ADD1B2" rx="8.25" ry="8.25" style="stroke: #A80036; stroke-width: 0.75;"/><path d="M410.0625,679.875 Q410.2148,679.5 410.3906,679.3125 Q410.5664,679.125 410.7656,679.125 Q411.1172,679.125 411.3398,679.3359 Q411.5625,679.5469 411.5625,680.0391 L411.5625,681.2109 Q411.5625,681.7031 411.3516,681.9141 Q411.1406,682.125 410.8125,682.125 Q410.5195,682.125 410.332,681.9961 Q410.1445,681.8672 410.0625,681.5273 Q410.0273,681.293 409.8984,681.1641 Q409.6641,680.918 409.2422,680.7773 Q408.8203,680.625 408.3984,680.625 Q407.8711,680.625 407.4258,680.8359 Q406.9922,681.0469 406.6523,681.5156 Q406.3125,681.9844 406.3125,682.6289 L406.3125,683.3203 Q406.3125,684.0938 406.9453,684.6094 Q407.5781,685.125 408.7031,685.125 Q409.3711,685.125 409.8398,684.9727 Q410.1094,684.8906 410.4141,684.6211 Q410.6133,684.4688 410.7188,684.4219 Q410.8242,684.375 410.9531,684.375 Q411.1992,684.375 411.375,684.5742 Q411.5625,684.7617 411.5625,685.0313 Q411.5625,685.2891 411.3047,685.5938 Q410.9297,686.0391 410.332,686.2852 Q409.5469,686.625 408.5859,686.625 Q407.4609,686.625 406.5586,686.1797 Q405.832,685.8281 405.3164,685.0664 Q404.8125,684.3047 404.8125,683.4023 L404.8125,682.582 Q404.8125,681.6445 405.2578,680.8242 Q405.7148,680.0039 406.5,679.5703 Q407.2969,679.125 408.1875,679.125 Q408.7266,679.125 409.1953,679.3125 Q409.6641,679.5 410.0625,679.875 Z "/><text fill="#000000" font-family="sans-serif" font-size="9" lengthAdjust="spacingAndGlyphs" textLength="32.25" x="423.9375" y="686.1826">Scraper</text><line style="stroke: #A80036; stroke-width: 1.125;" x1="374.625" x2="481.125" y1="694.5" y2="694.5"/><rect fill="none" height="4.5" style="stroke: #C82930; stroke-width: 0.75;" width="4.5" x="379.875" y="700.5"/><text fill="#000000" font-family="sans-serif" font-size="8.25" lengthAdjust="spacingAndGlyphs" text-decoration="underline" textLength="40.5" x="388.875" y="706.0642">log: Logger</text><line style="stroke: #A80036; stroke-width: 1.125;" x1="374.625" x2="481.125" y1="710.877" y2="710.877"/><ellipse cx="382.125" cy="719.127" fill="#84BE84" rx="2.25" ry="2.25" style="stroke: #038048; stroke-width: 0.75;"/><text fill="#000000" font-family="sans-serif" font-size="8.25" lengthAdjust="spacingAndGlyphs" text-decoration="underline" textLength="88.5" x="388.875" y="722.4412">main(args: String[]): void</text><!--MD5=[3f920e0f940f9b16954c93d2cff39bea]
class DbInteraction--><rect fill="#FEFECE" filter="url(#f192io2r4vuu3t)" height="119.0156" id="DbInteraction" style="stroke: #A80036; stroke-width: 1.125;" width="623.25" x="4.5" y="128.25"/><ellipse cx="285.5625" cy="140.25" fill="#ADD1B2" rx="8.25" ry="8.25" style="stroke: #A80036; stroke-width: 0.75;"/><path d="M287.0625,137.625 Q287.2148,137.25 287.3906,137.0625 Q287.5664,136.875 287.7656,136.875 Q288.1172,136.875 288.3398,137.0859 Q288.5625,137.2969 288.5625,137.7891 L288.5625,138.9609 Q288.5625,139.4531 288.3516,139.6641 Q288.1406,139.875 287.8125,139.875 Q287.5195,139.875 287.332,139.7461 Q287.1445,139.6172 287.0625,139.2773 Q287.0273,139.043 286.8984,138.9141 Q286.6641,138.668 286.2422,138.5273 Q285.8203,138.375 285.3984,138.375 Q284.8711,138.375 284.4258,138.5859 Q283.9922,138.7969 283.6523,139.2656 Q283.3125,139.7344 283.3125,140.3789 L283.3125,141.0703 Q283.3125,141.8438 283.9453,142.3594 Q284.5781,142.875 285.7031,142.875 Q286.3711,142.875 286.8398,142.7227 Q287.1094,142.6406 287.4141,142.3711 Q287.6133,142.2188 287.7188,142.1719 Q287.8242,142.125 287.9531,142.125 Q288.1992,142.125 288.375,142.3242 Q288.5625,142.5117 288.5625,142.7813 Q288.5625,143.0391 288.3047,143.3438 Q287.9297,143.7891 287.332,144.0352 Q286.5469,144.375 285.5859,144.375 Q284.4609,144.375 283.5586,143.9297 Q282.832,143.5781 282.3164,142.8164 Q281.8125,142.0547 281.8125,141.1523 L281.8125,140.332 Q281.8125,139.3945 282.2578,138.5742 Q282.7148,137.7539 283.5,137.3203 Q284.2969,136.875 285.1875,136.875 Q285.7266,136.875 286.1953,137.0625 Q286.6641,137.25 287.0625,137.625 Z "/><text fill="#000000" font-family="sans-serif" font-size="9" lengthAdjust="spacingAndGlyphs" textLength="54.75" x="300.9375" y="143.9326">DbInteraction</text><line style="stroke: #A80036; stroke-width: 1.125;" x1="5.25" x2="627" y1="152.25" y2="152.25"/><rect fill="none" height="4.5" style="stroke: #C82930; stroke-width: 0.75;" width="4.5" x="10.5" y="158.25"/><text fill="#000000" font-family="sans-serif" font-size="8.25" lengthAdjust="spacingAndGlyphs" textLength="40.5" x="19.5" y="163.8142">log: Logger</text><rect fill="none" height="4.5" style="stroke: #C82930; stroke-width: 0.75;" width="4.5" x="10.5" y="168.627"/><text fill="#000000" font-family="sans-serif" font-size="8.25" lengthAdjust="spacingAndGlyphs" textLength="137.25" x="19.5" y="174.1912">connectionSource: ConnectionSource</text><rect fill="none" height="4.5" style="stroke: #C82930; stroke-width: 0.75;" width="4.5" x="10.5" y="179.0039"/><text fill="#000000" font-family="sans-serif" font-size="8.25" lengthAdjust="spacingAndGlyphs" textLength="127.5" x="19.5" y="184.5681">personaDao: Dao &lt;Persona,String&gt;</text><line style="stroke: #A80036; stroke-width: 1.125;" x1="5.25" x2="627" y1="189.3809" y2="189.3809"/><ellipse cx="12.75" cy="197.6309" fill="#84BE84" rx="2.25" ry="2.25" style="stroke: #038048; stroke-width: 0.75;"/><text fill="#000000" font-family="sans-serif" font-size="8.25" lengthAdjust="spacingAndGlyphs" textLength="53.25" x="19.5" y="200.9451">DbInteraction()</text><ellipse cx="12.75" cy="208.0078" fill="#84BE84" rx="2.25" ry="2.25" style="stroke: #038048; stroke-width: 0.75;"/><text fill="#000000" font-family="sans-serif" font-size="8.25" lengthAdjust="spacingAndGlyphs" textLength="603.75" x="19.5" y="211.322">formatToPersona(webId: int, nombre: String, rut: String, sexo: String, cargo: String, unidad: String, email: String, telefono: String, oficina: String, direccionTrabajo: String,</text><text fill="#000000" font-family="sans-serif" font-size="8.25" lengthAdjust="spacingAndGlyphs" textLength="171.75" x="19.5" y="221.699">direccionCasa: String, comuna: String): boolean</text><ellipse cx="12.75" cy="228.7617" fill="#84BE84" rx="2.25" ry="2.25" style="stroke: #038048; stroke-width: 0.75;"/><text fill="#000000" font-family="sans-serif" font-size="8.25" lengthAdjust="spacingAndGlyphs" textLength="112.5" x="19.5" y="232.0759">emptyToNull(var: String): String</text><ellipse cx="12.75" cy="239.1387" fill="#84BE84" rx="2.25" ry="2.25" style="stroke: #038048; stroke-width: 0.75;"/><text fill="#000000" font-family="sans-serif" font-size="8.25" lengthAdjust="spacingAndGlyphs" textLength="95.25" x="19.5" y="242.4529">closeDbConnection(): void</text><!--MD5=[8f63dadf5c643e74a34e53c8f0a15d23]
class Persona--><rect fill="#FEFECE" filter="url(#f192io2r4vuu3t)" height="332.6953" id="Persona" style="stroke: #A80036; stroke-width: 1.125;" width="442.5" x="297.375" y="292.5"/><ellipse cx="497.8125" cy="307.5703" fill="#ADD1B2" rx="8.25" ry="8.25" style="stroke: #A80036; stroke-width: 0.75;"/><path d="M499.3125,304.9453 Q499.4648,304.5703 499.6406,304.3828 Q499.8164,304.1953 500.0156,304.1953 Q500.3672,304.1953 500.5898,304.4063 Q500.8125,304.6172 500.8125,305.1094 L500.8125,306.2813 Q500.8125,306.7734 500.6016,306.9844 Q500.3906,307.1953 500.0625,307.1953 Q499.7695,307.1953 499.582,307.0664 Q499.3945,306.9375 499.3125,306.5977 Q499.2773,306.3633 499.1484,306.2344 Q498.9141,305.9883 498.4922,305.8477 Q498.0703,305.6953 497.6484,305.6953 Q497.1211,305.6953 496.6758,305.9063 Q496.2422,306.1172 495.9023,306.5859 Q495.5625,307.0547 495.5625,307.6992 L495.5625,308.3906 Q495.5625,309.1641 496.1953,309.6797 Q496.8281,310.1953 497.9531,310.1953 Q498.6211,310.1953 499.0898,310.043 Q499.3594,309.9609 499.6641,309.6914 Q499.8633,309.5391 499.9688,309.4922 Q500.0742,309.4453 500.2031,309.4453 Q500.4492,309.4453 500.625,309.6445 Q500.8125,309.832 500.8125,310.1016 Q500.8125,310.3594 500.5547,310.6641 Q500.1797,311.1094 499.582,311.3555 Q498.7969,311.6953 497.8359,311.6953 Q496.7109,311.6953 495.8086,311.25 Q495.082,310.8984 494.5664,310.1367 Q494.0625,309.375 494.0625,308.4727 L494.0625,307.6523 Q494.0625,306.7148 494.5078,305.8945 Q494.9648,305.0742 495.75,304.6406 Q496.5469,304.1953 497.4375,304.1953 Q497.9766,304.1953 498.4453,304.3828 Q498.9141,304.5703 499.3125,304.9453 Z "/><text fill="#000000" font-family="sans-serif" font-size="9" font-style="italic" lengthAdjust="spacingAndGlyphs" textLength="33" x="514.3125" y="305.5928">«Entity»</text><text fill="#000000" font-family="sans-serif" font-size="9" lengthAdjust="spacingAndGlyphs" textLength="35.25" x="513.1875" y="316.9131">Persona</text><line style="stroke: #A80036; stroke-width: 1.125;" x1="298.125" x2="739.125" y1="322.6406" y2="322.6406"/><rect fill="none" height="4.5" style="stroke: #C82930; stroke-width: 0.75;" width="4.5" x="303.375" y="328.6406"/><text fill="#000000" font-family="sans-serif" font-size="8.25" lengthAdjust="spacingAndGlyphs" textLength="18.75" x="312.375" y="334.2048">id: int</text><rect fill="none" height="4.5" style="stroke: #C82930; stroke-width: 0.75;" width="4.5" x="303.375" y="339.0176"/><text fill="#000000" font-family="sans-serif" font-size="8.25" lengthAdjust="spacingAndGlyphs" textLength="35.25" x="312.375" y="344.5818">webId: int</text><rect fill="none" height="4.5" style="stroke: #C82930; stroke-width: 0.75;" width="4.5" x="303.375" y="349.3945"/><text fill="#000000" font-family="sans-serif" font-size="8.25" lengthAdjust="spacingAndGlyphs" textLength="52.5" x="312.375" y="354.9587">nombre: String</text><rect fill="none" height="4.5" style="stroke: #C82930; stroke-width: 0.75;" width="4.5" x="303.375" y="359.7715"/><text fill="#000000" font-family="sans-serif" font-size="8.25" lengthAdjust="spacingAndGlyphs" textLength="35.25" x="312.375" y="365.3357">rut: String</text><rect fill="none" height="4.5" style="stroke: #C82930; stroke-width: 0.75;" width="4.5" x="303.375" y="370.1484"/><text fill="#000000" font-family="sans-serif" font-size="8.25" lengthAdjust="spacingAndGlyphs" textLength="41.25" x="312.375" y="375.7126">sexo: Sexo</text><rect fill="none" height="4.5" style="stroke: #C82930; stroke-width: 0.75;" width="4.5" x="303.375" y="380.5254"/><text fill="#000000" font-family="sans-serif" font-size="8.25" lengthAdjust="spacingAndGlyphs" textLength="46.5" x="312.375" y="386.0896">cargo: String</text><rect fill="none" height="4.5" style="stroke: #C82930; stroke-width: 0.75;" width="4.5" x="303.375" y="390.9023"/><text fill="#000000" font-family="sans-serif" font-size="8.25" lengthAdjust="spacingAndGlyphs" textLength="49.5" x="312.375" y="396.4666">unidad: String</text><rect fill="none" height="4.5" style="stroke: #C82930; stroke-width: 0.75;" width="4.5" x="303.375" y="401.2793"/><text fill="#000000" font-family="sans-serif" font-size="8.25" lengthAdjust="spacingAndGlyphs" textLength="43.5" x="312.375" y="406.8435">email: String</text><rect fill="none" height="4.5" style="stroke: #C82930; stroke-width: 0.75;" width="4.5" x="303.375" y="411.6563"/><text fill="#000000" font-family="sans-serif" font-size="8.25" lengthAdjust="spacingAndGlyphs" textLength="54.75" x="312.375" y="417.2205">telefono: String</text><rect fill="none" height="4.5" style="stroke: #C82930; stroke-width: 0.75;" width="4.5" x="303.375" y="422.0332"/><text fill="#000000" font-family="sans-serif" font-size="8.25" lengthAdjust="spacingAndGlyphs" textLength="49.5" x="312.375" y="427.5974">oficina: String</text><rect fill="none" height="4.5" style="stroke: #C82930; stroke-width: 0.75;" width="4.5" x="303.375" y="432.4102"/><text fill="#000000" font-family="sans-serif" font-size="8.25" lengthAdjust="spacingAndGlyphs" textLength="85.5" x="312.375" y="437.9744">direccionTrabajo: String</text><rect fill="none" height="4.5" style="stroke: #C82930; stroke-width: 0.75;" width="4.5" x="303.375" y="442.7871"/><text fill="#000000" font-family="sans-serif" font-size="8.25" lengthAdjust="spacingAndGlyphs" textLength="77.25" x="312.375" y="448.3513">direccionCasa: String</text><rect fill="none" height="4.5" style="stroke: #C82930; stroke-width: 0.75;" width="4.5" x="303.375" y="453.1641"/><text fill="#000000" font-family="sans-serif" font-size="8.25" lengthAdjust="spacingAndGlyphs" textLength="54" x="312.375" y="458.7283">comuna: String</text><line style="stroke: #A80036; stroke-width: 1.125;" x1="298.125" x2="739.125" y1="463.541" y2="463.541"/><ellipse cx="305.625" cy="471.791" fill="#84BE84" rx="2.25" ry="2.25" style="stroke: #038048; stroke-width: 0.75;"/><text fill="#000000" font-family="sans-serif" font-size="8.25" lengthAdjust="spacingAndGlyphs" textLength="423" x="312.375" y="475.1052">Persona(webId: int, nombre: String,rut: String, sexo: Sexo, cargo: String, unidad: String, email: String, telefono: String,</text><text fill="#000000" font-family="sans-serif" font-size="8.25" lengthAdjust="spacingAndGlyphs" textLength="302.25" x="312.375" y="485.4822">oficina: String, direccionTrabajo: String, direccionCasa: String, comuna: String): void</text><ellipse cx="305.625" cy="492.5449" fill="#84BE84" rx="2.25" ry="2.25" style="stroke: #038048; stroke-width: 0.75;"/><text fill="#000000" font-family="sans-serif" font-size="8.25" lengthAdjust="spacingAndGlyphs" textLength="36" x="312.375" y="495.8591">getId(): int</text><ellipse cx="305.625" cy="502.9219" fill="#84BE84" rx="2.25" ry="2.25" style="stroke: #038048; stroke-width: 0.75;"/><text fill="#000000" font-family="sans-serif" font-size="8.25" lengthAdjust="spacingAndGlyphs" textLength="52.5" x="312.375" y="506.2361">getWebId(): int</text><ellipse cx="305.625" cy="513.2988" fill="#84BE84" rx="2.25" ry="2.25" style="stroke: #038048; stroke-width: 0.75;"/><text fill="#000000" font-family="sans-serif" font-size="8.25" lengthAdjust="spacingAndGlyphs" textLength="70.5" x="312.375" y="516.613">getNombre(): String</text><ellipse cx="305.625" cy="523.6758" fill="#84BE84" rx="2.25" ry="2.25" style="stroke: #038048; stroke-width: 0.75;"/><text fill="#000000" font-family="sans-serif" font-size="8.25" lengthAdjust="spacingAndGlyphs" textLength="54.75" x="312.375" y="526.99">getRut(): String</text><ellipse cx="305.625" cy="534.0527" fill="#84BE84" rx="2.25" ry="2.25" style="stroke: #038048; stroke-width: 0.75;"/><text fill="#000000" font-family="sans-serif" font-size="8.25" lengthAdjust="spacingAndGlyphs" textLength="59.25" x="312.375" y="537.3669">getSexo(): Sexo</text><ellipse cx="305.625" cy="544.4297" fill="#84BE84" rx="2.25" ry="2.25" style="stroke: #038048; stroke-width: 0.75;"/><text fill="#000000" font-family="sans-serif" font-size="8.25" lengthAdjust="spacingAndGlyphs" textLength="64.5" x="312.375" y="547.7439">getCargo(): String</text><ellipse cx="305.625" cy="554.8066" fill="#84BE84" rx="2.25" ry="2.25" style="stroke: #038048; stroke-width: 0.75;"/><text fill="#000000" font-family="sans-serif" font-size="8.25" lengthAdjust="spacingAndGlyphs" textLength="67.5" x="312.375" y="558.1208">getUnidad(): String</text><ellipse cx="305.625" cy="565.1836" fill="#84BE84" rx="2.25" ry="2.25" style="stroke: #038048; stroke-width: 0.75;"/><text fill="#000000" font-family="sans-serif" font-size="8.25" lengthAdjust="spacingAndGlyphs" textLength="60.75" x="312.375" y="568.4978">getEmail(): String</text><ellipse cx="305.625" cy="575.5605" fill="#84BE84" rx="2.25" ry="2.25" style="stroke: #038048; stroke-width: 0.75;"/><text fill="#000000" font-family="sans-serif" font-size="8.25" lengthAdjust="spacingAndGlyphs" textLength="74.25" x="312.375" y="578.8748">getTelefono(): String</text><ellipse cx="305.625" cy="585.9375" fill="#84BE84" rx="2.25" ry="2.25" style="stroke: #038048; stroke-width: 0.75;"/><text fill="#000000" font-family="sans-serif" font-size="8.25" lengthAdjust="spacingAndGlyphs" textLength="68.25" x="312.375" y="589.2517">getOficina(): String</text><ellipse cx="305.625" cy="596.3145" fill="#84BE84" rx="2.25" ry="2.25" style="stroke: #038048; stroke-width: 0.75;"/><text fill="#000000" font-family="sans-serif" font-size="8.25" lengthAdjust="spacingAndGlyphs" textLength="103.5" x="312.375" y="599.6287">getDireccionTrabajo(): String</text><ellipse cx="305.625" cy="606.6914" fill="#84BE84" rx="2.25" ry="2.25" style="stroke: #038048; stroke-width: 0.75;"/><text fill="#000000" font-family="sans-serif" font-size="8.25" lengthAdjust="spacingAndGlyphs" textLength="95.25" x="312.375" y="610.0056">getDireccionCasa(): String</text><ellipse cx="305.625" cy="617.0684" fill="#84BE84" rx="2.25" ry="2.25" style="stroke: #038048; stroke-width: 0.75;"/><text fill="#000000" font-family="sans-serif" font-size="8.25" lengthAdjust="spacingAndGlyphs" textLength="72" x="312.375" y="620.3826">getComuna(): String</text><!--MD5=[2bd084d4f9b8ff009b6d8ba013c0f313]
class Sexo--><rect fill="#FEFECE" filter="url(#f192io2r4vuu3t)" height="56.7539" id="Sexo" style="stroke: #A80036; stroke-width: 1.125;" width="44.25" x="587.25" y="670.5"/><ellipse cx="598.5" cy="682.5" fill="#EB937F" rx="8.25" ry="8.25" style="stroke: #A80036; stroke-width: 0.75;"/><path d="M597.375,683.25 L597.375,684.75 L600.375,684.75 L600.375,684 L600.375,683.6367 L600.8438,683.25 L601.125,683.25 L601.4063,683.25 L601.875,683.6367 L601.875,684 L601.875,686.25 L595.875,686.25 L595.5117,686.25 L595.125,685.7813 L595.125,685.5 L595.125,685.2188 L595.5117,684.75 L595.875,684.75 L595.875,684.75 L595.875,680.25 L595.875,680.25 L595.5117,680.25 L595.125,679.7813 L595.125,679.5 L595.125,679.2188 L595.5117,678.75 L595.875,678.75 L601.875,678.75 L601.875,681 L601.875,681.3633 L601.4063,681.75 L601.125,681.75 L600.8438,681.75 L600.375,681.3633 L600.375,681 L600.375,680.25 L597.375,680.25 L597.375,681.75 L598.125,681.75 L598.125,681.3867 L598.125,681.3867 L598.5938,681 L598.875,681 L599.1563,681 L599.625,681.3867 L599.625,681.75 L599.625,683.25 L599.625,683.6133 L599.1563,684 L599.1563,684 L598.875,684 L598.5938,684 L598.125,683.6133 L598.125,683.6133 L598.125,683.25 L597.375,683.25 Z "/><text fill="#000000" font-family="sans-serif" font-size="9" lengthAdjust="spacingAndGlyphs" textLength="20.25" x="609" y="686.1826">Sexo</text><line style="stroke: #A80036; stroke-width: 1.125;" x1="588" x2="630.75" y1="694.5" y2="694.5"/><text fill="#000000" font-family="sans-serif" font-size="8.25" lengthAdjust="spacingAndGlyphs" textLength="19.5" x="591.75" y="706.0642">VAR,</text><text fill="#000000" font-family="sans-serif" font-size="8.25" lengthAdjust="spacingAndGlyphs" textLength="15" x="591.75" y="716.4412">MUJ</text><line style="stroke: #A80036; stroke-width: 1.125;" x1="588" x2="630.75" y1="721.2539" y2="721.2539"/><!--MD5=[ca0b3859132997f66cb759fcf5e4dc43]
class Uploader--><rect fill="#FEFECE" filter="url(#f192io2r4vuu3t)" height="77.5078" id="Uploader" style="stroke: #A80036; stroke-width: 1.125;" width="243" x="546.375" y="6"/><ellipse cx="645.5625" cy="18" fill="#ADD1B2" rx="8.25" ry="8.25" style="stroke: #A80036; stroke-width: 0.75;"/><path d="M647.0625,15.375 Q647.2148,15 647.3906,14.8125 Q647.5664,14.625 647.7656,14.625 Q648.1172,14.625 648.3398,14.8359 Q648.5625,15.0469 648.5625,15.5391 L648.5625,16.7109 Q648.5625,17.2031 648.3516,17.4141 Q648.1406,17.625 647.8125,17.625 Q647.5195,17.625 647.332,17.4961 Q647.1445,17.3672 647.0625,17.0273 Q647.0273,16.793 646.8984,16.6641 Q646.6641,16.418 646.2422,16.2773 Q645.8203,16.125 645.3984,16.125 Q644.8711,16.125 644.4258,16.3359 Q643.9922,16.5469 643.6523,17.0156 Q643.3125,17.4844 643.3125,18.1289 L643.3125,18.8203 Q643.3125,19.5938 643.9453,20.1094 Q644.5781,20.625 645.7031,20.625 Q646.3711,20.625 646.8398,20.4727 Q647.1094,20.3906 647.4141,20.1211 Q647.6133,19.9688 647.7188,19.9219 Q647.8242,19.875 647.9531,19.875 Q648.1992,19.875 648.375,20.0742 Q648.5625,20.2617 648.5625,20.5313 Q648.5625,20.7891 648.3047,21.0938 Q647.9297,21.5391 647.332,21.7852 Q646.5469,22.125 645.5859,22.125 Q644.4609,22.125 643.5586,21.6797 Q642.832,21.3281 642.3164,20.5664 Q641.8125,19.8047 641.8125,18.9023 L641.8125,18.082 Q641.8125,17.1445 642.2578,16.3242 Q642.7148,15.5039 643.5,15.0703 Q644.2969,14.625 645.1875,14.625 Q645.7266,14.625 646.1953,14.8125 Q646.6641,15 647.0625,15.375 Z "/><text fill="#000000" font-family="sans-serif" font-size="9" lengthAdjust="spacingAndGlyphs" textLength="38.25" x="660.9375" y="21.6826">Uploader</text><line style="stroke: #A80036; stroke-width: 1.125;" x1="547.125" x2="788.625" y1="30" y2="30"/><rect fill="none" height="4.5" style="stroke: #C82930; stroke-width: 0.75;" width="4.5" x="552.375" y="36"/><text fill="#000000" font-family="sans-serif" font-size="8.25" lengthAdjust="spacingAndGlyphs" text-decoration="underline" textLength="40.5" x="561.375" y="41.5642">log: Logger</text><line style="stroke: #A80036; stroke-width: 1.125;" x1="547.125" x2="788.625" y1="46.377" y2="46.377"/><ellipse cx="554.625" cy="54.627" fill="#84BE84" rx="2.25" ry="2.25" style="stroke: #038048; stroke-width: 0.75;"/><text fill="#000000" font-family="sans-serif" font-size="8.25" lengthAdjust="spacingAndGlyphs" text-decoration="underline" textLength="88.5" x="561.375" y="57.9412">main(args: String[]): void</text><ellipse cx="554.625" cy="65.0039" fill="#84BE84" rx="2.25" ry="2.25" style="stroke: #038048; stroke-width: 0.75;"/><text fill="#000000" font-family="sans-serif" font-size="8.25" lengthAdjust="spacingAndGlyphs" text-decoration="underline" textLength="182.25" x="561.375" y="68.3181">getInitializationData(args: String[]): InitializationData</text><ellipse cx="554.625" cy="75.3809" fill="#84BE84" rx="2.25" ry="2.25" style="stroke: #038048; stroke-width: 0.75;"/><text fill="#000000" font-family="sans-serif" font-size="8.25" lengthAdjust="spacingAndGlyphs" text-decoration="underline" textLength="223.5" x="561.375" y="78.6951">parseEnum(sexo: model.Persona.Sexo): zerocice.model.Sexo</text><!--MD5=[93eda055a1fdb4dab9fc4d9c53718769]
link Persona to Sexo--><path d="M581.775,625.7175 C587.6175,641.0775 592.995,655.2075 597.42,666.8325 " fill="none" id="Persona-&gt;Sexo" style="stroke: #A80036; stroke-width: 0.75;"/><polygon fill="#A80036" points="598.7625,670.365,599.1546,662.9888,597.4235,666.8622,593.5501,665.1312,598.7625,670.365" style="stroke: #A80036; stroke-width: 0.75;"/><!--MD5=[053747b4d2cfba24c8487222406f3e10]
reverse link Persona to Scraper--><path d="M454.1175,629.2725 C448.2075,644.8275 442.815,658.98 438.4875,670.365 " fill="none" id="Persona&lt;-Scraper" style="stroke: #A80036; stroke-width: 0.75;"/><polygon fill="#A80036" points="455.475,625.7175,450.2766,630.9652,454.1454,629.2239,455.8868,633.0927,455.475,625.7175" style="stroke: #A80036; stroke-width: 0.75;"/><!--MD5=[609ac5b89af0016fd5831c89f65e4291]
reverse link DbInteraction to Scraper--><path d="M290.115,251.535 C257.325,341.625 213.3225,509.3175 284.625,625.5 C303.96,657 341.655,675.3825 373.5225,685.785 " fill="none" id="DbInteraction&lt;-Scraper" style="stroke: #A80036; stroke-width: 0.75;"/><polygon fill="#A80036" points="291.465,247.83,286.3337,253.1434,290.18,251.353,291.9704,255.1993,291.465,247.83" style="stroke: #A80036; stroke-width: 0.75;"/><!--MD5=[448cdd4d23e122caa9260e1a4c78b569]
link DbInteraction to Persona--><path d="M360.5625,247.7925 C370.0875,260.475 380.6025,274.4775 391.5525,289.0575 " fill="none" id="DbInteraction-&gt;Persona" style="stroke: #A80036; stroke-width: 0.75;"/><polygon fill="#A80036" points="394.0425,292.3725,392.3761,285.1763,391.7857,289.3776,387.5843,288.7872,394.0425,292.3725" style="stroke: #A80036; stroke-width: 0.75;"/><!--MD5=[8dd78ca0d09453d194608444e66fd57f]
link Uploader to DbInteraction--><path d="M573.84,83.265 C540.72,96.615 502.62,111.975 466.0425,126.7125 " fill="none" id="Uploader-&gt;DbInteraction" style="stroke: #A80036; stroke-width: 0.75;"/><polygon fill="#A80036" points="462.51,128.1375,469.8921,128.3965,465.9881,126.7356,467.649,122.8315,462.51,128.1375" style="stroke: #A80036; stroke-width: 0.75;"/><!--MD5=[4a9f6de932476041d08c2f12b6c353ad]
link Uploader to Persona--><path d="M667.2075,83.2575 C665.4825,124.6425 659.7,192.39 640.875,247.5 C636.18,261.2475 630.54,275.0925 624.3075,288.7725 " fill="none" id="Uploader-&gt;Persona" style="stroke: #A80036; stroke-width: 0.75;"/><polygon fill="#A80036" points="622.7025,292.245,628.2453,287.3624,624.2672,288.837,622.7925,284.8589,622.7025,292.245" style="stroke: #A80036; stroke-width: 0.75;"/><!--MD5=[2271f9ef3466d95b8ba41c1fb92c015a]
link Uploader to Sexo--><path d="M689.34,83.3925 C741.525,181.3725 862.995,447.3075 753.375,625.5 C727.5825,667.425 669.3525,686.07 635.3625,693.645 " fill="none" id="Uploader-&gt;Sexo" style="stroke: #A80036; stroke-width: 0.75;"/><polygon fill="#A80036" points="631.545,694.47,638.7768,695.9747,635.2102,693.6769,637.5079,690.1104,631.545,694.47" style="stroke: #A80036; stroke-width: 0.75;"/><!--MD5=[6ec2e6a12ee6ef933170a6117de93f6c]
@startuml

class Scraper {
    {static} - log: Logger
    {static} + main(args: String[]): void
}

class DbInteraction{

    - log: Logger
    - connectionSource: ConnectionSource
    - personaDao: Dao <Persona,String>
    + DbInteraction()
    + formatToPersona(webId: int, nombre: String, rut: String, sexo: String, cargo: String, unidad: String, email: String, telefono: String, oficina: String, direccionTrabajo: String,
    direccionCasa: String, comuna: String): boolean
    + emptyToNull(var: String): String
    + closeDbConnection(): void
}
class Persona <<Entity>>{
    - id: int
    - webId: int
    - nombre: String
    - rut: String
    - sexo: Sexo
    - cargo: String
    - unidad: String
    - email: String
    - telefono: String
    - oficina: String
    - direccionTrabajo: String
    - direccionCasa: String
    - comuna: String
    + Persona(webId: int, nombre: String,rut: String, sexo: Sexo, cargo: String, unidad: String, email: String, telefono: String, 
    oficina: String, direccionTrabajo: String, direccionCasa: String, comuna: String): void
    + getId(): int
    + getWebId(): int
    + getNombre(): String
    + getRut(): String
    + getSexo(): Sexo
    + getCargo(): String
    + getUnidad(): String
    + getEmail(): String
    + getTelefono(): String
    + getOficina(): String
    + getDireccionTrabajo(): String
    + getDireccionCasa(): String
    + getComuna(): String
}

enum Sexo{
    VAR,
    MUJ
}

class Uploader {
    {static} - log: Logger
    {static} + main(args: String[]): void
    {static} + getInitializationData(args: String[]): InitializationData
    {static} + parseEnum(sexo: model.Persona.Sexo): zerocice.model.Sexo
}

Persona - -> Sexo
Persona <- - Scraper
DbInteraction <- - Scraper
DbInteraction - -> Persona

Uploader - -> DbInteraction
Uploader - -> Persona
Uploader - -> Sexo

@enduml

PlantUML version 1.2020.09(Sun May 10 06:51:06 CLT 2020)
(GPL source distribution)
Java Runtime: OpenJDK Runtime Environment
JVM: OpenJDK 64-Bit Server VM
Java Version: 11.0.7+10-b765.53
Operating System: Windows 10
Default Encoding: Cp1252
Language: es
Country: ES
--></g></svg>