<?xml version="1.0" encoding="UTF-8" standalone="no"?><svg xmlns="http://www.w3.org/2000/svg" xmlns:xlink="http://www.w3.org/1999/xlink" contentScriptType="application/ecmascript" contentStyleType="text/css" height="1038.75px" preserveAspectRatio="none" style="width:1227px;height:1038px;" version="1.1" viewBox="0 0 1227 1038" width="1227.5px" zoomAndPan="magnify"><defs><filter height="300%" id="f2fib4vdiqi7x" width="300%" x="-1" y="-1"><feGaussianBlur result="blurOut" stdDeviation="2.5"/><feColorMatrix in="blurOut" result="blurOut2" type="matrix" values="0 0 0 0 0 0 0 0 0 0 0 0 0 0 0 0 0 0 .4 0"/><feOffset dx="5.0" dy="5.0" in="blurOut2" result="blurOut3"/><feBlend in="SourceGraphic" in2="blurOut3" mode="normal"/></filter></defs><g><!--MD5=[5b00cfdbf17d170b26a402f3d977e085]
class Scraper--><rect fill="#FEFECE" filter="url(#f2fib4vdiqi7x)" height="94.5898" id="Scraper" style="stroke: #A80036; stroke-width: 1.875;" width="180" x="211.25" y="931.25"/><ellipse cx="269.0625" cy="951.25" fill="#ADD1B2" rx="13.75" ry="13.75" style="stroke: #A80036; stroke-width: 1.25;"/><path d="M271.5625,946.875 Q271.8164,946.25 272.1094,945.9375 Q272.4023,945.625 272.7344,945.625 Q273.3203,945.625 273.6914,945.9766 Q274.0625,946.3281 274.0625,947.1484 L274.0625,949.1016 Q274.0625,949.9219 273.7109,950.2734 Q273.3594,950.625 272.8125,950.625 Q272.3242,950.625 272.0117,950.4102 Q271.6992,950.1953 271.5625,949.6289 Q271.5039,949.2383 271.2891,949.0234 Q270.8984,948.6133 270.1953,948.3789 Q269.4922,948.125 268.7891,948.125 Q267.9102,948.125 267.168,948.4766 Q266.4453,948.8281 265.8789,949.6094 Q265.3125,950.3906 265.3125,951.4648 L265.3125,952.6172 Q265.3125,953.9063 266.3672,954.7656 Q267.4219,955.625 269.2969,955.625 Q270.4102,955.625 271.1914,955.3711 Q271.6406,955.2344 272.1484,954.7852 Q272.4805,954.5313 272.6563,954.4531 Q272.832,954.375 273.0469,954.375 Q273.457,954.375 273.75,954.707 Q274.0625,955.0195 274.0625,955.4688 Q274.0625,955.8984 273.6328,956.4063 Q273.0078,957.1484 272.0117,957.5586 Q270.7031,958.125 269.1016,958.125 Q267.2266,958.125 265.7227,957.3828 Q264.5117,956.7969 263.6523,955.5273 Q262.8125,954.2578 262.8125,952.7539 L262.8125,951.3867 Q262.8125,949.8242 263.5547,948.457 Q264.3164,947.0898 265.625,946.3672 Q266.9531,945.625 268.4375,945.625 Q269.3359,945.625 270.1172,945.9375 Q270.8984,946.25 271.5625,946.875 Z "/><text fill="#000000" font-family="sans-serif" font-size="15" lengthAdjust="spacingAndGlyphs" textLength="53.75" x="294.6875" y="957.3877">Scraper</text><line style="stroke: #A80036; stroke-width: 1.875;" x1="212.5" x2="390" y1="971.25" y2="971.25"/><rect fill="none" height="7.5" style="stroke: #C82930; stroke-width: 1.25;" width="7.5" x="221.25" y="981.25"/><text fill="#000000" font-family="sans-serif" font-size="13.75" lengthAdjust="spacingAndGlyphs" text-decoration="underline" textLength="67.5" x="236.25" y="990.5237">log: Logger</text><line style="stroke: #A80036; stroke-width: 1.875;" x1="212.5" x2="390" y1="998.5449" y2="998.5449"/><ellipse cx="225" cy="1012.2949" fill="#84BE84" rx="3.75" ry="3.75" style="stroke: #038048; stroke-width: 1.25;"/><text fill="#000000" font-family="sans-serif" font-size="13.75" lengthAdjust="spacingAndGlyphs" text-decoration="underline" textLength="147.5" x="236.25" y="1017.8186">main(args: String[]): void</text><!--MD5=[8f63dadf5c643e74a34e53c8f0a15d23]
class Persona--><rect fill="#FEFECE" filter="url(#f2fib4vdiqi7x)" height="554.4922" id="Persona" style="stroke: #A80036; stroke-width: 1.875;" width="711.25" x="241.875" y="301.25"/><ellipse cx="562.8125" cy="326.3672" fill="#ADD1B2" rx="13.75" ry="13.75" style="stroke: #A80036; stroke-width: 1.25;"/><path d="M565.3125,321.9922 Q565.5664,321.3672 565.8594,321.0547 Q566.1523,320.7422 566.4844,320.7422 Q567.0703,320.7422 567.4414,321.0938 Q567.8125,321.4453 567.8125,322.2656 L567.8125,324.2188 Q567.8125,325.0391 567.4609,325.3906 Q567.1094,325.7422 566.5625,325.7422 Q566.0742,325.7422 565.7617,325.5273 Q565.4492,325.3125 565.3125,324.7461 Q565.2539,324.3555 565.0391,324.1406 Q564.6484,323.7305 563.9453,323.4961 Q563.2422,323.2422 562.5391,323.2422 Q561.6602,323.2422 560.918,323.5938 Q560.1953,323.9453 559.6289,324.7266 Q559.0625,325.5078 559.0625,326.582 L559.0625,327.7344 Q559.0625,329.0234 560.1172,329.8828 Q561.1719,330.7422 563.0469,330.7422 Q564.1602,330.7422 564.9414,330.4883 Q565.3906,330.3516 565.8984,329.9023 Q566.2305,329.6484 566.4063,329.5703 Q566.582,329.4922 566.7969,329.4922 Q567.207,329.4922 567.5,329.8242 Q567.8125,330.1367 567.8125,330.5859 Q567.8125,331.0156 567.3828,331.5234 Q566.7578,332.2656 565.7617,332.6758 Q564.4531,333.2422 562.8516,333.2422 Q560.9766,333.2422 559.4727,332.5 Q558.2617,331.9141 557.4023,330.6445 Q556.5625,329.375 556.5625,327.8711 L556.5625,326.5039 Q556.5625,324.9414 557.3047,323.5742 Q558.0664,322.207 559.375,321.4844 Q560.7031,320.7422 562.1875,320.7422 Q563.0859,320.7422 563.8672,321.0547 Q564.6484,321.3672 565.3125,321.9922 Z "/><text fill="#000000" font-family="sans-serif" font-size="15" font-style="italic" lengthAdjust="spacingAndGlyphs" textLength="55" x="590.3125" y="323.0713">«Entity»</text><text fill="#000000" font-family="sans-serif" font-size="15" lengthAdjust="spacingAndGlyphs" textLength="58.75" x="588.4375" y="341.9385">Persona</text><line style="stroke: #A80036; stroke-width: 1.875;" x1="243.125" x2="951.875" y1="351.4844" y2="351.4844"/><rect fill="none" height="7.5" style="stroke: #C82930; stroke-width: 1.25;" width="7.5" x="251.875" y="361.4844"/><text fill="#000000" font-family="sans-serif" font-size="13.75" lengthAdjust="spacingAndGlyphs" textLength="31.25" x="266.875" y="370.7581">id: int</text><rect fill="none" height="7.5" style="stroke: #C82930; stroke-width: 1.25;" width="7.5" x="251.875" y="378.7793"/><text fill="#000000" font-family="sans-serif" font-size="13.75" lengthAdjust="spacingAndGlyphs" textLength="58.75" x="266.875" y="388.053">webId: int</text><rect fill="none" height="7.5" style="stroke: #C82930; stroke-width: 1.25;" width="7.5" x="251.875" y="396.0742"/><text fill="#000000" font-family="sans-serif" font-size="13.75" lengthAdjust="spacingAndGlyphs" textLength="87.5" x="266.875" y="405.3479">nombre: String</text><rect fill="none" height="7.5" style="stroke: #C82930; stroke-width: 1.25;" width="7.5" x="251.875" y="413.3691"/><text fill="#000000" font-family="sans-serif" font-size="13.75" lengthAdjust="spacingAndGlyphs" textLength="58.75" x="266.875" y="422.6428">rut: String</text><rect fill="none" height="7.5" style="stroke: #C82930; stroke-width: 1.25;" width="7.5" x="251.875" y="430.6641"/><text fill="#000000" font-family="sans-serif" font-size="13.75" lengthAdjust="spacingAndGlyphs" textLength="68.75" x="266.875" y="439.9377">sexo: Sexo</text><rect fill="none" height="7.5" style="stroke: #C82930; stroke-width: 1.25;" width="7.5" x="251.875" y="447.959"/><text fill="#000000" font-family="sans-serif" font-size="13.75" lengthAdjust="spacingAndGlyphs" textLength="77.5" x="266.875" y="457.2327">cargo: String</text><rect fill="none" height="7.5" style="stroke: #C82930; stroke-width: 1.25;" width="7.5" x="251.875" y="465.2539"/><text fill="#000000" font-family="sans-serif" font-size="13.75" lengthAdjust="spacingAndGlyphs" textLength="82.5" x="266.875" y="474.5276">unidad: String</text><rect fill="none" height="7.5" style="stroke: #C82930; stroke-width: 1.25;" width="7.5" x="251.875" y="482.5488"/><text fill="#000000" font-family="sans-serif" font-size="13.75" lengthAdjust="spacingAndGlyphs" textLength="72.5" x="266.875" y="491.8225">email: String</text><rect fill="none" height="7.5" style="stroke: #C82930; stroke-width: 1.25;" width="7.5" x="251.875" y="499.8438"/><text fill="#000000" font-family="sans-serif" font-size="13.75" lengthAdjust="spacingAndGlyphs" textLength="91.25" x="266.875" y="509.1174">telefono: String</text><rect fill="none" height="7.5" style="stroke: #C82930; stroke-width: 1.25;" width="7.5" x="251.875" y="517.1387"/><text fill="#000000" font-family="sans-serif" font-size="13.75" lengthAdjust="spacingAndGlyphs" textLength="82.5" x="266.875" y="526.4124">oficina: String</text><rect fill="none" height="7.5" style="stroke: #C82930; stroke-width: 1.25;" width="7.5" x="251.875" y="534.4336"/><text fill="#000000" font-family="sans-serif" font-size="13.75" lengthAdjust="spacingAndGlyphs" textLength="142.5" x="266.875" y="543.7073">direccionTrabajo: String</text><rect fill="none" height="7.5" style="stroke: #C82930; stroke-width: 1.25;" width="7.5" x="251.875" y="551.7285"/><text fill="#000000" font-family="sans-serif" font-size="13.75" lengthAdjust="spacingAndGlyphs" textLength="128.75" x="266.875" y="561.0022">direccionCasa: String</text><rect fill="none" height="7.5" style="stroke: #C82930; stroke-width: 1.25;" width="7.5" x="251.875" y="569.0234"/><text fill="#000000" font-family="sans-serif" font-size="13.75" lengthAdjust="spacingAndGlyphs" textLength="90" x="266.875" y="578.2971">comuna: String</text><line style="stroke: #A80036; stroke-width: 1.875;" x1="243.125" x2="951.875" y1="586.3184" y2="586.3184"/><ellipse cx="255.625" cy="600.0684" fill="#84BE84" rx="3.75" ry="3.75" style="stroke: #038048; stroke-width: 1.25;"/><text fill="#000000" font-family="sans-serif" font-size="13.75" lengthAdjust="spacingAndGlyphs" textLength="678.75" x="266.875" y="605.592">Persona(int webId, String nombre, String rut, Sexo sexo, String cargo, String unidad, String email, String telefono,</text><text fill="#000000" font-family="sans-serif" font-size="13.75" lengthAdjust="spacingAndGlyphs" textLength="485" x="266.875" y="622.887">String oficina, String direccionTrabajo, String direccionCasa, String comuna):void</text><ellipse cx="255.625" cy="634.6582" fill="#84BE84" rx="3.75" ry="3.75" style="stroke: #038048; stroke-width: 1.25;"/><text fill="#000000" font-family="sans-serif" font-size="13.75" lengthAdjust="spacingAndGlyphs" textLength="60" x="266.875" y="640.1819">getId(): int</text><ellipse cx="255.625" cy="651.9531" fill="#84BE84" rx="3.75" ry="3.75" style="stroke: #038048; stroke-width: 1.25;"/><text fill="#000000" font-family="sans-serif" font-size="13.75" lengthAdjust="spacingAndGlyphs" textLength="87.5" x="266.875" y="657.4768">getWebId(): int</text><ellipse cx="255.625" cy="669.248" fill="#84BE84" rx="3.75" ry="3.75" style="stroke: #038048; stroke-width: 1.25;"/><text fill="#000000" font-family="sans-serif" font-size="13.75" lengthAdjust="spacingAndGlyphs" textLength="117.5" x="266.875" y="674.7717">getNombre(): String</text><ellipse cx="255.625" cy="686.543" fill="#84BE84" rx="3.75" ry="3.75" style="stroke: #038048; stroke-width: 1.25;"/><text fill="#000000" font-family="sans-serif" font-size="13.75" lengthAdjust="spacingAndGlyphs" textLength="91.25" x="266.875" y="692.0667">getRut(): String</text><ellipse cx="255.625" cy="703.8379" fill="#84BE84" rx="3.75" ry="3.75" style="stroke: #038048; stroke-width: 1.25;"/><text fill="#000000" font-family="sans-serif" font-size="13.75" lengthAdjust="spacingAndGlyphs" textLength="98.75" x="266.875" y="709.3616">getSexo(): Sexo</text><ellipse cx="255.625" cy="721.1328" fill="#84BE84" rx="3.75" ry="3.75" style="stroke: #038048; stroke-width: 1.25;"/><text fill="#000000" font-family="sans-serif" font-size="13.75" lengthAdjust="spacingAndGlyphs" textLength="107.5" x="266.875" y="726.6565">getCargo(): String</text><ellipse cx="255.625" cy="738.4277" fill="#84BE84" rx="3.75" ry="3.75" style="stroke: #038048; stroke-width: 1.25;"/><text fill="#000000" font-family="sans-serif" font-size="13.75" lengthAdjust="spacingAndGlyphs" textLength="112.5" x="266.875" y="743.9514">getUnidad(): String</text><ellipse cx="255.625" cy="755.7227" fill="#84BE84" rx="3.75" ry="3.75" style="stroke: #038048; stroke-width: 1.25;"/><text fill="#000000" font-family="sans-serif" font-size="13.75" lengthAdjust="spacingAndGlyphs" textLength="101.25" x="266.875" y="761.2463">getEmail(): String</text><ellipse cx="255.625" cy="773.0176" fill="#84BE84" rx="3.75" ry="3.75" style="stroke: #038048; stroke-width: 1.25;"/><text fill="#000000" font-family="sans-serif" font-size="13.75" lengthAdjust="spacingAndGlyphs" textLength="123.75" x="266.875" y="778.5413">getTelefono(): String</text><ellipse cx="255.625" cy="790.3125" fill="#84BE84" rx="3.75" ry="3.75" style="stroke: #038048; stroke-width: 1.25;"/><text fill="#000000" font-family="sans-serif" font-size="13.75" lengthAdjust="spacingAndGlyphs" textLength="113.75" x="266.875" y="795.8362">getOficina(): String</text><ellipse cx="255.625" cy="807.6074" fill="#84BE84" rx="3.75" ry="3.75" style="stroke: #038048; stroke-width: 1.25;"/><text fill="#000000" font-family="sans-serif" font-size="13.75" lengthAdjust="spacingAndGlyphs" textLength="172.5" x="266.875" y="813.1311">getDireccionTrabajo(): String</text><ellipse cx="255.625" cy="824.9023" fill="#84BE84" rx="3.75" ry="3.75" style="stroke: #038048; stroke-width: 1.25;"/><text fill="#000000" font-family="sans-serif" font-size="13.75" lengthAdjust="spacingAndGlyphs" textLength="158.75" x="266.875" y="830.426">getDireccionCasa(): String</text><ellipse cx="255.625" cy="842.1973" fill="#84BE84" rx="3.75" ry="3.75" style="stroke: #038048; stroke-width: 1.25;"/><text fill="#000000" font-family="sans-serif" font-size="13.75" lengthAdjust="spacingAndGlyphs" textLength="120" x="266.875" y="847.7209">getComuna(): String</text><!--MD5=[3f920e0f940f9b16954c93d2cff39bea]
class DbInteraction--><rect fill="#FEFECE" filter="url(#f2fib4vdiqi7x)" height="198.3594" id="DbInteraction" style="stroke: #A80036; stroke-width: 1.875;" width="757.5" x="7.5" y="18.75"/><ellipse cx="335.3125" cy="38.75" fill="#ADD1B2" rx="13.75" ry="13.75" style="stroke: #A80036; stroke-width: 1.25;"/><path d="M337.8125,34.375 Q338.0664,33.75 338.3594,33.4375 Q338.6523,33.125 338.9844,33.125 Q339.5703,33.125 339.9414,33.4766 Q340.3125,33.8281 340.3125,34.6484 L340.3125,36.6016 Q340.3125,37.4219 339.9609,37.7734 Q339.6094,38.125 339.0625,38.125 Q338.5742,38.125 338.2617,37.9102 Q337.9492,37.6953 337.8125,37.1289 Q337.7539,36.7383 337.5391,36.5234 Q337.1484,36.1133 336.4453,35.8789 Q335.7422,35.625 335.0391,35.625 Q334.1602,35.625 333.418,35.9766 Q332.6953,36.3281 332.1289,37.1094 Q331.5625,37.8906 331.5625,38.9648 L331.5625,40.1172 Q331.5625,41.4063 332.6172,42.2656 Q333.6719,43.125 335.5469,43.125 Q336.6602,43.125 337.4414,42.8711 Q337.8906,42.7344 338.3984,42.2852 Q338.7305,42.0313 338.9063,41.9531 Q339.082,41.875 339.2969,41.875 Q339.707,41.875 340,42.207 Q340.3125,42.5195 340.3125,42.9688 Q340.3125,43.3984 339.8828,43.9063 Q339.2578,44.6484 338.2617,45.0586 Q336.9531,45.625 335.3516,45.625 Q333.4766,45.625 331.9727,44.8828 Q330.7617,44.2969 329.9023,43.0273 Q329.0625,41.7578 329.0625,40.2539 L329.0625,38.8867 Q329.0625,37.3242 329.8047,35.957 Q330.5664,34.5898 331.875,33.8672 Q333.2031,33.125 334.6875,33.125 Q335.5859,33.125 336.3672,33.4375 Q337.1484,33.75 337.8125,34.375 Z "/><text fill="#000000" font-family="sans-serif" font-size="15" lengthAdjust="spacingAndGlyphs" textLength="91.25" x="360.9375" y="44.8877">DbInteraction</text><line style="stroke: #A80036; stroke-width: 1.875;" x1="8.75" x2="763.75" y1="58.75" y2="58.75"/><rect fill="none" height="7.5" style="stroke: #C82930; stroke-width: 1.25;" width="7.5" x="17.5" y="68.75"/><text fill="#000000" font-family="sans-serif" font-size="13.75" lengthAdjust="spacingAndGlyphs" textLength="67.5" x="32.5" y="78.0237">log: Logger</text><rect fill="none" height="7.5" style="stroke: #C82930; stroke-width: 1.25;" width="7.5" x="17.5" y="86.0449"/><text fill="#000000" font-family="sans-serif" font-size="13.75" lengthAdjust="spacingAndGlyphs" textLength="228.75" x="32.5" y="95.3186">connectionSource: ConnectionSource</text><rect fill="none" height="7.5" style="stroke: #C82930; stroke-width: 1.25;" width="7.5" x="17.5" y="103.3398"/><text fill="#000000" font-family="sans-serif" font-size="13.75" lengthAdjust="spacingAndGlyphs" textLength="212.5" x="32.5" y="112.6135">personaDao: Dao &lt;Persona,String&gt;</text><line style="stroke: #A80036; stroke-width: 1.875;" x1="8.75" x2="763.75" y1="120.6348" y2="120.6348"/><ellipse cx="21.25" cy="134.3848" fill="#84BE84" rx="3.75" ry="3.75" style="stroke: #038048; stroke-width: 1.25;"/><text fill="#000000" font-family="sans-serif" font-size="13.75" lengthAdjust="spacingAndGlyphs" textLength="88.75" x="32.5" y="139.9084">DbInteraction()</text><ellipse cx="21.25" cy="151.6797" fill="#84BE84" rx="3.75" ry="3.75" style="stroke: #038048; stroke-width: 1.25;"/><text fill="#000000" font-family="sans-serif" font-size="13.75" lengthAdjust="spacingAndGlyphs" textLength="725" x="32.5" y="157.2034">formatToPersona(int webId, String nombre, String rut,String sexo, String cargo, String unidad,String email,String telefono,</text><text fill="#000000" font-family="sans-serif" font-size="13.75" lengthAdjust="spacingAndGlyphs" textLength="511.25" x="32.5" y="174.4983">String oficina, String direccionTrabajo, String direccionCasa, String comuna): boolean</text><ellipse cx="21.25" cy="186.2695" fill="#84BE84" rx="3.75" ry="3.75" style="stroke: #038048; stroke-width: 1.25;"/><text fill="#000000" font-family="sans-serif" font-size="13.75" lengthAdjust="spacingAndGlyphs" textLength="183.75" x="32.5" y="191.7932">emptyToNull(String var): String</text><ellipse cx="21.25" cy="203.5645" fill="#84BE84" rx="3.75" ry="3.75" style="stroke: #038048; stroke-width: 1.25;"/><text fill="#000000" font-family="sans-serif" font-size="13.75" lengthAdjust="spacingAndGlyphs" textLength="158.75" x="32.5" y="209.0881">closeDbConnection(): void</text><!--MD5=[ca0b3859132997f66cb759fcf5e4dc43]
class Uploader--><rect fill="#FEFECE" filter="url(#f2fib4vdiqi7x)" height="215.6543" id="Uploader" style="stroke: #A80036; stroke-width: 1.875;" width="405" x="808.75" y="10"/><ellipse cx="974.0625" cy="30" fill="#ADD1B2" rx="13.75" ry="13.75" style="stroke: #A80036; stroke-width: 1.25;"/><path d="M976.5625,25.625 Q976.8164,25 977.1094,24.6875 Q977.4023,24.375 977.7344,24.375 Q978.3203,24.375 978.6914,24.7266 Q979.0625,25.0781 979.0625,25.8984 L979.0625,27.8516 Q979.0625,28.6719 978.7109,29.0234 Q978.3594,29.375 977.8125,29.375 Q977.3242,29.375 977.0117,29.1602 Q976.6992,28.9453 976.5625,28.3789 Q976.5039,27.9883 976.2891,27.7734 Q975.8984,27.3633 975.1953,27.1289 Q974.4922,26.875 973.7891,26.875 Q972.9102,26.875 972.168,27.2266 Q971.4453,27.5781 970.8789,28.3594 Q970.3125,29.1406 970.3125,30.2148 L970.3125,31.3672 Q970.3125,32.6563 971.3672,33.5156 Q972.4219,34.375 974.2969,34.375 Q975.4102,34.375 976.1914,34.1211 Q976.6406,33.9844 977.1484,33.5352 Q977.4805,33.2813 977.6563,33.2031 Q977.832,33.125 978.0469,33.125 Q978.457,33.125 978.75,33.457 Q979.0625,33.7695 979.0625,34.2188 Q979.0625,34.6484 978.6328,35.1563 Q978.0078,35.8984 977.0117,36.3086 Q975.7031,36.875 974.1016,36.875 Q972.2266,36.875 970.7227,36.1328 Q969.5117,35.5469 968.6523,34.2773 Q967.8125,33.0078 967.8125,31.5039 L967.8125,30.1367 Q967.8125,28.5742 968.5547,27.207 Q969.3164,25.8398 970.625,25.1172 Q971.9531,24.375 973.4375,24.375 Q974.3359,24.375 975.1172,24.6875 Q975.8984,25 976.5625,25.625 Z "/><text fill="#000000" font-family="sans-serif" font-size="15" lengthAdjust="spacingAndGlyphs" textLength="63.75" x="999.6875" y="36.1377">Uploader</text><line style="stroke: #A80036; stroke-width: 1.875;" x1="810" x2="1212.5" y1="50" y2="50"/><rect fill="none" height="7.5" style="stroke: #C82930; stroke-width: 1.25;" width="7.5" x="818.75" y="60"/><text fill="#000000" font-family="sans-serif" font-size="13.75" lengthAdjust="spacingAndGlyphs" text-decoration="underline" textLength="67.5" x="833.75" y="69.2737">log: Logger</text><text fill="#000000" font-family="sans-serif" font-size="13.75" lengthAdjust="spacingAndGlyphs" textLength="5" x="833.75" y="86.5686">{</text><text fill="#000000" font-family="sans-serif" font-size="13.75" lengthAdjust="spacingAndGlyphs" textLength="0" x="837.5" y="103.8635"/><text fill="#000000" font-family="sans-serif" font-size="13.75" lengthAdjust="spacingAndGlyphs" textLength="76.25" x="833.75" y="121.1584">enum Sexo {</text><text fill="#000000" font-family="sans-serif" font-size="13.75" lengthAdjust="spacingAndGlyphs" textLength="32.5" x="833.75" y="138.4534">VAR,</text><text fill="#000000" font-family="sans-serif" font-size="13.75" lengthAdjust="spacingAndGlyphs" textLength="25" x="833.75" y="155.7483">MUJ</text><line style="stroke: #A80036; stroke-width: 1.875;" x1="810" x2="1212.5" y1="163.7695" y2="163.7695"/><ellipse cx="822.5" cy="177.5195" fill="#84BE84" rx="3.75" ry="3.75" style="stroke: #038048; stroke-width: 1.25;"/><text fill="#000000" font-family="sans-serif" font-size="13.75" lengthAdjust="spacingAndGlyphs" text-decoration="underline" textLength="147.5" x="833.75" y="183.0432">main(args: String[]): void</text><ellipse cx="822.5" cy="194.8145" fill="#84BE84" rx="3.75" ry="3.75" style="stroke: #038048; stroke-width: 1.25;"/><text fill="#000000" font-family="sans-serif" font-size="13.75" lengthAdjust="spacingAndGlyphs" text-decoration="underline" textLength="303.75" x="833.75" y="200.3381">getInitializationData(args: String[]): InitializationData</text><ellipse cx="822.5" cy="212.1094" fill="#84BE84" rx="3.75" ry="3.75" style="stroke: #038048; stroke-width: 1.25;"/><text fill="#000000" font-family="sans-serif" font-size="13.75" lengthAdjust="spacingAndGlyphs" text-decoration="underline" textLength="372.5" x="833.75" y="217.6331">parseEnum(sexo: model.Persona.Sexo): zerocice.model.Sexo</text><!--MD5=[2bd084d4f9b8ff009b6d8ba013c0f313]
class Sexo--><rect fill="#FEFECE" filter="url(#f2fib4vdiqi7x)" height="60" id="Sexo" style="stroke: #A80036; stroke-width: 1.875;" width="73.75" x="560.625" y="948.75"/><ellipse cx="579.375" cy="968.75" fill="#ADD1B2" rx="13.75" ry="13.75" style="stroke: #A80036; stroke-width: 1.25;"/><path d="M581.875,964.375 Q582.1289,963.75 582.4219,963.4375 Q582.7148,963.125 583.0469,963.125 Q583.6328,963.125 584.0039,963.4766 Q584.375,963.8281 584.375,964.6484 L584.375,966.6016 Q584.375,967.4219 584.0234,967.7734 Q583.6719,968.125 583.125,968.125 Q582.6367,968.125 582.3242,967.9102 Q582.0117,967.6953 581.875,967.1289 Q581.8164,966.7383 581.6016,966.5234 Q581.2109,966.1133 580.5078,965.8789 Q579.8047,965.625 579.1016,965.625 Q578.2227,965.625 577.4805,965.9766 Q576.7578,966.3281 576.1914,967.1094 Q575.625,967.8906 575.625,968.9648 L575.625,970.1172 Q575.625,971.4063 576.6797,972.2656 Q577.7344,973.125 579.6094,973.125 Q580.7227,973.125 581.5039,972.8711 Q581.9531,972.7344 582.4609,972.2852 Q582.793,972.0313 582.9688,971.9531 Q583.1445,971.875 583.3594,971.875 Q583.7695,971.875 584.0625,972.207 Q584.375,972.5195 584.375,972.9688 Q584.375,973.3984 583.9453,973.9063 Q583.3203,974.6484 582.3242,975.0586 Q581.0156,975.625 579.4141,975.625 Q577.5391,975.625 576.0352,974.8828 Q574.8242,974.2969 573.9648,973.0273 Q573.125,971.7578 573.125,970.2539 L573.125,968.8867 Q573.125,967.3242 573.8672,965.957 Q574.6289,964.5898 575.9375,963.8672 Q577.2656,963.125 578.75,963.125 Q579.6484,963.125 580.4297,963.4375 Q581.2109,963.75 581.875,964.375 Z "/><text fill="#000000" font-family="sans-serif" font-size="15" lengthAdjust="spacingAndGlyphs" textLength="33.75" x="596.875" y="974.8877">Sexo</text><line style="stroke: #A80036; stroke-width: 1.875;" x1="561.875" x2="633.125" y1="988.75" y2="988.75"/><line style="stroke: #A80036; stroke-width: 1.875;" x1="561.875" x2="633.125" y1="998.75" y2="998.75"/><!--MD5=[93eda055a1fdb4dab9fc4d9c53718769]
link Persona to Sexo--><path d="M597.5,856.6125 C597.5,890.1125 597.5,920.0875 597.5,941.825 " fill="none" id="Persona-&gt;Sexo" style="stroke: #A80036; stroke-width: 1.25;"/><polygon fill="#A80036" points="597.5,948.3,602.5,937.05,597.5,942.05,592.5,937.05,597.5,948.3" style="stroke: #A80036; stroke-width: 1.25;"/><!--MD5=[053747b4d2cfba24c8487222406f3e10]
reverse link Persona to Scraper--><path d="M387.4125,861.8875 C367.9125,888.0625 350.15,911.8875 335.8875,931.025 " fill="none" id="Persona&lt;-Scraper" style="stroke: #A80036; stroke-width: 1.25;"/><polygon fill="#A80036" points="391.3375,856.6125,380.6116,862.6554,387.6075,861.6275,388.6355,868.6234,391.3375,856.6125" style="stroke: #A80036; stroke-width: 1.25;"/><!--MD5=[609ac5b89af0016fd5831c89f65e4291]
reverse link DbInteraction to Scraper--><path d="M268.2,223.025 C248.5,246.6 230.9375,273.075 220,301.25 C130.7375,531.2 148.2375,620.25 220,856.25 C228.1875,883.1625 244.55,909.525 260.45,930.7625 " fill="none" id="DbInteraction&lt;-Scraper" style="stroke: #A80036; stroke-width: 1.25;"/><polygon fill="#A80036" points="272.7125,217.725,261.6278,223.0815,268.6746,222.4955,269.2606,229.5422,272.7125,217.725" style="stroke: #A80036; stroke-width: 1.25;"/><!--MD5=[448cdd4d23e122caa9260e1a4c78b569]
link DbInteraction to Persona--><path d="M431.5625,217.65 C442.4375,241.2125 454.575,267.5625 467.225,294.9875 " fill="none" id="DbInteraction-&gt;Persona" style="stroke: #A80036; stroke-width: 1.25;"/><polygon fill="#A80036" points="469.925,300.85,469.775,288.5398,467.3172,295.17,460.687,292.7123,469.925,300.85" style="stroke: #A80036; stroke-width: 1.25;"/><!--MD5=[0bb87cbd11e79a3de7826c29779a7d60]
@startuml

class Scraper {
    {static} - log: Logger
    {static} + main(args: String[]): void
}

class Persona <<Entity>> {
    - id: int
    - webId: int
    - nombre: String
    - rut: String
    - sexo: Sexo
    - cargo: String
    - unidad: String
    - email: String
    - telefono: String
    - oficina: String
    - direccionTrabajo: String
    - direccionCasa: String
    - comuna: String
    + Persona(int webId, String nombre, String rut, Sexo sexo, String cargo, String unidad, String email, String telefono, 
      String oficina, String direccionTrabajo, String direccionCasa, String comuna):void
    + getId(): int
    + getWebId(): int
    + getNombre(): String
    + getRut(): String
    + getSexo(): Sexo
    + getCargo(): String
    + getUnidad(): String
    + getEmail(): String
    + getTelefono(): String
    + getOficina(): String
    + getDireccionTrabajo(): String
    + getDireccionCasa(): String
    + getComuna(): String
}


class DbInteraction {
    - log: Logger
    - connectionSource: ConnectionSource
    - personaDao: Dao <Persona,String>
    + DbInteraction()
    + formatToPersona(int webId, String nombre, String rut,String sexo, String cargo, String unidad,String email,String telefono, 
      String oficina, String direccionTrabajo, String direccionCasa, String comuna): boolean
    + emptyToNull(String var): String
    + closeDbConnection(): void
}

class Uploader {
    {static} - log: Logger
    {static} + main(args: String[]): void
    {static} + getInitializationData(args: String[]): InitializationData
    {static} + parseEnum(sexo: model.Persona.Sexo): zerocice.model.Sexo
{

enum Sexo {
    VAR,
    MUJ
}

Persona - -> Sexo
Persona <- - Scraper
DbInteraction <- - Scraper
DbInteraction - -> Persona

@enduml

PlantUML version 1.2020.09(Sun May 10 06:51:06 CLT 2020)
(GPL source distribution)
Java Runtime: OpenJDK Runtime Environment
JVM: OpenJDK 64-Bit Server VM
Java Version: 11.0.7+10-b765.53
Operating System: Windows 10
Default Encoding: Cp1252
Language: es
Country: ES
--></g></svg>