<?xml version="1.0" encoding="UTF-8" standalone="no"?><svg xmlns="http://www.w3.org/2000/svg" xmlns:xlink="http://www.w3.org/1999/xlink" contentScriptType="application/ecmascript" contentStyleType="text/css" height="761.25px" preserveAspectRatio="none" style="width:770px;height:761px;" version="1.1" viewBox="0 0 770 761" width="770px" zoomAndPan="magnify"><defs><filter height="300%" id="flksozzgcdzvv" width="300%" x="-1" y="-1"><feGaussianBlur result="blurOut" stdDeviation="2.5"/><feColorMatrix in="blurOut" result="blurOut2" type="matrix" values="0 0 0 0 0 0 0 0 0 0 0 0 0 0 0 0 0 0 .4 0"/><feOffset dx="5.0" dy="5.0" in="blurOut2" result="blurOut3"/><feBlend in="SourceGraphic" in2="blurOut3" mode="normal"/></filter></defs><g><!--MD5=[529f2e4e1e8959b942d94bdcb3d43daf]
class Contratos--><rect fill="#FEFECE" filter="url(#flksozzgcdzvv)" height="163.7695" id="Contratos" style="stroke: #A80036; stroke-width: 1.875;" width="331.25" x="7.5" y="10"/><ellipse cx="134.6875" cy="30" fill="#B4A7E5" rx="13.75" ry="13.75" style="stroke: #A80036; stroke-width: 1.25;"/><path d="M135.9375,26.25 L135.9375,33.75 L138.4375,33.75 L139.043,33.75 L139.6875,34.5313 L139.6875,35 L139.6875,35.4688 L139.043,36.25 L138.4375,36.25 L130.9375,36.25 L130.332,36.25 L129.6875,35.4688 L129.6875,35 L129.6875,34.5313 L130.332,33.75 L130.9375,33.75 L133.4375,33.75 L133.4375,26.25 L130.9375,26.25 L130.332,26.25 L129.6875,25.4688 L129.6875,25 L129.6875,24.5313 L130.332,23.75 L130.9375,23.75 L138.4375,23.75 L139.043,23.75 L139.6875,24.5313 L139.6875,25 L139.6875,25.4688 L139.043,26.25 L138.4375,26.25 L135.9375,26.25 Z "/><text fill="#000000" font-family="sans-serif" font-size="15" font-style="italic" lengthAdjust="spacingAndGlyphs" textLength="66.25" x="160.3125" y="36.1377">Contratos</text><line style="stroke: #A80036; stroke-width: 1.875;" x1="8.75" x2="337.5" y1="50" y2="50"/><line style="stroke: #A80036; stroke-width: 1.875;" x1="8.75" x2="337.5" y1="60" y2="60"/><ellipse cx="21.25" cy="73.75" fill="#84BE84" rx="3.75" ry="3.75" style="stroke: #038048; stroke-width: 1.25;"/><text fill="#000000" font-family="sans-serif" font-size="13.75" lengthAdjust="spacingAndGlyphs" textLength="253.75" x="32.5" y="79.2737">Persona crearPersona(Persona persona);</text><ellipse cx="21.25" cy="91.0449" fill="#84BE84" rx="3.75" ry="3.75" style="stroke: #038048; stroke-width: 1.25;"/><text fill="#000000" font-family="sans-serif" font-size="13.75" lengthAdjust="spacingAndGlyphs" textLength="261.25" x="32.5" y="96.5686">Vehiculo crearVehiculo(Vehiculo vehiculo);</text><ellipse cx="21.25" cy="108.3398" fill="#84BE84" rx="3.75" ry="3.75" style="stroke: #038048; stroke-width: 1.25;"/><text fill="#000000" font-family="sans-serif" font-size="13.75" lengthAdjust="spacingAndGlyphs" textLength="250" x="32.5" y="113.8635">Registro crearRegistro(Registro registro);</text><ellipse cx="21.25" cy="125.6348" fill="#84BE84" rx="3.75" ry="3.75" style="stroke: #038048; stroke-width: 1.25;"/><text fill="#000000" font-family="sans-serif" font-size="13.75" lengthAdjust="spacingAndGlyphs" textLength="217.5" x="32.5" y="131.1584">Persona obtenerPersona(string rut);</text><ellipse cx="21.25" cy="142.9297" fill="#84BE84" rx="3.75" ry="3.75" style="stroke: #038048; stroke-width: 1.25;"/><text fill="#000000" font-family="sans-serif" font-size="13.75" lengthAdjust="spacingAndGlyphs" textLength="251.25" x="32.5" y="148.4534">Vehiculo obtenerVehiculo(string patente);</text><ellipse cx="21.25" cy="160.2246" fill="#84BE84" rx="3.75" ry="3.75" style="stroke: #038048; stroke-width: 1.25;"/><text fill="#000000" font-family="sans-serif" font-size="13.75" lengthAdjust="spacingAndGlyphs" textLength="298.75" x="32.5" y="165.7483">Registro obtenerUltimoRegistro(Registro registro);</text><!--MD5=[9f35603b252cdd4401c7cdb0cea7e6cf]
class Registro--><rect fill="#FEFECE" filter="url(#flksozzgcdzvv)" height="163.7695" id="Registro" style="stroke: #A80036; stroke-width: 1.875;" width="148.75" x="105" y="524.375"/><ellipse cx="146.25" cy="544.375" fill="#ADD1B2" rx="13.75" ry="13.75" style="stroke: #A80036; stroke-width: 1.25;"/><path d="M148.75,540 Q149.0039,539.375 149.2969,539.0625 Q149.5898,538.75 149.9219,538.75 Q150.5078,538.75 150.8789,539.1016 Q151.25,539.4531 151.25,540.2734 L151.25,542.2266 Q151.25,543.0469 150.8984,543.3984 Q150.5469,543.75 150,543.75 Q149.5117,543.75 149.1992,543.5352 Q148.8867,543.3203 148.75,542.7539 Q148.6914,542.3633 148.4766,542.1484 Q148.0859,541.7383 147.3828,541.5039 Q146.6797,541.25 145.9766,541.25 Q145.0977,541.25 144.3555,541.6016 Q143.6328,541.9531 143.0664,542.7344 Q142.5,543.5156 142.5,544.5898 L142.5,545.7422 Q142.5,547.0313 143.5547,547.8906 Q144.6094,548.75 146.4844,548.75 Q147.5977,548.75 148.3789,548.4961 Q148.8281,548.3594 149.3359,547.9102 Q149.668,547.6563 149.8438,547.5781 Q150.0195,547.5 150.2344,547.5 Q150.6445,547.5 150.9375,547.832 Q151.25,548.1445 151.25,548.5938 Q151.25,549.0234 150.8203,549.5313 Q150.1953,550.2734 149.1992,550.6836 Q147.8906,551.25 146.2891,551.25 Q144.4141,551.25 142.9102,550.5078 Q141.6992,549.9219 140.8398,548.6523 Q140,547.3828 140,545.8789 L140,544.5117 Q140,542.9492 140.7422,541.582 Q141.5039,540.2148 142.8125,539.4922 Q144.1406,538.75 145.625,538.75 Q146.5234,538.75 147.3047,539.0625 Q148.0859,539.375 148.75,540 Z "/><text fill="#000000" font-family="sans-serif" font-size="15" lengthAdjust="spacingAndGlyphs" textLength="58.75" x="168.75" y="550.5127">Registro</text><line style="stroke: #A80036; stroke-width: 1.875;" x1="106.25" x2="252.5" y1="564.375" y2="564.375"/><rect fill="none" height="7.5" style="stroke: #C82930; stroke-width: 1.25;" width="7.5" x="115" y="574.375"/><text fill="#000000" font-family="sans-serif" font-size="13.75" lengthAdjust="spacingAndGlyphs" textLength="38.75" x="130" y="583.6487">int uid;</text><rect fill="none" height="7.5" style="stroke: #C82930; stroke-width: 1.25;" width="7.5" x="115" y="591.6699"/><text fill="#000000" font-family="sans-serif" font-size="13.75" lengthAdjust="spacingAndGlyphs" textLength="86.25" x="130" y="600.9436">string patente;</text><rect fill="none" height="7.5" style="stroke: #C82930; stroke-width: 1.25;" width="7.5" x="115" y="608.9648"/><text fill="#000000" font-family="sans-serif" font-size="13.75" lengthAdjust="spacingAndGlyphs" textLength="116.25" x="130" y="618.2385">string responsable;</text><rect fill="none" height="7.5" style="stroke: #C82930; stroke-width: 1.25;" width="7.5" x="115" y="626.2598"/><text fill="#000000" font-family="sans-serif" font-size="13.75" lengthAdjust="spacingAndGlyphs" textLength="76.25" x="130" y="635.5334">string fecha;</text><rect fill="none" height="7.5" style="stroke: #C82930; stroke-width: 1.25;" width="7.5" x="115" y="643.5547"/><text fill="#000000" font-family="sans-serif" font-size="13.75" lengthAdjust="spacingAndGlyphs" textLength="68.75" x="130" y="652.8284">string hora;</text><rect fill="none" height="7.5" style="stroke: #C82930; stroke-width: 1.25;" width="7.5" x="115" y="660.8496"/><text fill="#000000" font-family="sans-serif" font-size="13.75" lengthAdjust="spacingAndGlyphs" textLength="90" x="130" y="670.1233">Estado estado;</text><line style="stroke: #A80036; stroke-width: 1.875;" x1="106.25" x2="252.5" y1="678.1445" y2="678.1445"/><!--MD5=[1d6438b19b75334de94d74596f8416e5]
class Vehiculo--><rect fill="#FEFECE" filter="url(#flksozzgcdzvv)" height="181.0645" id="Vehiculo" style="stroke: #A80036; stroke-width: 1.875;" width="148.75" x="297.5" y="515.625"/><ellipse cx="338.75" cy="535.625" fill="#ADD1B2" rx="13.75" ry="13.75" style="stroke: #A80036; stroke-width: 1.25;"/><path d="M341.25,531.25 Q341.5039,530.625 341.7969,530.3125 Q342.0898,530 342.4219,530 Q343.0078,530 343.3789,530.3516 Q343.75,530.7031 343.75,531.5234 L343.75,533.4766 Q343.75,534.2969 343.3984,534.6484 Q343.0469,535 342.5,535 Q342.0117,535 341.6992,534.7852 Q341.3867,534.5703 341.25,534.0039 Q341.1914,533.6133 340.9766,533.3984 Q340.5859,532.9883 339.8828,532.7539 Q339.1797,532.5 338.4766,532.5 Q337.5977,532.5 336.8555,532.8516 Q336.1328,533.2031 335.5664,533.9844 Q335,534.7656 335,535.8398 L335,536.9922 Q335,538.2813 336.0547,539.1406 Q337.1094,540 338.9844,540 Q340.0977,540 340.8789,539.7461 Q341.3281,539.6094 341.8359,539.1602 Q342.168,538.9063 342.3438,538.8281 Q342.5195,538.75 342.7344,538.75 Q343.1445,538.75 343.4375,539.082 Q343.75,539.3945 343.75,539.8438 Q343.75,540.2734 343.3203,540.7813 Q342.6953,541.5234 341.6992,541.9336 Q340.3906,542.5 338.7891,542.5 Q336.9141,542.5 335.4102,541.7578 Q334.1992,541.1719 333.3398,539.9023 Q332.5,538.6328 332.5,537.1289 L332.5,535.7617 Q332.5,534.1992 333.2422,532.832 Q334.0039,531.4648 335.3125,530.7422 Q336.6406,530 338.125,530 Q339.0234,530 339.8047,530.3125 Q340.5859,530.625 341.25,531.25 Z "/><text fill="#000000" font-family="sans-serif" font-size="15" lengthAdjust="spacingAndGlyphs" textLength="58.75" x="361.25" y="541.7627">Vehiculo</text><line style="stroke: #A80036; stroke-width: 1.875;" x1="298.75" x2="445" y1="555.625" y2="555.625"/><rect fill="none" height="7.5" style="stroke: #C82930; stroke-width: 1.25;" width="7.5" x="307.5" y="565.625"/><text fill="#000000" font-family="sans-serif" font-size="13.75" lengthAdjust="spacingAndGlyphs" textLength="38.75" x="322.5" y="574.8987">int uid;</text><rect fill="none" height="7.5" style="stroke: #C82930; stroke-width: 1.25;" width="7.5" x="307.5" y="582.9199"/><text fill="#000000" font-family="sans-serif" font-size="13.75" lengthAdjust="spacingAndGlyphs" textLength="86.25" x="322.5" y="592.1936">string patente;</text><rect fill="none" height="7.5" style="stroke: #C82930; stroke-width: 1.25;" width="7.5" x="307.5" y="600.2148"/><text fill="#000000" font-family="sans-serif" font-size="13.75" lengthAdjust="spacingAndGlyphs" textLength="78.75" x="322.5" y="609.4885">string marca;</text><rect fill="none" height="7.5" style="stroke: #C82930; stroke-width: 1.25;" width="7.5" x="307.5" y="617.5098"/><text fill="#000000" font-family="sans-serif" font-size="13.75" lengthAdjust="spacingAndGlyphs" textLength="83.75" x="322.5" y="626.7834">string modelo;</text><rect fill="none" height="7.5" style="stroke: #C82930; stroke-width: 1.25;" width="7.5" x="307.5" y="634.8047"/><text fill="#000000" font-family="sans-serif" font-size="13.75" lengthAdjust="spacingAndGlyphs" textLength="46.25" x="322.5" y="644.0784">int anio;</text><rect fill="none" height="7.5" style="stroke: #C82930; stroke-width: 1.25;" width="7.5" x="307.5" y="652.0996"/><text fill="#000000" font-family="sans-serif" font-size="13.75" lengthAdjust="spacingAndGlyphs" textLength="116.25" x="322.5" y="661.3733">string observacion;</text><rect fill="none" height="7.5" style="stroke: #C82930; stroke-width: 1.25;" width="7.5" x="307.5" y="669.3945"/><text fill="#000000" font-family="sans-serif" font-size="13.75" lengthAdjust="spacingAndGlyphs" textLength="116.25" x="322.5" y="678.6682">string responsable;</text><line style="stroke: #A80036; stroke-width: 1.875;" x1="298.75" x2="445" y1="686.6895" y2="686.6895"/><!--MD5=[2bd084d4f9b8ff009b6d8ba013c0f313]
class Sexo--><rect fill="#FEFECE" filter="url(#flksozzgcdzvv)" height="94.5898" id="Sexo" style="stroke: #A80036; stroke-width: 1.875;" width="73.75" x="540" y="271.25"/><ellipse cx="558.75" cy="291.25" fill="#EB937F" rx="13.75" ry="13.75" style="stroke: #A80036; stroke-width: 1.25;"/><path d="M556.875,292.5 L556.875,295 L561.875,295 L561.875,293.75 L561.875,293.1445 L562.6563,292.5 L563.125,292.5 L563.5938,292.5 L564.375,293.1445 L564.375,293.75 L564.375,297.5 L554.375,297.5 L553.7695,297.5 L553.125,296.7188 L553.125,296.25 L553.125,295.7813 L553.7695,295 L554.375,295 L554.375,295 L554.375,287.5 L554.375,287.5 L553.7695,287.5 L553.125,286.7188 L553.125,286.25 L553.125,285.7813 L553.7695,285 L554.375,285 L564.375,285 L564.375,288.75 L564.375,289.3555 L563.5938,290 L563.125,290 L562.6563,290 L561.875,289.3555 L561.875,288.75 L561.875,287.5 L556.875,287.5 L556.875,290 L558.125,290 L558.125,289.3945 L558.125,289.3945 L558.9063,288.75 L559.375,288.75 L559.8438,288.75 L560.625,289.3945 L560.625,290 L560.625,292.5 L560.625,293.1055 L559.8438,293.75 L559.8438,293.75 L559.375,293.75 L558.9063,293.75 L558.125,293.1055 L558.125,293.1055 L558.125,292.5 L556.875,292.5 Z "/><text fill="#000000" font-family="sans-serif" font-size="15" lengthAdjust="spacingAndGlyphs" textLength="33.75" x="576.25" y="297.3877">Sexo</text><line style="stroke: #A80036; stroke-width: 1.875;" x1="541.25" x2="612.5" y1="311.25" y2="311.25"/><text fill="#000000" font-family="sans-serif" font-size="13.75" lengthAdjust="spacingAndGlyphs" textLength="32.5" x="547.5" y="330.5237">VAR,</text><text fill="#000000" font-family="sans-serif" font-size="13.75" lengthAdjust="spacingAndGlyphs" textLength="25" x="547.5" y="347.8186">MUJ</text><line style="stroke: #A80036; stroke-width: 1.875;" x1="541.25" x2="612.5" y1="355.8398" y2="355.8398"/><!--MD5=[d8933eb2ae217ae3c21bf6e2973c277f]
class Estado--><rect fill="#FEFECE" filter="url(#flksozzgcdzvv)" height="94.5898" id="Estado" style="stroke: #A80036; stroke-width: 1.875;" width="88.75" x="135" y="271.25"/><ellipse cx="153.75" cy="291.25" fill="#EB937F" rx="13.75" ry="13.75" style="stroke: #A80036; stroke-width: 1.25;"/><path d="M151.875,292.5 L151.875,295 L156.875,295 L156.875,293.75 L156.875,293.1445 L157.6563,292.5 L158.125,292.5 L158.5938,292.5 L159.375,293.1445 L159.375,293.75 L159.375,297.5 L149.375,297.5 L148.7695,297.5 L148.125,296.7188 L148.125,296.25 L148.125,295.7813 L148.7695,295 L149.375,295 L149.375,295 L149.375,287.5 L149.375,287.5 L148.7695,287.5 L148.125,286.7188 L148.125,286.25 L148.125,285.7813 L148.7695,285 L149.375,285 L159.375,285 L159.375,288.75 L159.375,289.3555 L158.5938,290 L158.125,290 L157.6563,290 L156.875,289.3555 L156.875,288.75 L156.875,287.5 L151.875,287.5 L151.875,290 L153.125,290 L153.125,289.3945 L153.125,289.3945 L153.9063,288.75 L154.375,288.75 L154.8438,288.75 L155.625,289.3945 L155.625,290 L155.625,292.5 L155.625,293.1055 L154.8438,293.75 L154.8438,293.75 L154.375,293.75 L153.9063,293.75 L153.125,293.1055 L153.125,293.1055 L153.125,292.5 L151.875,292.5 Z "/><text fill="#000000" font-family="sans-serif" font-size="15" lengthAdjust="spacingAndGlyphs" textLength="48.75" x="171.25" y="297.3877">Estado</text><line style="stroke: #A80036; stroke-width: 1.875;" x1="136.25" x2="222.5" y1="311.25" y2="311.25"/><text fill="#000000" font-family="sans-serif" font-size="13.75" lengthAdjust="spacingAndGlyphs" textLength="65" x="142.5" y="330.5237">ENTRADA,</text><text fill="#000000" font-family="sans-serif" font-size="13.75" lengthAdjust="spacingAndGlyphs" textLength="47.5" x="142.5" y="347.8186">SALIDA</text><line style="stroke: #A80036; stroke-width: 1.875;" x1="136.25" x2="222.5" y1="355.8398" y2="355.8398"/><!--MD5=[8f63dadf5c643e74a34e53c8f0a15d23]
class Persona--><rect fill="#FEFECE" filter="url(#flksozzgcdzvv)" height="284.834" id="Persona" style="stroke: #A80036; stroke-width: 1.875;" width="173.75" x="490" y="463.75"/><ellipse cx="542.5" cy="483.75" fill="#ADD1B2" rx="13.75" ry="13.75" style="stroke: #A80036; stroke-width: 1.25;"/><path d="M545,479.375 Q545.2539,478.75 545.5469,478.4375 Q545.8398,478.125 546.1719,478.125 Q546.7578,478.125 547.1289,478.4766 Q547.5,478.8281 547.5,479.6484 L547.5,481.6016 Q547.5,482.4219 547.1484,482.7734 Q546.7969,483.125 546.25,483.125 Q545.7617,483.125 545.4492,482.9102 Q545.1367,482.6953 545,482.1289 Q544.9414,481.7383 544.7266,481.5234 Q544.3359,481.1133 543.6328,480.8789 Q542.9297,480.625 542.2266,480.625 Q541.3477,480.625 540.6055,480.9766 Q539.8828,481.3281 539.3164,482.1094 Q538.75,482.8906 538.75,483.9648 L538.75,485.1172 Q538.75,486.4063 539.8047,487.2656 Q540.8594,488.125 542.7344,488.125 Q543.8477,488.125 544.6289,487.8711 Q545.0781,487.7344 545.5859,487.2852 Q545.918,487.0313 546.0938,486.9531 Q546.2695,486.875 546.4844,486.875 Q546.8945,486.875 547.1875,487.207 Q547.5,487.5195 547.5,487.9688 Q547.5,488.3984 547.0703,488.9063 Q546.4453,489.6484 545.4492,490.0586 Q544.1406,490.625 542.5391,490.625 Q540.6641,490.625 539.1602,489.8828 Q537.9492,489.2969 537.0898,488.0273 Q536.25,486.7578 536.25,485.2539 L536.25,483.8867 Q536.25,482.3242 536.9922,480.957 Q537.7539,479.5898 539.0625,478.8672 Q540.3906,478.125 541.875,478.125 Q542.7734,478.125 543.5547,478.4375 Q544.3359,478.75 545,479.375 Z "/><text fill="#000000" font-family="sans-serif" font-size="15" lengthAdjust="spacingAndGlyphs" textLength="58.75" x="567.5" y="489.8877">Persona</text><line style="stroke: #A80036; stroke-width: 1.875;" x1="491.25" x2="662.5" y1="503.75" y2="503.75"/><rect fill="none" height="7.5" style="stroke: #C82930; stroke-width: 1.25;" width="7.5" x="500" y="513.75"/><text fill="#000000" font-family="sans-serif" font-size="13.75" lengthAdjust="spacingAndGlyphs" textLength="38.75" x="515" y="523.0237">int uid;</text><rect fill="none" height="7.5" style="stroke: #C82930; stroke-width: 1.25;" width="7.5" x="500" y="531.0449"/><text fill="#000000" font-family="sans-serif" font-size="13.75" lengthAdjust="spacingAndGlyphs" textLength="58.75" x="515" y="540.3186">int webId;</text><rect fill="none" height="7.5" style="stroke: #C82930; stroke-width: 1.25;" width="7.5" x="500" y="548.3398"/><text fill="#000000" font-family="sans-serif" font-size="13.75" lengthAdjust="spacingAndGlyphs" textLength="86.25" x="515" y="557.6135">string nombre;</text><rect fill="none" height="7.5" style="stroke: #C82930; stroke-width: 1.25;" width="7.5" x="500" y="565.6348"/><text fill="#000000" font-family="sans-serif" font-size="13.75" lengthAdjust="spacingAndGlyphs" textLength="57.5" x="515" y="574.9084">string rut;</text><rect fill="none" height="7.5" style="stroke: #C82930; stroke-width: 1.25;" width="7.5" x="500" y="582.9297"/><text fill="#000000" font-family="sans-serif" font-size="13.75" lengthAdjust="spacingAndGlyphs" textLength="68.75" x="515" y="592.2034">Sexo sexo;</text><rect fill="none" height="7.5" style="stroke: #C82930; stroke-width: 1.25;" width="7.5" x="500" y="600.2246"/><text fill="#000000" font-family="sans-serif" font-size="13.75" lengthAdjust="spacingAndGlyphs" textLength="76.25" x="515" y="609.4983">string cargo;</text><rect fill="none" height="7.5" style="stroke: #C82930; stroke-width: 1.25;" width="7.5" x="500" y="617.5195"/><text fill="#000000" font-family="sans-serif" font-size="13.75" lengthAdjust="spacingAndGlyphs" textLength="81.25" x="515" y="626.7932">string unidad;</text><rect fill="none" height="7.5" style="stroke: #C82930; stroke-width: 1.25;" width="7.5" x="500" y="634.8145"/><text fill="#000000" font-family="sans-serif" font-size="13.75" lengthAdjust="spacingAndGlyphs" textLength="71.25" x="515" y="644.0881">string email;</text><rect fill="none" height="7.5" style="stroke: #C82930; stroke-width: 1.25;" width="7.5" x="500" y="652.1094"/><text fill="#000000" font-family="sans-serif" font-size="13.75" lengthAdjust="spacingAndGlyphs" textLength="90" x="515" y="661.3831">string telefono;</text><rect fill="none" height="7.5" style="stroke: #C82930; stroke-width: 1.25;" width="7.5" x="500" y="669.4043"/><text fill="#000000" font-family="sans-serif" font-size="13.75" lengthAdjust="spacingAndGlyphs" textLength="81.25" x="515" y="678.678">string oficina;</text><rect fill="none" height="7.5" style="stroke: #C82930; stroke-width: 1.25;" width="7.5" x="500" y="686.6992"/><text fill="#000000" font-family="sans-serif" font-size="13.75" lengthAdjust="spacingAndGlyphs" textLength="141.25" x="515" y="695.9729">string direccionTrabajo;</text><rect fill="none" height="7.5" style="stroke: #C82930; stroke-width: 1.25;" width="7.5" x="500" y="703.9941"/><text fill="#000000" font-family="sans-serif" font-size="13.75" lengthAdjust="spacingAndGlyphs" textLength="127.5" x="515" y="713.2678">string direccionCasa;</text><rect fill="none" height="7.5" style="stroke: #C82930; stroke-width: 1.25;" width="7.5" x="500" y="721.2891"/><text fill="#000000" font-family="sans-serif" font-size="13.75" lengthAdjust="spacingAndGlyphs" textLength="88.75" x="515" y="730.5627">string comuna;</text><line style="stroke: #A80036; stroke-width: 1.875;" x1="491.25" x2="662.5" y1="738.584" y2="738.584"/><!--MD5=[920720997a8b0126537e14f2ea250477]
class ContratosImpl--><rect fill="#FEFECE" filter="url(#flksozzgcdzvv)" height="60" id="ContratosImpl" style="stroke: #A80036; stroke-width: 1.875;" width="137.5" x="303.125" y="288.75"/><ellipse cx="321.875" cy="308.75" fill="#ADD1B2" rx="13.75" ry="13.75" style="stroke: #A80036; stroke-width: 1.25;"/><path d="M324.375,304.375 Q324.6289,303.75 324.9219,303.4375 Q325.2148,303.125 325.5469,303.125 Q326.1328,303.125 326.5039,303.4766 Q326.875,303.8281 326.875,304.6484 L326.875,306.6016 Q326.875,307.4219 326.5234,307.7734 Q326.1719,308.125 325.625,308.125 Q325.1367,308.125 324.8242,307.9102 Q324.5117,307.6953 324.375,307.1289 Q324.3164,306.7383 324.1016,306.5234 Q323.7109,306.1133 323.0078,305.8789 Q322.3047,305.625 321.6016,305.625 Q320.7227,305.625 319.9805,305.9766 Q319.2578,306.3281 318.6914,307.1094 Q318.125,307.8906 318.125,308.9648 L318.125,310.1172 Q318.125,311.4063 319.1797,312.2656 Q320.2344,313.125 322.1094,313.125 Q323.2227,313.125 324.0039,312.8711 Q324.4531,312.7344 324.9609,312.2852 Q325.293,312.0313 325.4688,311.9531 Q325.6445,311.875 325.8594,311.875 Q326.2695,311.875 326.5625,312.207 Q326.875,312.5195 326.875,312.9688 Q326.875,313.3984 326.4453,313.9063 Q325.8203,314.6484 324.8242,315.0586 Q323.5156,315.625 321.9141,315.625 Q320.0391,315.625 318.5352,314.8828 Q317.3242,314.2969 316.4648,313.0273 Q315.625,311.7578 315.625,310.2539 L315.625,308.8867 Q315.625,307.3242 316.3672,305.957 Q317.1289,304.5898 318.4375,303.8672 Q319.7656,303.125 321.25,303.125 Q322.1484,303.125 322.9297,303.4375 Q323.7109,303.75 324.375,304.375 Z "/><text fill="#000000" font-family="sans-serif" font-size="15" lengthAdjust="spacingAndGlyphs" textLength="97.5" x="339.375" y="314.8877">ContratosImpl</text><line style="stroke: #A80036; stroke-width: 1.875;" x1="304.375" x2="439.375" y1="328.75" y2="328.75"/><line style="stroke: #A80036; stroke-width: 1.875;" x1="304.375" x2="439.375" y1="338.75" y2="338.75"/><!--MD5=[175f95e045c1a44aed0b30df3abe0e5c]
class Program--><rect fill="#FEFECE" filter="url(#flksozzgcdzvv)" height="94.5898" id="Program" style="stroke: #A80036; stroke-width: 1.875;" width="373.75" x="382.5" y="44.375"/><ellipse cx="534.0625" cy="64.375" fill="#ADD1B2" rx="13.75" ry="13.75" style="stroke: #A80036; stroke-width: 1.25;"/><path d="M536.5625,60 Q536.8164,59.375 537.1094,59.0625 Q537.4023,58.75 537.7344,58.75 Q538.3203,58.75 538.6914,59.1016 Q539.0625,59.4531 539.0625,60.2734 L539.0625,62.2266 Q539.0625,63.0469 538.7109,63.3984 Q538.3594,63.75 537.8125,63.75 Q537.3242,63.75 537.0117,63.5352 Q536.6992,63.3203 536.5625,62.7539 Q536.5039,62.3633 536.2891,62.1484 Q535.8984,61.7383 535.1953,61.5039 Q534.4922,61.25 533.7891,61.25 Q532.9102,61.25 532.168,61.6016 Q531.4453,61.9531 530.8789,62.7344 Q530.3125,63.5156 530.3125,64.5898 L530.3125,65.7422 Q530.3125,67.0313 531.3672,67.8906 Q532.4219,68.75 534.2969,68.75 Q535.4102,68.75 536.1914,68.4961 Q536.6406,68.3594 537.1484,67.9102 Q537.4805,67.6563 537.6563,67.5781 Q537.832,67.5 538.0469,67.5 Q538.457,67.5 538.75,67.832 Q539.0625,68.1445 539.0625,68.5938 Q539.0625,69.0234 538.6328,69.5313 Q538.0078,70.2734 537.0117,70.6836 Q535.7031,71.25 534.1016,71.25 Q532.2266,71.25 530.7227,70.5078 Q529.5117,69.9219 528.6523,68.6523 Q527.8125,67.3828 527.8125,65.8789 L527.8125,64.5117 Q527.8125,62.9492 528.5547,61.582 Q529.3164,60.2148 530.625,59.4922 Q531.9531,58.75 533.4375,58.75 Q534.3359,58.75 535.1172,59.0625 Q535.8984,59.375 536.5625,60 Z "/><text fill="#000000" font-family="sans-serif" font-size="15" lengthAdjust="spacingAndGlyphs" textLength="60" x="559.6875" y="70.5127">Program</text><line style="stroke: #A80036; stroke-width: 1.875;" x1="383.75" x2="755" y1="84.375" y2="84.375"/><line style="stroke: #A80036; stroke-width: 1.875;" x1="383.75" x2="755" y1="94.375" y2="94.375"/><ellipse cx="396.25" cy="108.125" fill="#84BE84" rx="3.75" ry="3.75" style="stroke: #038048; stroke-width: 1.25;"/><text fill="#000000" font-family="sans-serif" font-size="13.75" lengthAdjust="spacingAndGlyphs" textLength="41.25" x="407.5" y="113.6487">Main();</text><ellipse cx="396.25" cy="125.4199" fill="#84BE84" rx="3.75" ry="3.75" style="stroke: #038048; stroke-width: 1.25;"/><text fill="#000000" font-family="sans-serif" font-size="13.75" lengthAdjust="spacingAndGlyphs" textLength="341.25" x="407.5" y="130.9436">IHostBuilder CreateHostBuilder(string[] args):IHostBuilder</text><!--MD5=[50addf2cd7060491e5b1437a48355d4a]
link Program to ContratosImpl--><path d="M528.45,139.6125 C489.025,184.4125 430.6,250.7875 397.3875,288.5125 " fill="none" id="Program-ContratosImpl" style="stroke: #A80036; stroke-width: 1.25;"/><text fill="#000000" font-family="sans-serif" font-size="16.25" lengthAdjust="spacingAndGlyphs" textLength="26.25" x="466.875" y="229.3689">use</text><!--MD5=[21993a2f01572d80810d32a9bbc66808]
link ContratosImpl to Persona--><path d="M392.6625,348.9 C415.6125,380.8125 454.0875,434.2875 489.95,484.15 " fill="none" id="ContratosImpl-Persona" style="stroke: #A80036; stroke-width: 1.25;"/><text fill="#000000" font-family="sans-serif" font-size="16.25" lengthAdjust="spacingAndGlyphs" textLength="26.25" x="445.625" y="421.8689">use</text><text fill="#000000" font-family="sans-serif" font-size="16.25" lengthAdjust="spacingAndGlyphs" textLength="25" x="454.6968" y="467.4273">0..*</text><!--MD5=[16a0b4f97deef648445e24671a5267e7]
link ContratosImpl to Vehiculo--><path d="M371.875,348.9 C371.875,387.675 371.875,458.2875 371.875,515.5625 " fill="none" id="ContratosImpl-Vehiculo" style="stroke: #A80036; stroke-width: 1.25;"/><text fill="#000000" font-family="sans-serif" font-size="16.25" lengthAdjust="spacingAndGlyphs" textLength="26.25" x="373.125" y="421.8689">use</text><text fill="#000000" font-family="sans-serif" font-size="16.25" lengthAdjust="spacingAndGlyphs" textLength="25" x="345.5859" y="502.0802">0..*</text><!--MD5=[0d5518927c09ca6033a2c215b7a5f9f2]
link ContratosImpl to Registro--><path d="M352.3625,348.9 C324.825,389.65 273.5375,465.5875 233.925,524.2375 " fill="none" id="ContratosImpl-Registro" style="stroke: #A80036; stroke-width: 1.25;"/><text fill="#000000" font-family="sans-serif" font-size="16.25" lengthAdjust="spacingAndGlyphs" textLength="26.25" x="316.875" y="421.8689">use</text><text fill="#000000" font-family="sans-serif" font-size="16.25" lengthAdjust="spacingAndGlyphs" textLength="25" x="213.5242" y="511.0655">0..*</text><!--MD5=[014cb7974ed42994b517fbc654c3c4ca]
link Contratos to ContratosImpl--><path d="M244.6,173.8125 C279.9875,213.7625 320.5125,259.5125 346.15,288.45 " fill="none" id="Contratos-ContratosImpl" style="stroke: #A80036; stroke-width: 1.25; stroke-dasharray: 7.0,7.0;"/><text fill="#000000" font-family="sans-serif" font-size="16.25" lengthAdjust="spacingAndGlyphs" textLength="75" x="298.125" y="229.3689">implement</text><!--MD5=[66bb981f011e8066cb3db7b436a42a42]
link Sexo to Persona--><path d="M576.875,366.425 C576.875,393.075 576.875,428.1375 576.875,463.1375 " fill="none" id="Sexo-Persona" style="stroke: #A80036; stroke-width: 1.25;"/><text fill="#000000" font-family="sans-serif" font-size="16.25" lengthAdjust="spacingAndGlyphs" textLength="26.25" x="578.125" y="421.8689">use</text><!--MD5=[867fa6dff7d6adcde95b27204bb4fd3a]
link Estado to Registro--><path d="M179.375,366.425 C179.375,409.0125 179.375,473.025 179.375,524.025 " fill="none" id="Estado-Registro" style="stroke: #A80036; stroke-width: 1.25;"/><text fill="#000000" font-family="sans-serif" font-size="16.25" lengthAdjust="spacingAndGlyphs" textLength="26.25" x="180.625" y="421.8689">use</text><!--MD5=[0c3a68a9c172921749cf63afebeb1a58]
@startuml
interface Contratos{
+Persona crearPersona(Persona persona);
+Vehiculo crearVehiculo(Vehiculo vehiculo);
+Registro crearRegistro(Registro registro);
+Persona obtenerPersona(string rut);
+Vehiculo obtenerVehiculo(string patente);
+Registro obtenerUltimoRegistro(Registro registro);
}
class Registro {
- int uid;
- string patente;
- string responsable;
- string fecha;
- string hora;
- Estado estado;
}
class Vehiculo{ 
-int uid;
-string patente;
-string marca;
-string modelo;
-int anio;
-string observacion;
-string responsable;
}
enum Sexo{
VAR,
MUJ
}
enum Estado{
ENTRADA,
SALIDA
}
class Persona{
- int uid;
- int webId;
- string nombre; 
- string rut; 
- Sexo sexo; 
- string cargo;
- string unidad;
- string email; 
- string telefono; 
- string oficina; 
- string direccionTrabajo;
- string direccionCasa;
- string comuna;
}
class ContratosImpl{
}
class Program{
+Main();
+IHostBuilder CreateHostBuilder(string[] args):IHostBuilder
}
Program- -ContratosImpl: use
ContratosImpl- -"0..*"Persona:use
ContratosImpl- -"0..*"Vehiculo:use
ContratosImpl- -"0..*"Registro:use
Contratos..ContratosImpl:implement
Sexo- -Persona:use
Estado- - Registro:use
@enduml

PlantUML version 1.2020.09(Sun May 10 06:51:06 CLT 2020)
(GPL source distribution)
Java Runtime: OpenJDK Runtime Environment
JVM: OpenJDK 64-Bit Server VM
Java Version: 11.0.7+10-b765.53
Operating System: Windows 10
Default Encoding: Cp1252
Language: es
Country: ES
--></g></svg>